<svg xmlns="http://www.w3.org/2000/svg" viewBox="-151 398.89 292.604 45">
  <path d="M-40.424 401.447c.264 0 .534.061.81.18.275.121.522.259.738.414.216.156.396.33.54.522.144.192.216.359.216.504 0 .072-.012.12-.036.144-.697.696-1.561 1.729-2.592 3.097a127.676 127.676 0 00-3.384 4.733 175.85 175.85 0 00-3.78 5.778 285.474 285.474 0 00-3.78 6.192c.264.264.45.563.558.899.108.337.162.66.162.972 0 .265-.036.486-.108.666-.072.181-.18.271-.324.271-.121 0-.294-.108-.522-.324a4.427 4.427 0 00-.846-.612 166.742 166.742 0 00-2.484 4.519 86.281 86.281 0 00-1.998 3.996 35.942 35.942 0 00-1.332 3.204c-.324.923-.486 1.638-.486 2.142 0 .408-.192.612-.576.612-.264 0-.558-.09-.882-.271a4.608 4.608 0 01-.954-.72c-.312-.301-.57-.66-.774-1.08s-.306-.869-.306-1.35c0-.312.174-.847.522-1.603s.816-1.68 1.404-2.771a100.443 100.443 0 012.088-3.672 192.888 192.888 0 012.61-4.267 50.182 50.182 0 00-3.582-.936 50.245 50.245 0 00-3.978-.721 635.743 635.743 0 01-5.328 4.771c-1.776 1.572-3.498 3.078-5.166 4.518s-3.264 2.772-4.788 3.996a82.098 82.098 0 01-4.212 3.187c-1.284.899-2.418 1.607-3.402 2.124-.984.516-1.776.773-2.376.773-.648 0-1.2-.107-1.656-.323-.457-.217-.828-.486-1.116-.811s-.492-.66-.612-1.008a2.929 2.929 0 01-.18-.954c0-.24.036-.438.108-.594.072-.156.18-.234.324-.234s.306.09.486.271c.18.18.438.27.774.27.816 0 2.016-.456 3.6-1.368 1.584-.911 3.414-2.124 5.49-3.636a181.879 181.879 0 006.786-5.22 871.046 871.046 0 007.524-6.12 14.51 14.51 0 00-.99-.036h-.954c-.936 0-1.8.042-2.592.126-.792.084-1.476.223-2.052.414-.576.192-1.032.444-1.368.756-.336.312-.504.684-.504 1.116 0 .624-.132.936-.396.936-.144 0-.294-.077-.45-.233-.157-.156-.3-.36-.432-.612a4.495 4.495 0 01-.342-.9 3.97 3.97 0 01-.144-1.062c0-.527.09-1.008.27-1.44.18-.432.504-.81.972-1.134s1.098-.576 1.89-.756c.792-.18 1.8-.27 3.024-.27 1.056 0 2.178.06 3.366.18 1.188.12 2.406.276 3.654.468 1.8-1.487 3.576-2.958 5.328-4.41a528.944 528.944 0 015.058-4.14c1.62-1.308 3.15-2.525 4.59-3.654a92.93 92.93 0 013.906-2.916c1.164-.815 2.172-1.451 3.024-1.908.852-.456 1.506-.685 1.962-.685zm-20.628 18.324c1.224.264 2.381.54 3.474.828 1.092.288 2.07.588 2.934.899a633.843 633.843 0 013.006-4.644c1.02-1.56 2.016-3.065 2.988-4.519.972-1.451 1.89-2.813 2.754-4.086a136.887 136.887 0 012.34-3.348c-.984.672-2.124 1.53-3.42 2.574s-2.694 2.214-4.194 3.51a399.958 399.958 0 00-4.752 4.176c-1.668 1.49-3.379 3.025-5.13 4.61zm29.339 8.963c.264 0 .51.126.738.378.228.252.342.475.342.666 0 .072-.198.139-.594.198-.396.059-.924.15-1.584.27s-1.416.265-2.268.433-1.734.396-2.646.684a23.522 23.522 0 01-1.584 1.836 13.203 13.203 0 01-1.71 1.512 9.383 9.383 0 01-1.782 1.044c-.6.265-1.188.396-1.764.396-.625 0-1.104-.126-1.44-.378-.336-.252-.504-.474-.504-.666 0-.408.12-.798.36-1.17a4.1 4.1 0 011.008-1.044c.432-.324.942-.636 1.53-.937a21.57 21.57 0 011.89-.846c.6-.744 1.182-1.523 1.746-2.34a46.254 46.254 0 001.512-2.322c.444-.731.797-1.38 1.062-1.944.264-.563.396-.966.396-1.206 0-.167-.06-.252-.18-.252-.288 0-.774.301-1.458.9-.684.601-1.446 1.368-2.286 2.304a67.323 67.323 0 00-2.592 3.078 81.996 81.996 0 00-2.43 3.204 43.155 43.155 0 00-1.818 2.718c-.48.792-.72 1.332-.72 1.62 0 .408-.157.612-.468.612-.216 0-.468-.09-.756-.271a3.317 3.317 0 01-.81-.737c-.252-.311-.468-.672-.648-1.08s-.27-.852-.27-1.332c0-.384.156-.978.468-1.782.312-.804.732-1.746 1.26-2.826a73.938 73.938 0 011.836-3.492c.696-1.247 1.422-2.52 2.178-3.815a172.45 172.45 0 012.268-3.78c.756-1.224 1.476-2.352 2.16-3.384s1.296-1.92 1.836-2.664c.54-.744.954-1.26 1.242-1.548.216-.216.48-.324.792-.324.24 0 .48.061.72.18.24.121.462.265.666.433s.366.348.486.54c.12.192.18.348.18.468 0 .072-.012.12-.036.144-.84.841-1.752 1.95-2.736 3.33a68.4 68.4 0 00-2.934 4.5 99.91 99.91 0 00-2.826 5.04 77.106 77.106 0 00-2.376 4.914 55.4 55.4 0 012.646-3.096 62.133 62.133 0 012.736-2.809c.876-.84 1.656-1.523 2.34-2.052.684-.527 1.182-.792 1.494-.792.36 0 .708.085 1.044.252.336.168.642.391.918.666.276.276.498.582.666.918.168.337.252.66.252.973 0 .552-.204 1.326-.612 2.321-.408.996-.96 2.047-1.656 3.15 1.104-.264 2.082-.462 2.934-.594s1.446-.199 1.782-.199z"/>
  <path d="M-16.737 428.051c.072-.071.144-.107.216-.107.192 0 .366.103.522.306.156.204.234.414.234.63 0 .288-.234.583-.702.883s-1.068.588-1.8.863c-.732.276-1.542.522-2.43.738-.888.216-1.752.384-2.592.504-.432.696-.912 1.374-1.44 2.034s-1.098 1.254-1.71 1.782a8.948 8.948 0 01-1.908 1.277 4.5 4.5 0 01-1.998.486c-.697 0-1.291-.09-1.782-.271-.492-.18-.895-.421-1.206-.722-.312-.301-.54-.644-.684-1.028s-.216-.794-.216-1.228c0-.24.059-.554.176-.938.117-.385.271-.794.458-1.227.188-.434.394-.86.617-1.281.224-.421.442-.775.657-1.064-.121-.265-.18-.638-.18-1.119 0-.602.241-1.233.722-1.895a8.904 8.904 0 011.77-1.805 11.112 11.112 0 012.257-1.354c.807-.36 1.535-.541 2.186-.541.649 0 1.239.139 1.769.416.53.277.975.628 1.336 1.05s.644.887.849 1.393c.205.507.307.989.307 1.448 0 .265-.078.627-.234 1.085-.156.459-.366.978-.63 1.556a18.315 18.315 0 003.222-.684c.996-.31 1.734-.707 2.214-1.187zm-14.108 7.669c.412 0 .974-.354 1.688-1.062s1.434-1.566 2.16-2.574a15.01 15.01 0 01-1.761-.162 6.404 6.404 0 01-1.506-.414 11.668 11.668 0 00-.708 1.782c-.206.66-.308 1.219-.308 1.674-.001.503.144.756.435.756zm6.437-10.945c-.7 0-1.4.144-2.1.432s-1.333.63-1.9 1.026-1.032.805-1.394 1.224c-.362.421-.542.751-.542.99 0 .265.12.492.361.684.242.192.573.354.996.486.422.132.917.24 1.484.324a16.46 16.46 0 001.829.162c.554-.912 1.007-1.782 1.357-2.61s.525-1.481.525-1.962c-.001-.504-.206-.756-.616-.756z"/>
  <path d="M15.879 416.171c.216.24.378.511.486.811.108.3.162.582.162.846 0 .337-.066.618-.198.846-.132.229-.294.343-.486.343-.048 0-.15-.048-.306-.145a4.576 4.576 0 00-.702-.324 8.609 8.609 0 00-1.242-.342c-.517-.107-1.158-.174-1.926-.198a866.629 866.629 0 00-2.106 3.402 186.788 186.788 0 00-2.142 3.564c-.697 1.188-1.35 2.34-1.962 3.456a105.966 105.966 0 00-1.602 3.023c-.457.9-.823 1.662-1.098 2.286-.276.624-.414 1.044-.414 1.26 0 .097.036.145.108.145.24 0 .624-.181 1.152-.54.528-.36 1.122-.804 1.782-1.332.66-.528 1.344-1.11 2.052-1.746l1.944-1.746a54.229 54.229 0 001.44-1.332c.372-.36.57-.54.594-.54.192 0 .36.103.504.306.144.204.216.414.216.631 0 .168-.048.3-.144.396-.144.144-.438.444-.882.9s-.979.984-1.602 1.584a92.25 92.25 0 01-2.052 1.907 40.144 40.144 0 01-2.196 1.854 17.503 17.503 0 01-2.016 1.386c-.625.36-1.128.54-1.512.54a2.747 2.747 0 01-1.818-.647c-.516-.433-.774-1.032-.774-1.801 0-.312.126-.797.378-1.458.252-.659.594-1.427 1.026-2.304.432-.876.941-1.848 1.53-2.916a217.646 217.646 0 011.854-3.294 125.738 125.738 0 01-3.33 3.96 60.514 60.514 0 01-3.186 3.384c-1.008.984-1.938 1.776-2.79 2.376-.852.601-1.566.9-2.142.9-.36 0-.715-.072-1.062-.216a3.002 3.002 0 01-.936-.612 3.213 3.213 0 01-.666-.9 2.453 2.453 0 01-.252-1.115c0-.312.06-.732.18-1.261-.672.697-1.362 1.398-2.07 2.106a40.02 40.02 0 01-2.034 1.908 14.808 14.808 0 01-1.8 1.368c-.552.348-.996.521-1.332.521-.84 0-1.482-.27-1.926-.81-.444-.54-.666-1.206-.666-1.998 0-.36.121-.852.36-1.477.24-.623.552-1.313.936-2.069a38.18 38.18 0 011.296-2.341c.48-.804.948-1.565 1.404-2.285.456-.721.882-1.351 1.278-1.891s.713-.93.954-1.17c.24-.216.516-.324.828-.324.24 0 .48.061.72.181.239.12.461.264.666.432.204.168.365.342.486.522.12.18.18.33.18.449 0 .072-.013.121-.036.145-.168.168-.426.492-.774.972a53.07 53.07 0 00-1.17 1.692 65.722 65.722 0 00-1.314 2.052 35.13 35.13 0 00-1.206 2.106c-.36.684-.661 1.308-.9 1.872-.24.563-.36.989-.36 1.277 0 .265.108.396.324.396.12 0 .378-.181.774-.54.396-.36.876-.822 1.44-1.387a72.326 72.326 0 001.818-1.89c.648-.695 1.29-1.38 1.926-2.052.635-.672 1.224-1.302 1.764-1.89.54-.588.978-1.05 1.314-1.387.216-.216.492-.324.828-.324.264 0 .54.061.828.181s.545.27.774.45c.228.18.414.359.558.54.144.18.216.33.216.449 0-.048-.114.139-.342.559-.229.42-.474.918-.738 1.494-.264.575-.51 1.17-.738 1.781-.229.612-.342 1.087-.342 1.422 0 .288.083.433.252.433.191 0 .534-.216 1.026-.648.492-.432 1.085-1.02 1.782-1.764.696-.743 1.476-1.607 2.34-2.592.864-.984 1.751-2.028 2.664-3.132.912-1.104 1.841-2.232 2.79-3.385a302.794 302.794 0 002.718-3.348c-1.417.097-2.856.24-4.32.432a59.588 59.588 0 00-4.14.685c-1.296.265-2.43.57-3.402.918-.972.348-1.663.726-2.07 1.134-.12.12-.24.18-.36.18-.168 0-.3-.096-.396-.288a1.507 1.507 0 01-.144-.684c0-.384.108-.684.324-.9.36-.359 1.11-.726 2.25-1.098 1.14-.372 2.489-.726 4.05-1.062a88.338 88.338 0 014.986-.918 79.364 79.364 0 015.022-.631c.936-1.199 1.68-2.159 2.232-2.88.552-.72.983-1.271 1.296-1.655.312-.384.558-.636.738-.757a1 1 0 01.558-.18c.24 0 .48.061.72.18.239.121.461.265.666.433.204.168.366.348.486.54.12.192.18.348.18.468 0 .049-.09.187-.27.414-.18.229-.402.517-.666.864l-.864 1.134c-.312.408-.612.816-.9 1.224.696.024 1.272.072 1.728.145.456.073.768.194.936.361zm58.357-14.4a1.2 1.2 0 01.828-.324c.264 0 .527.061.792.18.264.121.504.271.72.45s.39.36.522.54c.132.18.198.33.198.45 0 .072-.013.12-.036.144-.625.625-1.404 1.579-2.341 2.862a113.123 113.123 0 00-3.06 4.446 179.428 179.428 0 00-3.456 5.489c-1.2 1.98-2.376 3.991-3.528 6.03a262.635 262.635 0 00-3.294 6.012c-1.044 1.969-1.957 3.793-2.736 5.473s-1.404 3.149-1.872 4.41c-.468 1.26-.702 2.189-.702 2.79 0 .407-.192.611-.576.611-.264 0-.558-.09-.882-.27a4.608 4.608 0 01-.954-.72 3.788 3.788 0 01-.774-1.08 3.054 3.054 0 01-.306-1.351c0-.336.216-.99.648-1.962.432-.972 1.02-2.16 1.764-3.563a145.834 145.834 0 012.592-4.662c.984-1.704 2.022-3.475 3.114-5.311s2.214-3.678 3.366-5.525c1.152-1.849 2.256-3.612 3.312-5.292-1.608 1.824-3.312 3.762-5.112 5.813s-3.624 4.086-5.472 6.103a263.145 263.145 0 01-5.454 5.777 102.136 102.136 0 01-5.04 4.86c-1.572 1.404-2.988 2.52-4.248 3.348s-2.274 1.242-3.042 1.242c-.504 0-.996-.096-1.476-.288a4.273 4.273 0 01-1.296-.81 4.113 4.113 0 01-.936-1.26c-.24-.492-.36-1.05-.36-1.675 0-.479.209-1.17.63-2.069.419-.9.978-1.932 1.674-3.097a103.276 103.276 0 012.358-3.744 406.755 406.755 0 012.7-4.05c.923-1.368 1.824-2.705 2.7-4.014a196.23 196.23 0 002.358-3.6 36.803 36.803 0 001.674-2.862c.419-.815.63-1.404.63-1.764 0-.145-.042-.246-.126-.307-.084-.06-.258-.09-.522-.09-.528 0-1.35.103-2.466.306-1.116.204-2.406.48-3.87.828-1.464.349-3.042.756-4.734 1.225-1.692.468-3.39.966-5.094 1.493-1.704.528-3.336 1.08-4.896 1.656s-2.946 1.146-4.158 1.71c-1.212.564-2.178 1.11-2.898 1.639-.72.527-1.08 1.008-1.08 1.439 0 .504-.18.756-.54.756-.168 0-.36-.071-.576-.216a2.738 2.738 0 01-.612-.576c-.192-.239-.354-.527-.486-.863s-.198-.685-.198-1.045c0-.552.372-1.127 1.116-1.728.744-.6 1.746-1.193 3.006-1.782a48.466 48.466 0 014.338-1.746 89.254 89.254 0 015.094-1.62 141.607 141.607 0 0110.242-2.519 86.435 86.435 0 014.068-.738c1.176-.18 2.04-.27 2.592-.27s1.08.114 1.584.342c.504.229.948.534 1.332.918s.689.81.918 1.278c.228.468.342.941.342 1.422 0 .72-.33 1.734-.99 3.042-.661 1.309-1.488 2.771-2.484 4.392a173.15 173.15 0 01-3.24 5.059 234.14 234.14 0 00-3.24 5.004c-.997 1.584-1.824 3.006-2.484 4.266s-.99 2.202-.99 2.826c0 .504.24.756.72.756s1.218-.365 2.214-1.098c.996-.732 2.171-1.729 3.528-2.988 1.355-1.26 2.85-2.729 4.482-4.41 1.632-1.68 3.33-3.456 5.094-5.328s3.546-3.785 5.346-5.742c1.8-1.955 3.546-3.857 5.238-5.705a522.227 522.227 0 014.806-5.185 191.8 191.8 0 013.997-4.138zm6.875 26.245c.383 0 .684.102.9.306.215.204.324.402.324.594 0 .24-.133.36-.396.36-.48 0-1.074.09-1.783.27-.707.181-1.475.427-2.303.738-.828.312-1.693.679-2.592 1.098-.9.421-1.783.858-2.646 1.314.311.384.564.769.756 1.152.192.383.287.756.287 1.115 0 .696-.264 1.339-.791 1.927a8.02 8.02 0 01-1.873 1.529 11.01 11.01 0 01-2.219 1.026c-.76.252-1.377.378-1.852.378-.334 0-.675-.084-1.023-.252a4.243 4.243 0 01-.954-.63c-.288-.252-.522-.54-.702-.864s-.27-.642-.27-.954c0-.359.138-.737.414-1.134.275-.396.648-.792 1.116-1.188a16.122 16.122 0 011.647-1.205 28.788 28.788 0 012.012-1.188 49.736 49.736 0 01-.871-1.062 13.52 13.52 0 01-.801-1.116 8.301 8.301 0 01-.586-1.08 2.448 2.448 0 01-.23-.99c0-.36.135-.786.408-1.278a9.454 9.454 0 011.066-1.512c.439-.516.939-1.025 1.5-1.53a16.927 16.927 0 011.705-1.35 11.24 11.24 0 011.691-.972c.552-.252 1.031-.378 1.439-.378.457 0 .877.084 1.262.252.383.168.719.372 1.008.611.287.24.51.511.666.811.154.3.232.57.232.81 0 .504-.102 1.057-.305 1.656a9.065 9.065 0 01-.775 1.692 5.72 5.72 0 01-1.061 1.332c-.396.359-.787.54-1.17.54-.266 0-.504-.055-.721-.162a2.402 2.402 0 01-.559-.378 1.964 1.964 0 01-.377-.469.95.95 0 01-.145-.468c0-.216.119-.324.359-.324.264 0 .564-.174.9-.521.336-.347.654-.756.955-1.225.299-.468.551-.923.756-1.367.203-.444.305-.762.305-.954 0-.096-.035-.145-.107-.145-.48 0-1.062.252-1.746.756s-1.35 1.093-1.998 1.765a16.106 16.106 0 00-1.656 1.998c-.455.66-.684 1.146-.684 1.458 0 .288.18.647.541 1.08.359.432.779.899 1.26 1.403a69.902 69.902 0 013.059-1.296 52.945 52.945 0 012.863-1.044 33.34 33.34 0 012.322-.684c.673-.168 1.154-.251 1.443-.251zm-10.369 6.55c0-.096-.107-.312-.322-.648-1.273.744-2.328 1.435-3.168 2.07-.841.636-1.261 1.11-1.261 1.422 0 .048.048.072.144.072.192 0 .541-.102 1.044-.306.503-.204 1.02-.456 1.547-.757a9.86 9.86 0 001.404-.954c.408-.333.612-.633.612-.899z"/>
</svg>
