<svg xmlns="http://www.w3.org/2000/svg" viewBox="-144 398.818 305.745 45.072">
  <path d="M1.674 414.496c0 .816-.205 1.597-.612 2.34-.408.744-.96 1.464-1.656 2.16a14.977 14.977 0 01-2.466 1.962 27.3 27.3 0 01-3.042 1.692 37.47 37.47 0 01-3.348 1.403c-1.152.42-2.292.774-3.42 1.062.792.216 1.548.474 2.268.773.72.301 1.35.648 1.89 1.044s.972.847 1.296 1.351.486 1.068.486 1.691c0 1.129-.438 2.202-1.314 3.223s-2.022 1.956-3.438 2.808c-1.416.853-3.012 1.62-4.788 2.304a50.18 50.18 0 01-5.346 1.729 50.72 50.72 0 01-5.148 1.08c-1.644.252-3.03.378-4.158.378-.72 0-1.266-.204-1.638-.612-.373-.408-.558-.805-.558-1.188 0-.385.126-.589.378-.612.252-.024.618-.072 1.098-.145a2.953 2.953 0 01-.396-1.512c0-.527.306-1.458.918-2.79s1.416-2.903 2.412-4.716a198.167 198.167 0 013.402-5.922 418.536 418.536 0 0111.232-17.821 56.84 56.84 0 00-7.056-.432c-1.92 0-3.762.103-5.526.306-1.764.204-3.318.504-4.662.9-1.344.396-2.412.906-3.204 1.53-.792.624-1.188 1.344-1.188 2.159 0 .217-.108.324-.324.324-.144 0-.318-.054-.522-.162a2.044 2.044 0 01-.576-.468 2.793 2.793 0 01-.45-.702 2.132 2.132 0 01-.18-.899c0-.888.468-1.687 1.404-2.395.936-.707 2.19-1.313 3.762-1.818 1.572-.504 3.378-.887 5.418-1.151a49.932 49.932 0 016.408-.396c1.416 0 2.832.055 4.248.162 1.416.108 2.808.282 4.176.522.432-.624.762-1.104.99-1.44.228-.336.42-.576.576-.72.156-.145.288-.228.396-.252a1.843 1.843 0 011.17.144c.264.121.504.271.72.45.216.18.39.36.522.54.131.18.198.33.198.45 0 .048-.048.132-.144.252s-.21.252-.342.396c-.132.145-.276.295-.432.45a3.059 3.059 0 00-.378.45c1.56.408 3.006.924 4.338 1.548 1.332.625 2.49 1.351 3.474 2.178.984.828 1.752 1.776 2.304 2.845.551 1.07.828 2.251.828 3.547zm-10.368 15.408c0-.433-.229-.811-.684-1.135-.456-.323-1.062-.611-1.818-.863a17.651 17.651 0 00-2.628-.63 45.7 45.7 0 00-3.132-.414 74.595 74.595 0 00-3.294-.252 99.542 99.542 0 00-3.096-.126c-1.296 2.424-2.407 4.692-3.33 6.804-.924 2.112-1.554 3.888-1.89 5.328a41.645 41.645 0 004.428-.937c1.536-.408 3.042-.864 4.518-1.368s2.874-1.044 4.194-1.619a37.531 37.531 0 003.474-1.711c.996-.563 1.788-1.109 2.376-1.638.587-.526.882-1.007.882-1.439zm-13.285-5.976c1.392-.023 2.898-.186 4.518-.485 1.62-.299 3.24-.696 4.86-1.188a41.3 41.3 0 004.68-1.728c1.5-.66 2.826-1.38 3.978-2.16s2.076-1.603 2.772-2.466c.696-.864 1.044-1.74 1.044-2.629 0-.792-.282-1.529-.846-2.214-.564-.684-1.338-1.302-2.322-1.854s-2.142-1.038-3.474-1.458a36.972 36.972 0 00-4.302-1.062c-.792 1.057-1.638 2.257-2.538 3.601s-1.824 2.76-2.772 4.248a173.762 173.762 0 00-2.844 4.626 219.972 219.972 0 00-2.754 4.769zM12.366 427.816a.348.348 0 01.252-.107c.192 0 .36.103.504.306.144.204.216.414.216.63a.532.532 0 01-.144.396c-.216.216-.576.57-1.08 1.062s-1.11 1.044-1.818 1.656-1.494 1.236-2.358 1.872a27.742 27.742 0 01-2.718 1.764c-.949.54-1.92.979-2.916 1.314a9.149 9.149 0 01-2.934.504c-.504 0-.966-.096-1.386-.288a3.463 3.463 0 01-1.08-.756 3.612 3.612 0 01-.72-1.098c-.18-.42-.27-.858-.27-1.314 0-.576.162-1.278.486-2.105.324-.828.756-1.692 1.296-2.593.54-.899 1.146-1.8 1.818-2.699.671-.9 1.355-1.704 2.052-2.412.696-.708 1.374-1.284 2.034-1.729.66-.443 1.229-.666 1.71-.666.456 0 .876.085 1.26.252.384.168.708.378.972.63s.474.528.63.828c.156.301.234.57.234.811 0 .624-.234 1.41-.702 2.357-.468.948-1.098 1.891-1.89 2.826a14.697 14.697 0 01-2.772 2.521c-1.056.744-2.172 1.2-3.348 1.367a.818.818 0 01-.018.162.77.77 0 00-.018.162c0 .889.468 1.332 1.404 1.332.624 0 1.314-.144 2.07-.432.756-.288 1.518-.66 2.286-1.116.768-.456 1.53-.96 2.286-1.512a42.945 42.945 0 004.662-3.925zm-5.976-4.788c-.192 0-.535.246-1.026.737a20.286 20.286 0 00-1.62 1.872 38.823 38.823 0 00-1.782 2.502c-.6.913-1.092 1.8-1.476 2.664.48-.072.966-.288 1.458-.647.492-.36.96-.786 1.404-1.278.444-.491.858-1.026 1.242-1.602.384-.576.72-1.135 1.008-1.675s.51-1.02.666-1.439c.156-.42.234-.726.234-.918-.001-.144-.037-.216-.108-.216z"/>
  <path d="M26.189 427.816a.348.348 0 01.252-.107c.192 0 .36.103.504.306.144.204.216.414.216.63a.532.532 0 01-.144.396c-.216.216-.576.57-1.08 1.062s-1.11 1.044-1.818 1.656-1.494 1.236-2.358 1.872a27.742 27.742 0 01-2.718 1.764c-.949.54-1.92.979-2.916 1.314a9.149 9.149 0 01-2.934.504c-.504 0-.966-.096-1.386-.288a3.463 3.463 0 01-1.08-.756 3.612 3.612 0 01-.72-1.098c-.18-.42-.27-.858-.27-1.314 0-.576.162-1.278.486-2.105.324-.828.756-1.692 1.296-2.593.54-.899 1.146-1.8 1.818-2.699.671-.9 1.355-1.704 2.052-2.412.696-.708 1.374-1.284 2.034-1.729.66-.443 1.229-.666 1.71-.666.456 0 .876.085 1.26.252.384.168.708.378.972.63s.474.528.63.828c.156.301.234.57.234.811 0 .624-.234 1.41-.702 2.357-.468.948-1.098 1.891-1.89 2.826a14.697 14.697 0 01-2.772 2.521c-1.056.744-2.172 1.2-3.348 1.367a.818.818 0 01-.018.162.77.77 0 00-.018.162c0 .889.468 1.332 1.404 1.332.624 0 1.314-.144 2.07-.432.756-.288 1.518-.66 2.286-1.116.768-.456 1.53-.96 2.286-1.512a42.945 42.945 0 004.662-3.925zm-5.976-4.788c-.192 0-.535.246-1.026.737a20.286 20.286 0 00-1.62 1.872 38.823 38.823 0 00-1.782 2.502c-.6.913-1.092 1.8-1.476 2.664.48-.072.966-.288 1.458-.647.492-.36.96-.786 1.404-1.278.444-.491.858-1.026 1.242-1.602.384-.576.72-1.135 1.008-1.675s.51-1.02.666-1.439c.156-.42.234-.726.234-.918 0-.144-.036-.216-.108-.216z"/>
  <path d="M39.976 427.78a.345.345 0 01.252-.108c.167 0 .33.108.486.324.156.216.234.432.234.647a.485.485 0 01-.144.36c-.144.144-.42.414-.828.81s-.9.853-1.476 1.368c-.576.517-1.2 1.057-1.872 1.62a31.07 31.07 0 01-1.998 1.548 17.08 17.08 0 01-1.872 1.17c-.588.312-1.075.469-1.458.469-.697 0-1.302-.276-1.818-.828s-.774-1.212-.774-1.98c0-.455.167-1.008.504-1.656.336-.647.708-1.289 1.116-1.926.408-.636.78-1.229 1.116-1.782.336-.552.504-.959.504-1.224 0-.239-.162-.414-.486-.521a7.407 7.407 0 00-1.206-.271c-1.152 1.272-2.1 2.256-2.844 2.952-.744.696-1.32 1.206-1.728 1.53-.408.323-.69.521-.846.594-.156.072-.222.108-.198.108-.24 0-.462-.078-.666-.234-.204-.156-.306-.33-.306-.522 0-.023.084-.119.252-.288.168-.167.438-.432.81-.792l1.476-1.422a96.437 96.437 0 002.25-2.25 6.587 6.587 0 01-1.836-.575c-.528-.265-.792-.685-.792-1.261 0-.384.18-.833.54-1.35a7.355 7.355 0 011.368-1.458 8.33 8.33 0 011.854-1.152c.684-.312 1.338-.468 1.962-.468.72 0 1.236.114 1.548.342.312.229.468.534.468.918 0 .504-.216 1.116-.648 1.836-.432.721-.96 1.465-1.584 2.232.36.12.726.246 1.098.378.372.132.714.301 1.026.504.312.204.564.456.756.756.192.301.288.666.288 1.099 0 .216-.12.605-.36 1.17-.24.563-.504 1.17-.792 1.817a67.098 67.098 0 00-.792 1.854c-.24.588-.36 1.025-.36 1.313 0 .192.06.288.18.288.168 0 .45-.119.846-.359.396-.24.846-.553 1.35-.937s1.038-.81 1.602-1.278c.563-.468 1.098-.923 1.602-1.367s.954-.847 1.35-1.206c.396-.36.678-.624.846-.792zm-10.764-4.608c0 .36.216.636.648.828.696-.696 1.272-1.332 1.728-1.908s.684-.983.684-1.224c0-.145-.084-.216-.252-.216-.096 0-.294.096-.594.287-.301.192-.612.421-.936.685-.324.265-.618.54-.882.828-.264.288-.396.529-.396.72z"/>
  <path d="M54.484 427.78c.383 0 .684.102.9.306.216.204.324.402.324.594 0 .24-.132.36-.396.36-.48 0-1.074.09-1.782.27a22.34 22.34 0 00-2.304.738 37.48 37.48 0 00-2.592 1.098c-.9.421-1.782.858-2.646 1.314.312.384.563.769.756 1.152.192.384.288.756.288 1.115 0 .696-.265 1.339-.792 1.927a8.056 8.056 0 01-1.872 1.529c-.72.433-1.46.774-2.22 1.026s-1.377.378-1.851.378a2.34 2.34 0 01-1.023-.252c-.348-.168-.666-.378-.954-.63s-.522-.54-.702-.864a1.956 1.956 0 01-.27-.954c0-.359.138-.737.414-1.134.275-.396.648-.792 1.116-1.188.468-.396 1.017-.797 1.647-1.205s1.301-.805 2.013-1.188a42.026 42.026 0 01-.871-1.062 13.11 13.11 0 01-.8-1.116 8.08 8.08 0 01-.587-1.08 2.45 2.45 0 01-.231-.99c0-.36.136-.786.409-1.278a9.4 9.4 0 011.067-1.512c.439-.516.938-1.025 1.5-1.53.56-.504 1.129-.953 1.705-1.35.576-.396 1.14-.72 1.692-.972s1.032-.378 1.44-.378c.456 0 .875.084 1.26.252.384.168.72.372 1.008.611.288.24.51.511.666.811.156.3.234.57.234.81 0 .504-.103 1.057-.306 1.656a8.998 8.998 0 01-.774 1.692 5.723 5.723 0 01-1.062 1.332c-.396.359-.787.54-1.17.54-.265 0-.504-.055-.72-.162a2.396 2.396 0 01-.558-.378 1.968 1.968 0 01-.378-.469.948.948 0 01-.144-.468c0-.216.12-.324.36-.324.264 0 .563-.174.9-.521.335-.348.653-.756.954-1.225.3-.468.552-.923.756-1.367s.306-.762.306-.954c0-.096-.036-.145-.108-.145-.48 0-1.062.252-1.746.756s-1.35 1.093-1.998 1.765-1.201 1.338-1.656 1.998c-.456.66-.684 1.146-.684 1.458 0 .288.18.647.54 1.08.36.432.78.899 1.26 1.403a69.941 69.941 0 013.06-1.296 52.32 52.32 0 012.862-1.044c.876-.288 1.65-.516 2.322-.684s1.15-.251 1.438-.251zm-10.368 6.552c0-.096-.108-.312-.324-.648-1.272.744-2.328 1.435-3.168 2.07-.84.636-1.26 1.11-1.26 1.422 0 .048.048.072.144.072.192 0 .54-.102 1.044-.306.504-.204 1.02-.456 1.548-.757.528-.3.996-.617 1.404-.954.408-.334.612-.634.612-.899z"/>
</svg>
