<svg xmlns="http://www.w3.org/2000/svg" viewBox="-151 398.9 292.6 45">
  <path d="M-43.6 428.7c.1-.1.2-.1.3-.1.2 0 .4.1.5.3.1.2.2.4.2.6 0 .2 0 .3-.1.4-1.1 1.1-2.3 2.2-3.8 3.5s-3.1 2.4-5 3.5c-1.8 1.1-3.9 2-6.1 2.7-2.2.7-4.6 1.1-7.2 1.1-1.8 0-3.4-.2-4.8-.7s-2.7-1.2-3.8-2-1.9-1.8-2.4-2.9c-.6-1.1-.9-2.3-.9-3.5 0-1.4.3-2.9.9-4.5s1.4-3.2 2.4-4.8c1-1.6 2.2-3.3 3.6-4.9 1.4-1.6 2.9-3.2 4.4-4.7 1.6-1.5 3.2-2.9 4.9-4.2 1.7-1.3 3.3-2.4 5-3.3 1.6-.9 3.2-1.7 4.7-2.2 1.5-.5 2.8-.8 4-.8 1.1 0 2.1.2 3 .6.9.4 1.7.9 2.3 1.5s1.1 1.3 1.5 2.1c.3.8.5 1.5.5 2.3 0 .9-.2 2-.7 3.1-.5 1.2-1.1 2.4-1.9 3.6-.8 1.2-1.7 2.4-2.8 3.6-1 1.2-2.1 2.2-3.2 3.1-1.1.9-2.2 1.7-3.3 2.2-1.1.6-2.1.8-2.9.8-.4 0-.8-.1-1.1-.2-.3-.1-.6-.3-.9-.5s-.5-.4-.6-.6-.2-.4-.2-.6c0-.4.2-.5.6-.5.7 0 1.6-.3 2.6-.8 1-.6 2.1-1.3 3.2-2.2 1.1-.9 2.2-1.9 3.3-3.1s2.1-2.3 2.9-3.5c.9-1.2 1.6-2.3 2.1-3.4s.8-2.1.8-2.9c0-.7-.2-1.3-.7-1.7-.5-.4-1.2-.6-2.3-.6-1.6 0-3.4.5-5.5 1.5s-4.2 2.3-6.3 3.9c-2.1 1.6-4.2 3.5-6.3 5.6-2 2.1-3.9 4.2-5.5 6.4s-2.9 4.3-3.9 6.4-1.5 3.9-1.5 5.5.6 2.8 1.7 3.8c1.1.9 2.9 1.4 5.5 1.4 2.5 0 4.9-.3 7.1-.9 2.2-.6 4.3-1.4 6.2-2.4s3.6-2 5.2-3.2 3.2-2.7 4.3-3.8z"/>
  <path d="M-29 428.7c.1-.1.1-.1.2-.1.2 0 .4.1.5.3.2.2.2.4.2.6 0 .3-.2.6-.7.9s-1.1.6-1.8.9c-.7.3-1.5.5-2.4.7s-1.8.4-2.6.5c-.4.7-.9 1.4-1.4 2s-1.1 1.3-1.7 1.8-1.2 1-1.9 1.3c-.7.3-1.3.5-2 .5s-1.3-.1-1.8-.3c-.5-.2-.9-.4-1.2-.7-.3-.3-.5-.6-.7-1s-.2-.8-.2-1.2c0-.2.1-.6.2-.9.1-.4.3-.8.5-1.2.2-.4.4-.9.6-1.3.2-.4.4-.8.7-1.1-.1-.3-.2-.6-.2-1.1 0-.6.2-1.2.7-1.9s1.1-1.3 1.8-1.8 1.5-1 2.3-1.4c.8-.4 1.5-.5 2.2-.5.6 0 1.2.1 1.8.4s1 .6 1.3 1 .6.9.8 1.4c.2.5.3 1 .3 1.4 0 .3-.1.6-.2 1.1-.2.5-.4 1-.6 1.6 1.2-.1 2.2-.4 3.2-.7.8-.3 1.6-.7 2.1-1.2zm-14.2 7.6c.4 0 1-.4 1.7-1.1s1.4-1.6 2.2-2.6c-.6 0-1.2-.1-1.8-.2-.5-.1-1-.2-1.5-.4-.3.5-.5 1.1-.7 1.8-.2.7-.3 1.2-.3 1.7 0 .6.2.8.4.8zm6.5-10.9c-.7 0-1.4.1-2.1.4s-1.3.6-1.9 1-1 .8-1.4 1.2c-.4.4-.5.8-.5 1 0 .3.1.5.4.7.2.2.6.4 1 .5.4.1.9.2 1.5.3s1.2.1 1.8.2c.6-.9 1-1.8 1.4-2.6s.5-1.5.5-2c-.1-.4-.3-.7-.7-.7z"/>
  <path d="M3.7 428.7c.1-.1.2-.1.3-.1.2 0 .3.1.5.3.2.2.2.4.2.6 0 .1 0 .3-.1.4l-.8.8c-.4.4-.9.9-1.5 1.4-.6.5-1.2 1.1-1.9 1.6-.7.6-1.4 1.1-2 1.5s-1.3.9-1.9 1.2-1.1.5-1.4.5c-.5 0-1-.1-1.6-.4-.5-.3-1.1-.6-1.6-1s-1-.8-1.4-1.3-.7-.9-.9-1.2c-.6.9-1.1 1.8-1.5 2.6-.4.8-.6 1.5-.6 2 0 .4-.1.6-.4.6-.2 0-.5-.1-.8-.3s-.6-.5-.8-.8-.5-.8-.7-1.2c-.2-.5-.3-.9-.3-1.4 0-.4.2-1 .5-1.9s.8-1.8 1.4-3c.6-1.1 1.2-2.3 2-3.6.7-1.3 1.5-2.6 2.3-3.9-1 1.2-2.1 2.3-3.2 3.5s-2.3 2.3-3.4 3.5-2.3 2.2-3.4 3.2-2.2 1.9-3.2 2.6-2 1.4-2.9 1.8c-.9.4-1.7.6-2.3.6-.5 0-1-.1-1.4-.3-.5-.2-.9-.4-1.2-.7-.3-.3-.6-.7-.8-1.1-.2-.4-.3-.9-.3-1.3 0-.6.2-1.3.5-2.1s.8-1.6 1.3-2.5 1.1-1.7 1.8-2.5 1.4-1.6 2.1-2.3c.7-.7 1.4-1.2 2-1.6.6-.4 1.2-.6 1.7-.6s.9.1 1.3.3c.4.2.7.4 1 .6s.5.5.6.8c.2.3.2.6.2.8 0 .5-.1 1.1-.3 1.7-.2.6-.5 1.2-.8 1.7s-.7 1-1.1 1.3c-.4.4-.8.5-1.2.5-.3 0-.5-.1-.7-.2-.2-.1-.4-.2-.6-.4-.2-.2-.3-.3-.4-.5s-.1-.3-.1-.4c0-.2.1-.3.4-.3.3 0 .6-.2.9-.6.3-.4.6-.8.9-1.3.3-.5.5-1 .7-1.4.2-.5.3-.8.3-1 0-.1 0-.2-.1-.2-.2 0-.5.2-.9.6s-.9.9-1.4 1.5c-.5.6-1.1 1.3-1.6 2s-1.1 1.5-1.5 2.2-.8 1.5-1.1 2.2c-.3.7-.4 1.3-.4 1.8 0 .4.1.6.3.9s.5.3 1 .3 1.2-.3 2-.8 1.8-1.2 2.8-2.1 2.2-1.9 3.3-3c1.2-1.1 2.4-2.3 3.6-3.6s2.4-2.5 3.6-3.8c1.2-1.3 2.3-2.5 3.3-3.7s2-2.2 2.8-3.2c.9-1 1.6-1.8 2.1-2.4.4-.6.8-1 1-1.2.2-.2.5-.4.8-.4.2 0 .5.1.7.2.2.1.5.3.7.4.2.2.4.3.5.5.1.2.2.3.2.5 0 0 0 .1-.1.1-.8.8-1.6 1.8-2.5 3-.9 1.2-1.8 2.6-2.7 4.1-.9 1.5-1.8 3-2.6 4.6-.9 1.6-1.6 3.1-2.3 4.6.8-1 1.6-1.9 2.4-2.7.8-.8 1.5-1.5 2.2-2.1.7-.6 1.3-1 1.9-1.4.5-.3.9-.5 1.2-.5.2 0 .4.1.7.2.3.2.5.4.8.6.3.3.5.5.7.9.2.3.3.7.3 1 0 .5-.2 1.1-.7 1.7-.5.7-1 1.4-1.7 2.1-.7.7-1.5 1.4-2.3 2-.9.6-1.7 1.1-2.5 1.4.4.6.9 1.2 1.4 1.6.5.4 1 .6 1.4.6.2 0 .4-.1.8-.4.4-.2.8-.6 1.4-.9s1-.8 1.6-1.3 1.1-.9 1.6-1.4c.5-.4 1-.8 1.3-1.2.2-.1.4-.4.6-.5zm-6.3-4.2c-.7.5-1.5 1.3-2.5 2.2s-1.9 1.9-2.8 3v.4c.5-.3 1-.6 1.5-1.1s1-.9 1.5-1.4c.5-.5.9-1 1.3-1.5.5-.5.8-1.1 1-1.6z"/>
  <path d="M16.9 419c.4.4.6.9.6 1.5 0 .5-.1 1-.4 1.4-.2.4-.5.6-.6.6-.2 0-.3-.2-.3-.6 0-.4-.4-.7-1.1-.8-.8-.1-1.7-.2-2.8-.2h-.9c-1 1.6-1.9 3.1-2.8 4.8s-1.8 3.1-2.5 4.5-1.4 2.6-1.8 3.6c-.5 1-.7 1.6-.7 1.9 0 .1 0 .1.1.1.2 0 .6-.2 1.1-.5.5-.4 1.1-.8 1.8-1.4s1.3-1.1 2-1.7c.7-.6 1.4-1.2 1.9-1.7.6-.5 1.1-1 1.5-1.4.4-.4.6-.5.6-.5.2 0 .4.1.5.3.2.2.2.5.2.7 0 .1 0 .3-.1.4l-.9.9-1.6 1.6c-.6.6-1.3 1.2-2.1 1.9-.7.7-1.5 1.3-2.2 1.9-.7.6-1.4 1-2 1.4s-1.1.5-1.5.5c-.7 0-1.3-.2-1.8-.6s-.8-1-.8-1.8c0-.4.2-1.1.6-2.1.4-1 1-2.1 1.7-3.5.7-1.3 1.5-2.7 2.4-4.3l2.7-4.5c-1 .2-1.9.4-2.6.6-.8.2-1.2.4-1.5.6-.1.1-.1.1-.2.1s-.1-.1-.2-.2c0-.1-.1-.3-.1-.4 0-.6.5-1.1 1.5-1.6 1-.4 2.5-.9 4.4-1.2.9-1.5 1.7-2.7 2.4-3.7s1.2-1.9 1.7-2.5c.5-.6.9-1.1 1.2-1.4.3-.3.6-.4.8-.4.2 0 .5.1.7.2.2.1.5.3.7.4.2.2.4.3.5.5.1.2.2.3.2.5 0 0-.1.3-.4.6-.3.4-.6.8-1 1.4-.4.6-.9 1.2-1.4 1.9-.5.7-.9 1.3-1.3 2 .3 0 .5 0 .8-.1h.7c.6 0 1 0 1.5.1.3-.1.6 0 .8.2z"/>
  <path d="M42 428.6c.1-.1.1-.1.2-.1.2 0 .4.1.5.3.2.2.2.5.2.7 0 .1 0 .3-.1.4l-.8.8c-.4.4-.9.9-1.5 1.4-.6.5-1.2 1.1-1.9 1.6-.7.6-1.4 1.1-2 1.5-.7.5-1.3.9-1.9 1.2s-1.1.5-1.4.5c-.7 0-1.3-.3-1.8-.8-.5-.6-.8-1.2-.8-2 0-.4.1-1 .4-1.7.3-.7.6-1.5 1-2.3-.6.6-1.3 1.3-2 1.9-.7.6-1.4 1.1-2 1.6s-1.3.8-1.9 1.1c-.6.3-1.2.4-1.7.4-.6 0-1.1-.1-1.4-.3s-.7-.4-.9-.7c-.2-.3-.4-.7-.5-1.1s-.1-.9-.1-1.3c0-.8.1-1.7.4-2.5-.8.7-1.7 1.5-2.8 2.5-1 1-2.1 2-3.1 3-1 .9-2 1.8-2.9 2.4s-1.6 1-2.2 1c-.7 0-1.2-.3-1.6-.8-.4-.5-.6-1.2-.6-2 0-.6.2-1.3.5-2.2s.8-1.8 1.5-2.7 1.3-1.8 2.1-2.8c.8-.9 1.6-1.7 2.4-2.4.8-.7 1.7-1.3 2.5-1.7.8-.4 1.6-.7 2.3-.7.5 0 .9.1 1.3.2s.7.3 1 .6c.3.2.5.5.6.8s.2.6.2.9c0 .3-.1.6-.3.8-.2.2-.4.3-.6.3-.1 0-.2-.1-.3-.2-.1-.1-.1-.3-.2-.5s-.2-.3-.3-.5-.4-.2-.6-.2c-.4 0-.8.2-1.4.7s-1.2 1.1-1.9 1.8-1.4 1.5-2.1 2.4c-.7.9-1.3 1.7-1.9 2.5s-1 1.5-1.4 2.1c-.4.6-.5 1-.5 1.1 0 0 0 .1.1.1s.5-.2 1.1-.7 1.3-1 2.1-1.7 1.7-1.4 2.6-2.2 1.8-1.5 2.7-2.2c.9-.7 1.6-1.3 2.3-1.7.7-.5 1.2-.7 1.5-.7.3 0 .5.1.8.2.3.1.5.3.8.5.2.2.4.4.6.5.1.2.2.3.2.4 0 0-.1.1-.2.4-.1.3-.3.6-.4 1-.1.4-.3.8-.4 1.3s-.2.9-.2 1.2c0 .6.1.9.4.9.3 0 .8-.2 1.4-.6s1.2-.9 2-1.5c.7-.6 1.5-1.3 2.2-2.1s1.5-1.5 2.2-2.1 1.3-1.3 1.8-1.8.8-.9 1-1.1c.2-.2.5-.3.8-.3.3 0 .5.1.8.2.3.1.5.3.8.5.2.2.4.4.6.5s.2.3.2.5v.1c-.2.2-.4.5-.7.9-.3.5-.7 1-1.1 1.6-.4.6-.8 1.3-1.2 1.9s-.8 1.3-1.1 2c-.3.6-.6 1.2-.8 1.7-.2.5-.3.9-.3 1.1 0 .2.1.3.2.3.2 0 .5-.1.8-.4s.8-.6 1.3-1 1-.8 1.6-1.3c.6-.5 1.1-.9 1.6-1.4s1-.8 1.3-1.2c.5-.3.7-.6.9-.8zm-.8-15.2c.3-.3.7-.5 1.1-.5.4 0 .7.1 1.1.3s.7.5 1 .8c.3.3.5.6.7 1 .2.3.3.6.3.8 0 .3-.2.5-.5.5s-.6.2-1 .5-.8.7-1.2 1.2c-.4.4-.7.9-1 1.3-.3.4-.4.8-.4 1 0 .3-.2.4-.6.4-.3 0-.7-.1-1.1-.4-.4-.2-.6-.6-.6-.9 0-.4.1-.9.2-1.5.2-.6.3-1.2.6-1.7.2-.6.5-1.1.8-1.6.1-.6.3-1 .6-1.2z"/>
  <path d="M52.7 411.4c.2-.2.5-.3.8-.3.2 0 .5.1.7.2.2.1.5.3.7.4.2.2.4.3.5.5s.2.3.2.5c0 0 0 .1-.1.1-.5.5-1.2 1.4-2 2.6-.9 1.2-1.8 2.6-2.8 4.2-1 1.6-2 3.3-3 5-1 1.8-2 3.4-2.8 4.9s-1.5 2.9-2.1 4-.8 1.8-.8 2.1c0 .1 0 .1.1.1.2 0 .4-.1.8-.3.3-.2.8-.5 1.2-.8.5-.3.9-.7 1.5-1.2.5-.4 1-.9 1.6-1.3 1.2-1.1 2.5-2.3 4-3.6.2 0 .3.1.5.3.2.2.2.4.2.6 0 .1 0 .3-.1.4l-.9.9-1.6 1.6c-.6.6-1.3 1.3-2.1 1.9s-1.5 1.3-2.2 1.8c-.7.6-1.4 1-2 1.4-.6.4-1.1.6-1.5.6-.7 0-1.3-.2-1.8-.6-.5-.4-.8-1-.8-1.8 0-.4.2-1 .5-1.9s.8-1.9 1.4-3c.6-1.2 1.3-2.4 2.1-3.8s1.6-2.7 2.4-4.1 1.7-2.7 2.5-4c.8-1.3 1.6-2.5 2.2-3.5.7-1.1 1.3-1.9 1.8-2.6.4-.7.7-1.1.9-1.3z"/>
  <path d="M65.5 428.6c.4 0 .7.1.9.3s.3.4.3.6c0 .2-.1.4-.4.4-.5 0-1.1.1-1.8.3-.7.2-1.5.4-2.3.7-.8.3-1.7.7-2.6 1.1-.9.4-1.8.9-2.6 1.3.3.4.6.8.8 1.2.2.4.3.8.3 1.1 0 .7-.3 1.3-.8 1.9-.5.6-1.2 1.1-1.9 1.5-.7.4-1.5.8-2.2 1s-1.4.4-1.9.4c-.3 0-.7-.1-1-.3-.3-.2-.7-.4-1-.6s-.5-.5-.7-.9-.3-.6-.3-1 .1-.7.4-1.1c.3-.4.6-.8 1.1-1.2s1-.8 1.6-1.2 1.3-.8 2-1.2c-.3-.3-.6-.7-.9-1.1-.3-.4-.6-.7-.8-1.1-.2-.4-.4-.7-.6-1.1s-.2-.7-.2-1c0-.4.1-.8.4-1.3.3-.5.6-1 1.1-1.5.4-.5.9-1 1.5-1.5s1.1-1 1.7-1.4c.6-.4 1.1-.7 1.7-1 .6-.3 1-.4 1.4-.4.5 0 .9.1 1.3.3.4.2.7.4 1 .6.3.2.5.5.7.8s.2.6.2.8c0 .5-.1 1.1-.3 1.7-.2.6-.5 1.2-.8 1.7-.3.5-.7 1-1.1 1.3-.4.4-.8.5-1.2.5-.3 0-.5-.1-.7-.2-.2-.1-.4-.2-.6-.4-.2-.1-.3-.3-.4-.5-.1-.2-.1-.3-.1-.5s.1-.3.4-.3c.3 0 .6-.2.9-.5.3-.3.7-.8 1-1.2.3-.5.6-.9.8-1.4.2-.4.3-.8.3-1 0-.1 0-.1-.1-.1-.5 0-1.1.3-1.7.8s-1.3 1.1-2 1.8-1.2 1.3-1.7 2-.7 1.1-.7 1.5c0 .3.2.6.5 1.1.4.4.8.9 1.3 1.4 1-.5 2-.9 3.1-1.3 1-.4 2-.8 2.9-1 .9-.3 1.7-.5 2.3-.7s1.2-.1 1.5-.1zm-10.4 6.6c0-.1-.1-.3-.3-.6-1.3.7-2.3 1.4-3.2 2.1-.8.6-1.3 1.1-1.3 1.4 0 0 0 .1.1.1.2 0 .5-.1 1-.3s1-.5 1.5-.8c.5-.3 1-.6 1.4-1 .6-.3.8-.6.8-.9z"/>
</svg>
