<svg xmlns="http://www.w3.org/2000/svg" viewBox="-151 398.89 292.604 45">
  <path d="M-33.44 405.244a29.833 29.833 0 014.554 2.034c1.404.78 2.628 1.674 3.672 2.682s1.866 2.137 2.466 3.384c.6 1.249.9 2.616.9 4.104 0 1.296-.336 2.634-1.008 4.014-.672 1.381-1.59 2.754-2.754 4.122-1.165 1.368-2.52 2.713-4.068 4.032-1.548 1.32-3.192 2.568-4.932 3.744s-3.541 2.262-5.4 3.258c-1.86.996-3.672 1.854-5.436 2.574s-3.438 1.283-5.022 1.691c-1.584.408-2.976.612-4.176.612-.288 0-.57-.066-.846-.198a2.77 2.77 0 01-1.224-1.115c-.132-.229-.198-.438-.198-.631 0-.312.12-.474.36-.485.239-.013.624-.055 1.152-.126-.24-.48-.36-.96-.36-1.44 0-.504.293-1.404.882-2.7.588-1.296 1.355-2.819 2.304-4.571a162.24 162.24 0 013.276-5.742 395.556 395.556 0 013.798-6.246 514.182 514.182 0 013.834-6.084c1.26-1.968 2.406-3.72 3.438-5.256a45.544 45.544 0 00-5.238-.918 44.378 44.378 0 00-5.094-.307c-1.512 0-2.934.097-4.266.288-1.332.192-2.484.48-3.456.864s-1.741.87-2.304 1.458c-.564.589-.846 1.278-.846 2.07 0 .264-.144.396-.432.396-.312 0-.661-.167-1.044-.504-.384-.336-.576-.815-.576-1.439 0-.937.372-1.765 1.116-2.484.744-.72 1.758-1.326 3.042-1.818 1.283-.491 2.777-.863 4.482-1.115a37.037 37.037 0 015.436-.379c1.776 0 3.587.108 5.436.324 1.848.216 3.672.553 5.472 1.008.528-.768.936-1.355 1.224-1.764a8.86 8.86 0 01.702-.899c.18-.192.324-.307.432-.343a1.48 1.48 0 01.45-.054c.24 0 .492.061.756.18.264.121.504.271.72.45.216.18.39.36.522.54.131.18.198.33.198.45 0 .072-.072.192-.216.36s-.318.365-.522.594c-.204.229-.414.462-.63.702-.216.239-.408.467-.576.683zm-18.54 33.048c1.704-.48 3.588-1.164 5.652-2.052 2.064-.888 4.146-1.908 6.246-3.06s4.14-2.406 6.12-3.763c1.98-1.355 3.731-2.729 5.256-4.122 1.524-1.392 2.748-2.771 3.672-4.14.923-1.368 1.386-2.651 1.386-3.853 0-1.079-.306-2.1-.918-3.06-.612-.96-1.44-1.842-2.484-2.646-1.044-.805-2.268-1.536-3.672-2.196a32.543 32.543 0 00-4.518-1.71 140.573 140.573 0 00-3.186 4.644 177.973 177.973 0 00-3.42 5.4 203.306 203.306 0 00-3.348 5.706 132.464 132.464 0 00-3.006 5.616 78.375 78.375 0 00-2.358 5.094c-.66 1.584-1.134 2.966-1.422 4.142zm42.948-10.44a.345.345 0 01.252-.108c.167 0 .33.108.486.324.156.216.234.432.234.647a.485.485 0 01-.144.36c-.144.144-.42.414-.828.81s-.9.853-1.476 1.368c-.576.517-1.2 1.057-1.872 1.62a31.07 31.07 0 01-1.998 1.548 17.08 17.08 0 01-1.872 1.17c-.588.312-1.075.469-1.458.469-.697 0-1.302-.276-1.818-.828s-.774-1.212-.774-1.98c0-.455.167-1.008.504-1.656.336-.647.708-1.289 1.116-1.926.408-.636.78-1.229 1.116-1.782.336-.552.504-.959.504-1.224 0-.239-.162-.414-.486-.521a7.407 7.407 0 00-1.206-.271c-1.152 1.272-2.1 2.256-2.844 2.952-.744.696-1.32 1.206-1.728 1.53-.408.323-.69.521-.846.594-.156.072-.222.108-.198.108-.24 0-.462-.078-.666-.234-.204-.156-.306-.33-.306-.522 0-.023.084-.119.252-.288.168-.167.438-.432.81-.792l1.476-1.422a96.437 96.437 0 002.25-2.25 6.587 6.587 0 01-1.836-.575c-.528-.265-.792-.685-.792-1.261 0-.384.18-.833.54-1.35.36-.516.815-1.002 1.368-1.458s1.17-.84 1.854-1.152c.684-.312 1.338-.468 1.962-.468.72 0 1.236.114 1.548.342.312.229.468.534.468.918 0 .504-.216 1.116-.648 1.836-.432.721-.96 1.465-1.584 2.232.36.12.726.246 1.098.378.372.132.714.301 1.026.504.312.204.564.456.756.756.192.301.288.666.288 1.099 0 .216-.12.605-.36 1.17-.24.563-.504 1.17-.792 1.817a67.098 67.098 0 00-.792 1.854c-.24.588-.36 1.025-.36 1.313 0 .192.06.288.18.288.168 0 .45-.119.846-.359.396-.24.846-.553 1.35-.937s1.038-.81 1.602-1.278c.563-.468 1.098-.923 1.602-1.367s.954-.847 1.35-1.206c.396-.36.678-.624.846-.792zm-10.764-4.608c0 .36.216.636.648.828a22.59 22.59 0 001.728-1.908c.456-.576.684-.983.684-1.224 0-.145-.084-.216-.252-.216-.096 0-.294.096-.594.287-.301.192-.612.421-.936.685-.324.265-.618.54-.882.828s-.396.528-.396.72z"/>
  <path d="M19.264 427.744c.072-.072.144-.108.216-.108.192 0 .366.108.522.324.156.216.234.433.234.648 0 .168-.048.3-.144.396-.144.145-.42.408-.828.792-.408.385-.9.834-1.476 1.351a60.97 60.97 0 01-1.89 1.62 35.921 35.921 0 01-2.016 1.548 18.36 18.36 0 01-1.854 1.17c-.576.312-1.056.468-1.44.468a2.375 2.375 0 01-1.854-.828c-.492-.552-.738-1.212-.738-1.979 0-.312.048-.696.144-1.152s.228-.941.396-1.458c.168-.516.348-1.056.54-1.62.192-.563.396-1.109.612-1.638a35.475 35.475 0 00-2.718 2.357 54.106 54.106 0 00-2.718 2.772 32.203 32.203 0 00-2.106 2.538c-.564.769-.846 1.32-.846 1.656 0 .456-.18.684-.54.684-.192 0-.414-.077-.666-.234a2.816 2.816 0 01-.702-.63 3.758 3.758 0 01-.558-.972 3.298 3.298 0 01-.234-1.26c0-.408.144-1.014.432-1.818.288-.804.672-1.674 1.152-2.61a63.556 63.556 0 01-2.43 1.891c-.828.611-1.644 1.158-2.448 1.638s-1.566.864-2.286 1.152-1.368.432-1.944.432c-.864 0-1.536-.216-2.016-.647-.48-.433-.72-1.08-.72-1.944 0-.456.149-1.05.45-1.782.3-.731.648-1.47 1.044-2.214.396-.743.797-1.422 1.206-2.034.408-.612.708-1.014.9-1.206.216-.216.492-.324.828-.324.264 0 .54.061.828.181s.546.27.774.45c.228.18.414.359.558.54.144.18.216.33.216.449 0-.048-.175.175-.522.666a22.756 22.756 0 00-1.134 1.801c-.408.708-.786 1.416-1.134 2.124s-.522 1.254-.522 1.638c0 .265.108.396.324.396.288 0 .708-.149 1.26-.449.552-.3 1.175-.685 1.872-1.152a44.697 44.697 0 002.196-1.584 95.549 95.549 0 002.214-1.746c.708-.576 1.362-1.116 1.962-1.62s1.068-.912 1.404-1.224c.288-.216.486-.384.594-.504s.294-.181.558-.181c.24 0 .48.061.72.181.239.12.461.264.666.432.204.168.365.349.486.54.12.192.18.348.18.468 0 .072-.013.12-.036.145-.625.624-1.272 1.398-1.944 2.321a17.57 17.57 0 00-1.764 3.042 38.147 38.147 0 012.664-2.754 54.558 54.558 0 012.844-2.502c.912-.743 1.728-1.35 2.448-1.817.72-.469 1.224-.702 1.512-.702.24 0 .48.06.72.18s.456.265.648.432c.192.169.348.343.468.522.12.179.18.33.18.45 0 .071-.012.12-.036.144-.24.24-.51.679-.81 1.314-.3.636-.588 1.332-.864 2.088a20.876 20.876 0 00-.684 2.25c-.18.744-.27 1.332-.27 1.764 0 .456.108.685.324.685.167 0 .45-.12.846-.36a15.34 15.34 0 001.35-.937c.504-.383 1.038-.81 1.602-1.277a73.703 73.703 0 001.602-1.368c.504-.443.954-.846 1.35-1.206.396-.36.678-.631.846-.799zm-21.312-7.164c0 .288-.192.432-.576.432-.336 0-.696-.119-1.08-.359s-.576-.552-.576-.937c0-.623.114-1.313.342-2.069.228-.756.516-1.458.864-2.106a8.063 8.063 0 011.134-1.638c.408-.444.792-.666 1.152-.666s.714.107 1.062.324c.348.216.666.474.954.773.288.301.516.618.684.954.168.337.252.624.252.864 0 .336-.18.504-.54.504-.265 0-.606.162-1.026.486-.42.323-.828.708-1.224 1.151-.396.444-.732.882-1.008 1.314-.276.433-.414.757-.414.973z"/>
  <path d="M35.752 427.887a.348.348 0 01.252-.107c.167 0 .33.107.486.324.156.216.234.432.234.647a.485.485 0 01-.144.36c-.144.144-.42.414-.828.81-.409.396-.9.853-1.476 1.368a74.542 74.542 0 01-1.872 1.62 31.07 31.07 0 01-1.998 1.548c-.66.468-1.284.858-1.872 1.17-.588.312-1.074.468-1.458.468-.504 0-1.026-.138-1.566-.413a8.41 8.41 0 01-1.548-1.026 11.664 11.664 0 01-1.35-1.314 9.035 9.035 0 01-.936-1.241 19.432 19.432 0 00-1.512 2.573c-.384.805-.576 1.482-.576 2.034 0 .385-.144.576-.432.576-.216 0-.468-.102-.756-.306s-.564-.48-.828-.828a5.016 5.016 0 01-.666-1.206 3.792 3.792 0 01-.27-1.404c0-.384.156-.978.468-1.782.312-.804.732-1.728 1.26-2.771a87.606 87.606 0 011.836-3.42c.696-1.236 1.422-2.49 2.178-3.763.756-1.271 1.512-2.514 2.268-3.726s1.476-2.322 2.16-3.33 1.296-1.878 1.836-2.61c.54-.731.954-1.241 1.242-1.529.216-.216.48-.324.792-.324.24 0 .48.061.72.18.24.121.462.265.666.433.204.168.366.348.486.54.12.192.18.348.18.468 0 .072-.012.12-.036.144-.769.769-1.602 1.771-2.502 3.006-.9 1.237-1.8 2.593-2.7 4.068-.9 1.477-1.782 3.006-2.646 4.59s-1.644 3.12-2.34 4.608c.768-.984 1.548-1.89 2.34-2.718s1.542-1.536 2.25-2.124c.708-.588 1.332-1.044 1.872-1.368.54-.324.941-.486 1.206-.486.167 0 .383.078.648.234.264.156.527.359.792.611.264.253.492.547.684.883s.288.684.288 1.044c0 .48-.229 1.056-.684 1.728a14.332 14.332 0 01-1.728 2.052 20.003 20.003 0 01-2.322 1.98c-.852.624-1.686 1.104-2.502 1.439a6.92 6.92 0 001.404 1.585c.527.432.996.647 1.404.647.167 0 .45-.12.846-.36.396-.239.846-.552 1.35-.936.504-.384 1.038-.81 1.602-1.278a71.392 71.392 0 001.602-1.368c.504-.443.954-.846 1.35-1.205.396-.362.678-.626.846-.795zm-6.264-4.212c-.696.528-1.524 1.255-2.484 2.179a45.804 45.804 0 00-2.844 3.006c0 .096.024.24.072.432a12.33 12.33 0 001.548-1.062c.527-.42 1.032-.87 1.512-1.351.48-.479.912-.995 1.296-1.548a8.038 8.038 0 00.9-1.656z"/>
  <path d="M50.26 427.852c.383 0 .684.102.9.306.216.204.324.402.324.594 0 .24-.132.36-.396.36-.48 0-1.074.09-1.782.27a22.34 22.34 0 00-2.304.738 37.48 37.48 0 00-2.592 1.098c-.9.421-1.782.858-2.646 1.314.312.384.563.769.756 1.152.192.384.288.756.288 1.115 0 .696-.265 1.339-.792 1.927a8.056 8.056 0 01-1.872 1.529c-.72.433-1.46.774-2.22 1.026-.76.252-1.377.378-1.851.378a2.34 2.34 0 01-1.023-.252 4.243 4.243 0 01-.954-.63c-.288-.252-.522-.54-.702-.864s-.27-.642-.27-.954c0-.359.138-.737.414-1.134.275-.396.648-.792 1.116-1.188a16.122 16.122 0 011.647-1.205c.63-.408 1.301-.805 2.013-1.188a42.026 42.026 0 01-.871-1.062 13.11 13.11 0 01-.8-1.116 8.08 8.08 0 01-.587-1.08 2.45 2.45 0 01-.231-.99c0-.36.136-.786.409-1.278a9.4 9.4 0 011.067-1.512c.439-.516.938-1.025 1.5-1.53.56-.504 1.129-.953 1.705-1.35.576-.396 1.14-.72 1.692-.972s1.032-.378 1.44-.378c.456 0 .875.084 1.26.252.384.168.72.372 1.008.611.288.24.51.511.666.811.156.3.234.57.234.81 0 .504-.103 1.057-.306 1.656a8.998 8.998 0 01-.774 1.692 5.723 5.723 0 01-1.062 1.332c-.396.359-.787.54-1.17.54-.265 0-.504-.055-.72-.162a2.396 2.396 0 01-.558-.378 1.968 1.968 0 01-.378-.469.948.948 0 01-.144-.468c0-.216.12-.324.36-.324.264 0 .563-.174.9-.521.335-.348.653-.756.954-1.225.3-.468.552-.923.756-1.367s.306-.762.306-.954c0-.096-.036-.145-.108-.145-.48 0-1.062.252-1.746.756s-1.35 1.093-1.998 1.765-1.201 1.338-1.656 1.998c-.456.66-.684 1.146-.684 1.458 0 .288.18.647.54 1.08.36.432.78.899 1.26 1.403a69.941 69.941 0 013.06-1.296 52.32 52.32 0 012.862-1.044c.876-.288 1.65-.516 2.322-.684s1.149-.251 1.438-.251zm-10.369 6.552c0-.096-.108-.312-.324-.648-1.272.744-2.328 1.435-3.168 2.07-.84.636-1.26 1.11-1.26 1.422 0 .048.048.072.144.072.192 0 .54-.102 1.044-.306s1.02-.456 1.548-.757c.528-.3.996-.617 1.404-.954.408-.335.612-.634.612-.899z"/>
</svg>
