<svg xmlns="http://www.w3.org/2000/svg" viewBox="-151 398.89 292.604 45">
  <path d="M-77.413 420.025c.696.071 1.248.192 1.656.359.408.169.72.373.936.612.216.24.36.486.432.738.072.252.108.498.108.737 0 .528-.132.792-.396.792-.048 0-.121-.029-.216-.09a3.119 3.119 0 00-.468-.216 4.607 4.607 0 00-.846-.216 7.68 7.68 0 00-1.278-.09 17.44 17.44 0 00-1.62.073 1001.575 1001.575 0 00-3.6 5.832 166.363 166.363 0 00-3.15 5.346c-.924 1.644-1.662 3.09-2.214 4.338-.552 1.247-.828 2.172-.828 2.771 0 .408-.18.612-.54.612-.216 0-.474-.09-.774-.27a3.633 3.633 0 01-.846-.721c-.265-.3-.492-.66-.684-1.08a3.208 3.208 0 01-.288-1.35c0-.336.246-.979.738-1.926a67.222 67.222 0 011.944-3.438c.804-1.344 1.74-2.844 2.808-4.5a2609.57 2609.57 0 013.33-5.147c-1.176.192-2.34.438-3.492.737-1.152.301-2.19.637-3.114 1.009s-1.668.786-2.232 1.241c-.564.457-.846.937-.846 1.44 0 .265-.084.396-.252.396-.12 0-.27-.066-.45-.198a2.2 2.2 0 01-.504-.54 3.448 3.448 0 01-.396-.792 2.795 2.795 0 01-.162-.954c0-.36.072-.726.216-1.098.144-.372.408-.75.792-1.135.408-.407 1.062-.792 1.962-1.151.9-.36 1.932-.689 3.096-.99 1.164-.3 2.394-.552 3.69-.756a39.079 39.079 0 013.78-.414 672.368 672.368 0 003.564-5.508 231.122 231.122 0 003.078-4.933c.9-1.487 1.626-2.76 2.178-3.815.552-1.056.828-1.776.828-2.16 0-.239-.205-.36-.612-.36-.528 0-1.35.103-2.466.307a76.295 76.295 0 00-3.87.827c-1.464.349-3.042.757-4.734 1.225-1.692.468-3.39.966-5.094 1.494a98.215 98.215 0 00-4.896 1.655 55.42 55.42 0 00-4.158 1.71c-1.212.564-2.178 1.111-2.898 1.639s-1.08 1.008-1.08 1.439c0 .528-.18.792-.54.792-.192 0-.396-.071-.612-.216a2.443 2.443 0 01-.594-.576 3.641 3.641 0 01-.468-.863 2.834 2.834 0 01-.198-1.044c0-.552.372-1.128 1.116-1.729.744-.6 1.746-1.2 3.006-1.8s2.706-1.188 4.338-1.764 3.33-1.116 5.094-1.62a141.627 141.627 0 0110.242-2.52 86.435 86.435 0 014.068-.738c1.176-.18 2.04-.27 2.592-.27s1.08.12 1.584.36.948.546 1.332.918c.384.372.689.798.918 1.277.228.48.342.948.342 1.404 0 .384-.228 1.044-.684 1.98a57.678 57.678 0 01-1.836 3.401 172.766 172.766 0 01-2.664 4.446 594.692 594.692 0 01-3.168 5.081z"/>
  <path d="M-62.365 427.729a.345.345 0 01.252-.108c.167 0 .33.108.486.324s.234.432.234.647a.485.485 0 01-.144.36c-.144.144-.42.414-.828.81s-.9.853-1.476 1.368c-.576.517-1.2 1.057-1.872 1.62a31.07 31.07 0 01-1.998 1.548 17.08 17.08 0 01-1.872 1.17c-.588.312-1.075.469-1.458.469-.697 0-1.302-.276-1.818-.828a2.799 2.799 0 01-.774-1.98c0-.455.167-1.008.504-1.656.336-.647.708-1.289 1.116-1.926.408-.636.78-1.229 1.116-1.782.336-.552.504-.959.504-1.224 0-.239-.162-.414-.486-.521a7.407 7.407 0 00-1.206-.271c-1.152 1.272-2.1 2.256-2.844 2.952-.744.696-1.32 1.206-1.728 1.53-.408.323-.69.521-.846.594-.156.072-.222.108-.198.108-.24 0-.462-.078-.666-.234-.204-.156-.306-.33-.306-.522 0-.023.084-.119.252-.288.168-.167.438-.432.81-.792l1.476-1.422a96.437 96.437 0 002.25-2.25 6.587 6.587 0 01-1.836-.575c-.528-.265-.792-.685-.792-1.261 0-.384.18-.833.54-1.35.36-.516.815-1.002 1.368-1.458s1.17-.84 1.854-1.152c.684-.312 1.338-.468 1.962-.468.72 0 1.236.114 1.548.342.312.229.468.534.468.918 0 .504-.216 1.116-.648 1.836-.432.721-.96 1.465-1.584 2.232.36.12.726.246 1.098.378.372.132.714.301 1.026.504.312.204.564.456.756.756.192.301.288.666.288 1.099 0 .216-.12.605-.36 1.17-.24.563-.504 1.17-.792 1.817a67.098 67.098 0 00-.792 1.854c-.24.588-.36 1.025-.36 1.313 0 .192.06.288.18.288.168 0 .45-.119.846-.359.396-.24.846-.553 1.35-.937s1.038-.81 1.602-1.278c.563-.468 1.098-.923 1.602-1.367s.954-.847 1.35-1.206c.395-.36.678-.624.846-.792zm-10.765-4.608c0 .36.216.636.648.828a22.59 22.59 0 001.728-1.908c.456-.576.684-.983.684-1.224 0-.145-.084-.216-.252-.216-.096 0-.294.096-.594.287-.301.192-.612.421-.936.685-.324.265-.618.54-.882.828-.264.288-.396.528-.396.72z"/>
  <path d="M-34.25 427.764c.072-.071.144-.107.216-.107.192 0 .366.114.522.342.156.229.234.45.234.666a.485.485 0 01-.144.36c-.144.12-.42.384-.828.792-.409.408-.9.87-1.476 1.386a58.354 58.354 0 01-1.89 1.62 34.995 34.995 0 01-2.016 1.548c-.66.468-1.278.858-1.855 1.17-.577.312-1.059.468-1.447.468-.703 0-1.316-.275-1.837-.828a2.782 2.782 0 01-.782-1.979c0-.264.06-.6.182-1.008s.279-.852.473-1.332c.193-.48.424-.99.691-1.53.267-.54.545-1.086.837-1.638-.794.84-1.653 1.71-2.579 2.609a54.63 54.63 0 01-2.723 2.484c-.89.756-1.725 1.374-2.506 1.854-.781.479-1.437.72-1.965.72-.361 0-.715-.072-1.064-.216a3.034 3.034 0 01-.938-.612 3.217 3.217 0 01-.667-.9 2.443 2.443 0 01-.252-1.115c0-.312.06-.732.18-1.261-.672.696-1.362 1.398-2.07 2.106a40.477 40.477 0 01-2.034 1.908c-.648.563-1.248 1.021-1.8 1.367-.552.349-.996.522-1.332.522-.84 0-1.482-.27-1.926-.81-.444-.54-.666-1.206-.666-1.998 0-.36.121-.852.36-1.477.24-.624.552-1.313.936-2.069a38.18 38.18 0 011.296-2.341c.48-.804.948-1.565 1.404-2.286.456-.72.882-1.35 1.278-1.89.396-.54.713-.93.954-1.17.24-.216.516-.324.828-.324.24 0 .48.061.72.181.239.12.461.264.666.432.204.168.365.342.486.521.12.181.18.331.18.45 0 .072-.013.121-.036.145-.168.168-.426.492-.774.972a53.07 53.07 0 00-1.17 1.692 65.722 65.722 0 00-1.314 2.052 35.43 35.43 0 00-1.206 2.105c-.36.685-.661 1.309-.9 1.872-.24.564-.36.99-.36 1.278 0 .265.108.396.324.396.12 0 .378-.181.774-.54.396-.36.876-.822 1.44-1.387a72.326 72.326 0 001.818-1.89c.648-.697 1.29-1.38 1.926-2.052.635-.672 1.224-1.302 1.764-1.891.54-.588.978-1.049 1.314-1.386.216-.216.492-.324.828-.324.264 0 .54.061.828.181s.545.27.774.449c.228.181.414.36.558.54.144.181.216.331.216.45 0-.072-.168.156-.504.685a28.788 28.788 0 00-1.098 1.907 41.69 41.69 0 00-1.098 2.215c-.336.732-.504 1.277-.504 1.638 0 .216.072.324.217.324.192 0 .62-.246 1.283-.738a37.978 37.978 0 002.311-1.89c.878-.769 1.818-1.608 2.817-2.521.999-.912 1.938-1.775 2.817-2.592.878-.815 1.636-1.53 2.272-2.143.636-.611 1.038-1.013 1.207-1.205.24-.217.516-.324.828-.324.288 0 .569.06.846.18.276.12.528.271.756.45.228.179.414.36.558.54s.216.33.216.45c0 .071-.013.12-.036.144-.168.168-.414.48-.738.937-.324.456-.678.989-1.062 1.602s-.774 1.26-1.17 1.944a42.626 42.626 0 00-1.08 1.979 22.245 22.245 0 00-.792 1.71c-.204.504-.306.877-.306 1.116 0 .192.072.288.216.288.167 0 .45-.126.846-.378.396-.252.84-.57 1.332-.954a73.703 73.703 0 003.186-2.646c.504-.443.954-.846 1.35-1.205.394-.357.688-.621.88-.79zm-.828-15.264c.336-.336.708-.504 1.116-.504.36 0 .713.108 1.062.324.347.216.666.48.954.792.288.312.516.63.684.954.167.324.252.606.252.846 0 .336-.168.504-.504.504-.264 0-.606.162-1.026.486s-.828.708-1.224 1.151c-.396.444-.732.883-1.008 1.314-.276.432-.414.756-.414.972 0 .288-.192.433-.576.433-.336 0-.702-.12-1.098-.36-.396-.239-.594-.552-.594-.936 0-.408.078-.9.234-1.477.156-.576.348-1.157.576-1.746a12.54 12.54 0 01.756-1.62c.276-.49.546-.868.81-1.133z"/>
  <path d="M-20.966 418.08c.408.432.612.948.612 1.548 0 .528-.121.996-.36 1.404-.24.408-.457.612-.648.612-.168 0-.252-.204-.252-.612 0-.408-.378-.684-1.134-.828-.756-.144-1.674-.216-2.754-.216h-.864c-.96 1.561-1.908 3.149-2.844 4.77s-1.782 3.127-2.538 4.519-1.368 2.58-1.836 3.563c-.468.984-.702 1.62-.702 1.908 0 .097.036.145.108.145.216 0 .588-.181 1.116-.54a23.43 23.43 0 001.764-1.351 94.171 94.171 0 002.034-1.746 123.25 123.25 0 001.944-1.746c.587-.54 1.074-.989 1.458-1.35.383-.36.587-.54.612-.54.192 0 .366.114.522.342.156.229.234.45.234.666a.485.485 0 01-.144.36c-.12.144-.408.444-.864.899-.456.457-1.002.984-1.638 1.584a121.46 121.46 0 01-2.07 1.908 45.11 45.11 0 01-2.178 1.854 16.543 16.543 0 01-1.998 1.386c-.624.361-1.128.54-1.512.54a2.744 2.744 0 01-1.818-.648c-.516-.432-.774-1.031-.774-1.8 0-.432.216-1.14.648-2.124a55.15 55.15 0 011.692-3.456 117.55 117.55 0 012.376-4.266 242.734 242.734 0 012.7-4.518 27.84 27.84 0 00-2.646.558c-.756.204-1.242.414-1.458.63-.072.072-.144.108-.216.108s-.132-.06-.18-.181a1.159 1.159 0 01-.072-.432c0-.6.516-1.122 1.548-1.566 1.032-.443 2.484-.857 4.356-1.241a381.385 381.385 0 012.358-3.744 47.877 47.877 0 011.692-2.502c.468-.636.852-1.099 1.152-1.387.3-.288.558-.432.774-.432.24 0 .48.061.72.18.24.121.462.265.666.433.204.168.366.348.486.54.12.192.18.348.18.468 0 .048-.139.252-.414.612a120.889 120.889 0 00-2.394 3.24c-.48.673-.924 1.332-1.332 1.98.264-.023.522-.042.774-.054.252-.013.498-.019.738-.019.552 0 1.038.042 1.458.126.42.087.726.225.918.416zM8.77 405.121a29.833 29.833 0 014.554 2.034c1.404.78 2.628 1.674 3.672 2.682a11.79 11.79 0 012.466 3.384c.6 1.249.9 2.616.9 4.104 0 1.296-.336 2.634-1.008 4.014-.672 1.381-1.59 2.754-2.754 4.122-1.165 1.368-2.52 2.713-4.068 4.032a55.419 55.419 0 01-4.932 3.744 61.536 61.536 0 01-5.4 3.258c-1.86.996-3.672 1.854-5.436 2.574s-3.438 1.283-5.022 1.691-2.976.612-4.176.612c-.288 0-.57-.066-.846-.198a2.77 2.77 0 01-1.224-1.115c-.132-.229-.198-.438-.198-.631 0-.312.12-.474.36-.485.239-.013.624-.055 1.152-.126-.24-.48-.36-.96-.36-1.44 0-.504.293-1.404.882-2.7.588-1.296 1.355-2.819 2.304-4.571a162.24 162.24 0 013.276-5.742c1.236-2.076 2.502-4.158 3.798-6.246s2.574-4.116 3.834-6.084c1.26-1.968 2.406-3.72 3.438-5.256-1.728-.408-3.474-.714-5.238-.918s-3.462-.307-5.094-.307c-1.512 0-2.934.097-4.266.288-1.332.192-2.484.48-3.456.864s-1.741.87-2.304 1.458c-.564.589-.846 1.278-.846 2.07 0 .264-.144.396-.432.396-.312 0-.661-.167-1.044-.504-.384-.336-.576-.815-.576-1.439 0-.937.372-1.765 1.116-2.484.744-.72 1.758-1.326 3.042-1.818 1.283-.491 2.777-.863 4.482-1.115a37.037 37.037 0 015.436-.379c1.776 0 3.587.108 5.436.324 1.848.216 3.672.553 5.472 1.008.528-.768.936-1.355 1.224-1.764a8.86 8.86 0 01.702-.899c.18-.192.324-.307.432-.343s.258-.054.45-.054c.24 0 .492.061.756.18.264.121.504.271.72.45.216.18.39.36.522.54.131.18.198.33.198.45 0 .072-.072.192-.216.36-.144.168-.318.365-.522.594-.204.229-.414.462-.63.702-.216.239-.409.467-.576.683zm-18.54 33.047c1.704-.48 3.588-1.164 5.652-2.052s4.146-1.908 6.246-3.06a72.491 72.491 0 006.12-3.763c1.98-1.355 3.731-2.729 5.256-4.122 1.524-1.392 2.748-2.771 3.672-4.14.923-1.368 1.386-2.651 1.386-3.853 0-1.079-.306-2.1-.918-3.06-.612-.96-1.44-1.842-2.484-2.646-1.044-.805-2.268-1.536-3.672-2.196s-2.911-1.229-4.518-1.71a140.573 140.573 0 00-3.186 4.644c-1.14 1.729-2.28 3.528-3.42 5.4s-2.256 3.774-3.348 5.706a132.464 132.464 0 00-3.006 5.616 78.375 78.375 0 00-2.358 5.094c-.66 1.584-1.134 2.967-1.422 4.142zm42.947-10.439a.345.345 0 01.252-.108c.167 0 .33.108.486.324s.234.432.234.647a.485.485 0 01-.144.36c-.144.144-.42.414-.828.81s-.9.853-1.476 1.368c-.576.517-1.2 1.057-1.872 1.62a31.07 31.07 0 01-1.998 1.548 17.08 17.08 0 01-1.872 1.17c-.588.312-1.075.469-1.458.469-.697 0-1.302-.276-1.818-.828s-.774-1.212-.774-1.98c0-.455.167-1.008.504-1.656.336-.647.708-1.289 1.116-1.926.408-.636.78-1.229 1.116-1.782.336-.552.504-.959.504-1.224 0-.239-.162-.414-.486-.521a7.407 7.407 0 00-1.206-.271c-1.152 1.272-2.1 2.256-2.844 2.952-.744.696-1.32 1.206-1.728 1.53-.408.323-.69.521-.846.594-.156.072-.222.108-.198.108-.24 0-.462-.078-.666-.234-.204-.156-.306-.33-.306-.522 0-.023.084-.119.252-.288.168-.167.438-.432.81-.792l1.476-1.422a96.437 96.437 0 002.25-2.25 6.587 6.587 0 01-1.836-.575c-.528-.265-.792-.685-.792-1.261 0-.384.18-.833.54-1.35.36-.516.815-1.002 1.368-1.458s1.17-.84 1.854-1.152 1.338-.468 1.962-.468c.72 0 1.236.114 1.548.342.312.229.468.534.468.918 0 .504-.216 1.116-.648 1.836-.432.721-.96 1.465-1.584 2.232.36.12.726.246 1.098.378.372.132.714.301 1.026.504.312.204.564.456.756.756.192.301.288.666.288 1.099 0 .216-.12.605-.36 1.17-.24.563-.504 1.17-.792 1.817a67.098 67.098 0 00-.792 1.854c-.24.588-.36 1.025-.36 1.313 0 .192.06.288.18.288.168 0 .45-.119.846-.359s.846-.553 1.35-.937 1.038-.81 1.602-1.278c.563-.468 1.098-.923 1.602-1.367s.954-.847 1.35-1.206c.396-.36.679-.624.846-.792zm-10.764-4.608c0 .36.216.636.648.828.696-.696 1.272-1.332 1.728-1.908s.684-.983.684-1.224c0-.145-.084-.216-.252-.216-.096 0-.294.096-.594.287-.301.192-.612.421-.936.685-.324.265-.618.54-.882.828-.264.288-.396.528-.396.72z"/>
  <path d="M61.473 427.621c.072-.072.144-.108.216-.108.192 0 .366.108.522.324s.234.433.234.648c0 .168-.048.3-.144.396-.144.145-.42.408-.828.792-.408.385-.9.834-1.476 1.351a60.97 60.97 0 01-1.89 1.62 35.921 35.921 0 01-2.016 1.548 18.36 18.36 0 01-1.854 1.17c-.576.312-1.056.468-1.44.468a2.375 2.375 0 01-1.854-.828c-.492-.552-.738-1.212-.738-1.979 0-.312.048-.696.144-1.152s.228-.941.396-1.458c.168-.516.348-1.056.54-1.62.192-.563.396-1.109.612-1.638a35.475 35.475 0 00-2.718 2.357 54.106 54.106 0 00-2.718 2.772 32.203 32.203 0 00-2.106 2.538c-.564.769-.846 1.32-.846 1.656 0 .456-.18.684-.54.684-.192 0-.414-.077-.666-.234a2.816 2.816 0 01-.702-.63 3.758 3.758 0 01-.558-.972 3.298 3.298 0 01-.234-1.26c0-.408.144-1.014.432-1.818s.672-1.674 1.152-2.61a63.556 63.556 0 01-2.43 1.891 30.274 30.274 0 01-2.448 1.638c-.804.48-1.566.864-2.286 1.152s-1.368.432-1.944.432c-.864 0-1.536-.216-2.016-.647-.48-.433-.72-1.08-.72-1.944 0-.456.149-1.05.45-1.782.3-.731.648-1.47 1.044-2.214.396-.743.797-1.422 1.206-2.034.408-.612.708-1.014.9-1.206.216-.216.492-.324.828-.324.264 0 .54.061.828.181s.546.27.774.45c.228.18.414.359.558.54.144.18.216.33.216.449 0-.048-.175.175-.522.666a22.756 22.756 0 00-1.134 1.801 36.517 36.517 0 00-1.134 2.124c-.348.708-.522 1.254-.522 1.638 0 .265.108.396.324.396.288 0 .708-.149 1.26-.449.552-.3 1.175-.685 1.872-1.152a44.697 44.697 0 002.196-1.584 95.549 95.549 0 002.214-1.746c.708-.576 1.362-1.116 1.962-1.62s1.068-.912 1.404-1.224c.288-.216.486-.384.594-.504s.294-.181.558-.181c.24 0 .48.061.72.181.239.12.461.264.666.432.204.168.365.349.486.54.12.192.18.348.18.468 0 .072-.013.12-.036.145-.625.624-1.272 1.398-1.944 2.321a17.57 17.57 0 00-1.764 3.042 38.147 38.147 0 012.664-2.754 54.558 54.558 0 012.844-2.502c.912-.743 1.728-1.35 2.448-1.817.72-.469 1.224-.702 1.512-.702.24 0 .48.06.72.18s.456.265.648.432c.192.169.348.343.468.522.12.179.18.33.18.45 0 .071-.012.12-.036.144-.24.24-.51.679-.81 1.314-.3.636-.588 1.332-.864 2.088a20.876 20.876 0 00-.684 2.25c-.18.744-.27 1.332-.27 1.764 0 .456.108.685.324.685.167 0 .45-.12.846-.36a15.34 15.34 0 001.35-.937c.504-.383 1.038-.81 1.602-1.277a73.703 73.703 0 001.602-1.368c.504-.443.954-.846 1.35-1.206.396-.36.678-.632.846-.799zm-21.312-7.165c0 .288-.192.432-.576.432-.336 0-.696-.119-1.08-.359-.384-.24-.576-.552-.576-.937 0-.623.114-1.313.342-2.069s.516-1.458.864-2.106a8.063 8.063 0 011.134-1.638c.408-.444.792-.666 1.152-.666s.714.107 1.062.324c.348.216.666.474.954.773.288.301.516.618.684.954.168.337.252.624.252.864 0 .336-.18.504-.54.504-.265 0-.606.162-1.026.486-.42.323-.828.708-1.224 1.151-.396.444-.732.882-1.008 1.314-.275.433-.414.758-.414.973z"/>
  <path d="M77.961 427.764a.347.347 0 01.252-.107c.167 0 .329.107.485.324.156.216.234.432.234.647a.485.485 0 01-.144.36c-.145.144-.421.414-.828.81-.408.396-.9.853-1.477 1.368a71.14 71.14 0 01-1.872 1.62 31.07 31.07 0 01-1.998 1.548c-.66.468-1.284.858-1.871 1.17-.589.312-1.075.468-1.458.468-.505 0-1.026-.138-1.566-.413a8.41 8.41 0 01-1.548-1.026 11.664 11.664 0 01-1.35-1.314 9.035 9.035 0 01-.936-1.241 19.432 19.432 0 00-1.512 2.573c-.384.805-.576 1.482-.576 2.034 0 .385-.144.576-.432.576-.216 0-.468-.102-.756-.306a3.859 3.859 0 01-.828-.828c-.265-.348-.486-.75-.666-1.206s-.27-.924-.27-1.404c0-.384.156-.978.468-1.782.312-.804.732-1.728 1.26-2.771.528-1.044 1.14-2.184 1.836-3.42s1.422-2.49 2.178-3.763a206.736 206.736 0 012.268-3.726 105.355 105.355 0 012.16-3.33 80.715 80.715 0 011.836-2.61c.54-.731.954-1.241 1.242-1.529.216-.216.479-.324.792-.324.239 0 .479.061.72.18.24.121.462.265.666.433.204.168.366.348.486.54.12.192.18.348.18.468 0 .072-.012.12-.036.144-.768.769-1.602 1.771-2.502 3.006a60.728 60.728 0 00-2.7 4.068 112.874 112.874 0 00-2.646 4.59 83.708 83.708 0 00-2.34 4.608 35.746 35.746 0 012.34-2.718 27.249 27.249 0 012.25-2.124c.708-.588 1.332-1.044 1.872-1.368.54-.324.941-.486 1.206-.486.168 0 .384.078.647.234.265.156.528.359.792.611.265.253.492.547.685.883.191.336.288.684.288 1.044 0 .48-.229 1.056-.685 1.728a14.267 14.267 0 01-1.728 2.052 20.003 20.003 0 01-2.322 1.98c-.853.624-1.687 1.104-2.502 1.439a6.92 6.92 0 001.404 1.585c.527.432.995.647 1.403.647.168 0 .45-.12.847-.36.396-.239.846-.552 1.35-.936s1.038-.81 1.603-1.278a73.703 73.703 0 001.602-1.368c.504-.443.954-.846 1.35-1.205.397-.362.679-.626.847-.795zm-6.264-4.212c-.696.528-1.524 1.255-2.483 2.179a45.804 45.804 0 00-2.844 3.006c0 .096.024.24.072.432.503-.288 1.02-.642 1.547-1.062a17.87 17.87 0 001.513-1.351c.479-.479.911-.995 1.296-1.548a8.032 8.032 0 00.899-1.656z"/>
  <path d="M92.469 427.729c.384 0 .685.102.9.306.215.204.324.402.324.594 0 .24-.133.36-.396.36-.48 0-1.074.09-1.782.27a22.34 22.34 0 00-2.304.738 37.48 37.48 0 00-2.592 1.098c-.9.421-1.782.858-2.646 1.314.312.384.564.769.757 1.152.191.384.287.756.287 1.115 0 .696-.264 1.339-.792 1.927a8.015 8.015 0 01-1.872 1.529c-.72.433-1.46.774-2.22 1.026-.76.252-1.377.378-1.851.378-.334 0-.676-.084-1.023-.252s-.666-.378-.954-.63a3.24 3.24 0 01-.702-.864 1.956 1.956 0 01-.27-.954c0-.359.138-.737.414-1.134.275-.396.647-.792 1.116-1.188a16.213 16.213 0 011.646-1.205 28.815 28.815 0 012.013-1.188 44.316 44.316 0 01-.871-1.062 13.128 13.128 0 01-.801-1.116 7.956 7.956 0 01-.586-1.08 2.45 2.45 0 01-.231-.99c0-.36.136-.786.409-1.278a9.39 9.39 0 011.066-1.512 16.13 16.13 0 011.499-1.53 16.927 16.927 0 011.705-1.35c.576-.396 1.14-.72 1.692-.972s1.031-.378 1.439-.378c.456 0 .876.084 1.261.252.383.168.72.372 1.008.611.288.24.51.511.666.811.155.3.233.57.233.81 0 .504-.103 1.057-.306 1.656a8.998 8.998 0 01-.774 1.692 5.723 5.723 0 01-1.062 1.332c-.396.359-.786.54-1.17.54-.265 0-.504-.055-.72-.162a2.402 2.402 0 01-.559-.378 1.968 1.968 0 01-.378-.469.948.948 0 01-.144-.468c0-.216.119-.324.359-.324.264 0 .563-.174.9-.521a7.89 7.89 0 00.954-1.225c.3-.468.552-.923.756-1.367.203-.444.306-.762.306-.954 0-.096-.036-.145-.107-.145-.48 0-1.062.252-1.746.756a15.702 15.702 0 00-1.998 1.765c-.648.672-1.2 1.338-1.656 1.998-.456.66-.684 1.146-.684 1.458 0 .288.18.647.54 1.08.359.432.779.899 1.26 1.403a69.427 69.427 0 013.06-1.296 52.931 52.931 0 012.862-1.044 33.664 33.664 0 012.322-.684c.674-.167 1.155-.251 1.443-.251zm-10.368 6.552c0-.096-.107-.312-.323-.648-1.272.744-2.328 1.435-3.168 2.07-.841.636-1.261 1.11-1.261 1.422 0 .048.048.072.145.072.191 0 .54-.102 1.044-.306.504-.204 1.02-.456 1.548-.757a9.86 9.86 0 001.404-.954c.407-.335.611-.635.611-.899z"/>
</svg>
