<svg xmlns="http://www.w3.org/2000/svg" viewBox="-151 398.89 292.604 45">
    <path d="M-47.605 400.583c.24-.216.516-.324.828-.324.24 0 .48.061.72.18.239.121.461.265.666.433.204.168.365.348.486.54.12.192.18.348.18.468 0 .048-.024.096-.072.144a38.179 38.179 0 00-2.016 2.322 62.021 62.021 0 00-2.448 3.258 160.905 160.905 0 00-2.7 3.96 170.691 170.691 0 00-2.826 4.429c-.949 1.536-1.89 3.096-2.826 4.68s-1.824 3.132-2.664 4.644c.696.337 1.158.709 1.386 1.116.228.408.342.853.342 1.332 0 .265-.042.492-.126.685-.084.192-.186.287-.306.287-.024 0-.108-.048-.252-.144-.144-.096-.33-.216-.558-.36-.228-.144-.48-.288-.756-.432s-.57-.264-.882-.36a97.365 97.365 0 00-2.034 3.942 83.295 83.295 0 00-1.584 3.438 30.314 30.314 0 00-1.044 2.736c-.252.792-.378 1.404-.378 1.836 0 .408-.144.612-.432.612-.192 0-.414-.09-.666-.271a3.091 3.091 0 01-.702-.72c-.216-.3-.402-.66-.558-1.08a3.824 3.824 0 01-.234-1.35c0-.312.114-.78.342-1.404.228-.624.552-1.368.972-2.231.419-.864.912-1.824 1.476-2.881a194.195 194.195 0 011.854-3.384c-1.224-.216-2.55-.384-3.978-.504s-2.862-.18-4.302-.18c-1.104 0-2.16.036-3.168.107a355.69 355.69 0 00-3.006 4.986 133.09 133.09 0 00-2.592 4.572c-.756 1.403-1.362 2.651-1.818 3.744-.456 1.092-.684 1.926-.684 2.502 0 .407-.18.611-.54.611-.216 0-.474-.09-.774-.27-.3-.18-.582-.42-.846-.72a4.412 4.412 0 01-.684-1.08 3.213 3.213 0 01-.288-1.351c0-.312.192-.863.576-1.655s.894-1.74 1.53-2.845c.636-1.104 1.38-2.327 2.232-3.672.852-1.344 1.746-2.748 2.682-4.212-1.067.265-1.922.601-2.564 1.008-.643.408-.964.889-.964 1.44 0 .48-.12.72-.36.72-.12 0-.264-.072-.432-.216a2.246 2.246 0 01-.468-.594 4.104 4.104 0 01-.36-.847 3.406 3.406 0 01-.144-1.008c0-.6.132-1.134.396-1.602.264-.469.691-.864 1.281-1.188s1.365-.588 2.328-.792c.962-.203 2.141-.342 3.536-.414 1.083-1.68 2.141-3.33 3.175-4.95a132.122 132.122 0 002.742-4.464 73.352 73.352 0 001.931-3.474c.493-.96.74-1.632.74-2.016 0-.168-.036-.276-.108-.324-.072-.048-.229-.072-.468-.072-.456 0-1.17.103-2.142.306-.972.204-2.1.48-3.384.828a102.41 102.41 0 00-4.14 1.225c-1.476.468-2.958.972-4.446 1.512s-2.916 1.098-4.284 1.674c-1.368.576-2.574 1.146-3.618 1.71s-1.885 1.104-2.52 1.62c-.636.517-.954.99-.954 1.422 0 .528-.18.792-.54.792-.192 0-.396-.072-.612-.216a2.443 2.443 0 01-.594-.576 3.63 3.63 0 01-.468-.864 2.827 2.827 0 01-.198-1.044c0-.552.318-1.128.954-1.728s1.494-1.2 2.574-1.8c1.08-.6 2.322-1.188 3.726-1.765a68.146 68.146 0 014.392-1.62c1.524-.504 3.06-.972 4.608-1.403a93.281 93.281 0 014.374-1.116 67.883 67.883 0 013.636-.738c1.056-.18 1.872-.27 2.448-.27.552 0 1.08.12 1.584.359.504.24.948.547 1.332.918.384.373.689.799.918 1.278.228.48.342.948.342 1.404 0 .384-.198 1.002-.594 1.854-.396.853-.93 1.872-1.602 3.061-.672 1.188-1.446 2.508-2.322 3.96s-1.782 2.946-2.718 4.481c1.944.049 3.882.181 5.814.396 1.932.216 3.654.504 5.166.864.96-1.656 1.98-3.36 3.06-5.112 1.08-1.752 2.148-3.468 3.204-5.148s2.088-3.287 3.096-4.823a405.745 405.745 0 012.736-4.122 89.247 89.247 0 012.124-3.042c.599-.814 1.019-1.354 1.259-1.618zm20.627 14.435c.216.24.378.511.486.811s.162.582.162.846c0 .336-.066.618-.198.846-.132.229-.294.342-.486.342-.049 0-.15-.047-.306-.144a4.622 4.622 0 00-.702-.324 8.572 8.572 0 00-1.242-.342c-.517-.108-1.158-.174-1.926-.198a127.387 127.387 0 00-2.124 3.42 428.097 428.097 0 00-2.124 3.582 142.198 142.198 0 00-1.962 3.456 105.917 105.917 0 00-1.602 3.024c-.456.899-.822 1.662-1.098 2.286s-.414 1.044-.414 1.26c0 .096.036.144.108.144.167 0 .426-.102.774-.306.348-.203.75-.479 1.206-.828a41.37 41.37 0 001.458-1.17c.516-.432 1.038-.876 1.566-1.332 1.2-1.056 2.52-2.268 3.96-3.636.192 0 .36.103.504.306.144.204.216.414.216.63a.536.536 0 01-.144.396 18.94 18.94 0 01-.864.899c-.456.457-1.002.99-1.638 1.603a91.93 91.93 0 01-2.07 1.926 39.443 39.443 0 01-2.178 1.836 19.46 19.46 0 01-1.998 1.386c-.625.373-1.128.559-1.512.559a2.744 2.744 0 01-1.818-.648c-.517-.432-.774-1.031-.774-1.8 0-.407.192-1.073.576-1.998.384-.924.894-1.991 1.53-3.204a129.024 129.024 0 012.178-3.96c.816-1.428 1.656-2.85 2.52-4.266-1.464 1.68-3.006 3.324-4.626 4.932s-3.222 2.977-4.806 4.104a22.643 22.643 0 01-1.458 2.357 15.761 15.761 0 01-1.872 2.214 10.507 10.507 0 01-2.16 1.656c-.756.433-1.53.648-2.322.648-.697 0-1.291-.09-1.782-.271-.492-.181-.895-.421-1.206-.722-.312-.301-.54-.644-.684-1.028s-.216-.795-.216-1.228c0-.241.059-.56.176-.956.117-.397.271-.812.458-1.246.188-.433.394-.859.617-1.281a8.33 8.33 0 01.657-1.063 2.506 2.506 0 01-.144-.561 3.95 3.95 0 01-.036-.522c0-.602.241-1.233.722-1.895a9.27 9.27 0 011.77-1.822c.698-.554 1.451-1.005 2.257-1.354s1.535-.524 2.186-.524c.649 0 1.239.139 1.769.414.53.276.975.618 1.336 1.026.361.408.644.87.849 1.386.205.517.307 1.003.307 1.458 0 .049-.024.192-.072.433a40.979 40.979 0 002.34-2.143c.792-.779 1.584-1.582 2.376-2.408a80.293 80.293 0 002.322-2.524c.756-.857 1.494-1.691 2.214-2.501-1.392.096-2.808.24-4.248.432-1.44.192-2.79.42-4.05.685-1.26.264-2.364.57-3.312.918-.949.348-1.615.714-1.998 1.098-.144.144-.276.216-.396.216-.144 0-.265-.096-.36-.288a1.507 1.507 0 01-.144-.684c0-.168.023-.336.072-.504a.99.99 0 01.252-.433c.336-.336 1.068-.689 2.196-1.062 1.127-.372 2.454-.732 3.978-1.08a74.006 74.006 0 014.914-.937 78.474 78.474 0 015.004-.63c.744-.911 1.427-1.733 2.052-2.466a79.002 79.002 0 002.016-2.448c.12-.155.228-.275.324-.359a.703.703 0 01.288-.162 1.61 1.61 0 011.08.144c.24.121.462.265.666.433s.366.348.486.54c.12.192.18.348.18.468 0 .048-.084.187-.252.414-.168.229-.391.51-.666.846-.276.337-.57.715-.882 1.134-.312.421-.612.835-.9 1.242.696.024 1.272.072 1.728.145.456.069.768.19.936.357zm-27.684 19.584c.36 0 .834-.27 1.422-.81s1.193-1.218 1.818-2.034a1.939 1.939 0 01-.378.036h-.378a3.385 3.385 0 01-2.196-.792c-.192.48-.36.984-.504 1.512-.144.528-.216.972-.216 1.332 0 .504.145.756.432.756zm6.441-10.943c-.7 0-1.4.138-2.1.414-.7.275-1.333.624-1.9 1.044s-1.032.863-1.394 1.332c-.362.468-.542.882-.542 1.241 0 .721.253 1.309.76 1.765s1.146.684 1.918.684c.435 0 .905-.107 1.412-.324.337-.527.658-1.056.959-1.584.302-.527.562-1.031.778-1.512a14.2 14.2 0 00.525-1.313c.133-.396.199-.738.199-1.026 0-.481-.205-.721-.615-.721zm51.015-19.44a29.833 29.833 0 014.554 2.034c1.404.78 2.628 1.674 3.672 2.682s1.866 2.137 2.466 3.384c.6 1.249.9 2.616.9 4.104 0 1.296-.336 2.634-1.008 4.014-.672 1.381-1.59 2.754-2.754 4.122-1.165 1.368-2.52 2.713-4.068 4.032a55.419 55.419 0 01-4.932 3.744 61.536 61.536 0 01-5.4 3.258c-1.86.996-3.672 1.854-5.436 2.574s-3.438 1.283-5.022 1.691-2.976.612-4.176.612c-.288 0-.57-.066-.846-.198a2.77 2.77 0 01-1.224-1.115c-.132-.229-.198-.438-.198-.631 0-.312.12-.474.36-.485.239-.013.624-.055 1.152-.126-.24-.48-.36-.96-.36-1.44 0-.504.293-1.404.882-2.7.588-1.296 1.355-2.819 2.304-4.571a162.24 162.24 0 013.276-5.742 395.556 395.556 0 013.798-6.246 514.182 514.182 0 013.834-6.084c1.26-1.968 2.406-3.72 3.438-5.256a45.544 45.544 0 00-5.238-.918 44.378 44.378 0 00-5.094-.307c-1.512 0-2.934.097-4.266.288-1.332.192-2.484.48-3.456.864s-1.741.87-2.304 1.458c-.564.589-.846 1.278-.846 2.07 0 .264-.144.396-.432.396-.312 0-.661-.167-1.044-.504-.384-.336-.576-.815-.576-1.439 0-.937.372-1.765 1.116-2.484.744-.72 1.758-1.326 3.042-1.818 1.283-.491 2.777-.863 4.482-1.115a37.037 37.037 0 015.436-.379c1.776 0 3.587.108 5.436.324 1.848.216 3.672.553 5.472 1.008.528-.768.936-1.355 1.224-1.764a8.86 8.86 0 01.702-.899c.18-.192.324-.307.432-.343s.258-.054.45-.054c.24 0 .492.061.756.18.264.121.504.271.72.45.216.18.39.36.522.54.131.18.198.33.198.45 0 .072-.072.192-.216.36s-.318.364-.522.593c-.204.229-.414.462-.63.702-.216.24-.408.468-.576.684zm-18.54 33.048c1.704-.48 3.588-1.164 5.652-2.052s4.146-1.908 6.246-3.06a72.491 72.491 0 006.12-3.763c1.98-1.355 3.731-2.729 5.256-4.122 1.524-1.392 2.748-2.771 3.672-4.14.923-1.368 1.386-2.651 1.386-3.853 0-1.079-.306-2.1-.918-3.06s-1.44-1.842-2.484-2.646c-1.044-.805-2.268-1.536-3.672-2.196a32.543 32.543 0 00-4.518-1.71 140.573 140.573 0 00-3.186 4.644c-1.14 1.729-2.28 3.528-3.42 5.4s-2.256 3.774-3.348 5.706a132.464 132.464 0 00-3.006 5.616 78.375 78.375 0 00-2.358 5.094c-.66 1.584-1.134 2.966-1.422 4.142zm42.948-10.44a.345.345 0 01.252-.108c.167 0 .33.108.486.324s.234.432.234.647a.485.485 0 01-.144.36c-.144.144-.42.414-.828.81s-.9.853-1.476 1.368c-.576.517-1.2 1.057-1.872 1.62a31.07 31.07 0 01-1.998 1.548 17.08 17.08 0 01-1.872 1.17c-.588.312-1.075.469-1.458.469-.697 0-1.302-.276-1.818-.828s-.774-1.212-.774-1.98c0-.455.167-1.008.504-1.656.336-.647.708-1.289 1.116-1.926.408-.636.78-1.229 1.116-1.782.336-.552.504-.959.504-1.224 0-.239-.162-.414-.486-.521a7.407 7.407 0 00-1.206-.271c-1.152 1.272-2.1 2.256-2.844 2.952-.744.696-1.32 1.206-1.728 1.53-.408.323-.69.521-.846.594-.156.072-.222.108-.198.108-.24 0-.462-.078-.666-.234-.204-.156-.306-.33-.306-.522 0-.023.084-.119.252-.288.168-.167.438-.432.81-.792l1.476-1.422a96.437 96.437 0 002.25-2.25 6.587 6.587 0 01-1.836-.575c-.528-.265-.792-.685-.792-1.261 0-.384.18-.833.54-1.35.36-.516.815-1.002 1.368-1.458s1.17-.84 1.854-1.152 1.338-.468 1.962-.468c.72 0 1.236.114 1.548.342.312.229.468.534.468.918 0 .504-.216 1.116-.648 1.836-.432.721-.96 1.465-1.584 2.232.36.12.726.246 1.098.378.372.132.714.301 1.026.504.312.204.564.456.756.756.192.301.288.666.288 1.099 0 .216-.12.605-.36 1.17-.24.563-.504 1.17-.792 1.817a67.098 67.098 0 00-.792 1.854c-.24.588-.36 1.025-.36 1.313 0 .192.06.288.18.288.168 0 .45-.119.846-.359s.846-.553 1.35-.937 1.038-.81 1.602-1.278c.563-.468 1.098-.923 1.602-1.367s.954-.847 1.35-1.206c.396-.36.678-.624.846-.792zm-10.764-4.608c0 .36.216.636.648.828a22.59 22.59 0 001.728-1.908c.456-.576.684-.983.684-1.224 0-.145-.084-.216-.252-.216-.096 0-.294.096-.594.287-.301.192-.612.421-.936.685-.324.265-.618.54-.882.828-.264.288-.396.528-.396.72z"/>
    <path d="M55.498 426.719c.072-.072.144-.108.216-.108.192 0 .366.108.522.324s.234.433.234.648c0 .168-.048.3-.144.396-.144.145-.42.408-.828.792-.408.385-.9.834-1.476 1.351a60.97 60.97 0 01-1.89 1.62 35.921 35.921 0 01-2.016 1.548 18.36 18.36 0 01-1.854 1.17c-.576.312-1.056.468-1.44.468a2.375 2.375 0 01-1.854-.828c-.492-.552-.738-1.212-.738-1.979 0-.312.048-.696.144-1.152s.228-.941.396-1.458c.168-.516.348-1.056.54-1.62.192-.563.396-1.109.612-1.638a35.475 35.475 0 00-2.718 2.357 54.106 54.106 0 00-2.718 2.772 32.203 32.203 0 00-2.106 2.538c-.564.769-.846 1.32-.846 1.656 0 .456-.18.684-.54.684-.192 0-.414-.077-.666-.234a2.816 2.816 0 01-.702-.63 3.758 3.758 0 01-.558-.972 3.298 3.298 0 01-.234-1.26c0-.408.144-1.014.432-1.818s.672-1.674 1.152-2.61a63.556 63.556 0 01-2.43 1.891 30.274 30.274 0 01-2.448 1.638c-.804.48-1.566.864-2.286 1.152s-1.368.432-1.944.432c-.864 0-1.536-.216-2.016-.647-.48-.433-.72-1.08-.72-1.944 0-.456.149-1.05.45-1.782.3-.731.648-1.47 1.044-2.214.396-.743.797-1.422 1.206-2.034.408-.612.708-1.014.9-1.206.216-.216.492-.324.828-.324.264 0 .54.061.828.181s.546.27.774.45.414.359.558.54c.144.18.216.33.216.449 0-.048-.175.175-.522.666a22.756 22.756 0 00-1.134 1.801 36.517 36.517 0 00-1.134 2.124c-.348.708-.522 1.254-.522 1.638 0 .265.108.396.324.396.288 0 .708-.149 1.26-.449.552-.3 1.175-.685 1.872-1.152a44.697 44.697 0 002.196-1.584 95.549 95.549 0 002.214-1.746c.708-.576 1.362-1.116 1.962-1.62s1.068-.912 1.404-1.224c.288-.216.486-.384.594-.504s.294-.181.558-.181c.24 0 .48.061.72.181.239.12.461.264.666.432.204.168.365.349.486.54.12.192.18.348.18.468 0 .072-.013.12-.036.145-.625.624-1.272 1.398-1.944 2.321a17.57 17.57 0 00-1.764 3.042 38.147 38.147 0 012.664-2.754 54.558 54.558 0 012.844-2.502c.912-.743 1.728-1.35 2.448-1.817.72-.469 1.224-.702 1.512-.702.24 0 .48.06.72.18s.456.265.648.432c.192.169.348.343.468.522.12.179.18.33.18.45 0 .071-.012.12-.036.144-.24.24-.51.679-.81 1.314-.3.636-.588 1.332-.864 2.088a20.876 20.876 0 00-.684 2.25c-.18.744-.27 1.332-.27 1.764 0 .456.108.685.324.685.167 0 .45-.12.846-.36a15.34 15.34 0 001.35-.937c.504-.383 1.038-.81 1.602-1.277a73.703 73.703 0 001.602-1.368c.504-.443.954-.846 1.35-1.206.396-.36.678-.631.846-.799zm-21.312-7.164c0 .288-.192.432-.576.432-.336 0-.696-.119-1.08-.359-.384-.24-.576-.552-.576-.937 0-.623.114-1.313.342-2.069.228-.756.516-1.458.864-2.106a8.063 8.063 0 011.134-1.638c.408-.444.792-.666 1.152-.666s.714.107 1.062.324c.348.216.666.474.954.773.288.301.516.618.684.954.168.337.252.624.252.864 0 .336-.18.504-.54.504-.265 0-.606.162-1.026.486-.42.323-.828.708-1.224 1.151-.396.444-.732.882-1.008 1.314-.276.433-.414.757-.414.973z"/>
    <path d="M71.987 426.862a.345.345 0 01.252-.107c.166 0 .328.107.484.324.156.216.234.432.234.647a.484.484 0 01-.143.36c-.145.144-.422.414-.828.81-.408.396-.9.853-1.477 1.368a72.917 72.917 0 01-1.873 1.62 31.337 31.337 0 01-1.997 1.548c-.66.468-1.284.858-1.872 1.17-.588.312-1.074.468-1.458.468-.504 0-1.026-.138-1.566-.413a8.41 8.41 0 01-1.548-1.026 11.664 11.664 0 01-1.35-1.314 9.035 9.035 0 01-.936-1.241 19.432 19.432 0 00-1.512 2.573c-.384.805-.576 1.482-.576 2.034 0 .385-.144.576-.432.576-.216 0-.468-.102-.756-.306a3.859 3.859 0 01-.828-.828c-.265-.348-.486-.75-.666-1.206s-.27-.924-.27-1.404c0-.384.156-.978.468-1.782.312-.804.732-1.728 1.26-2.771.528-1.044 1.14-2.184 1.836-3.42s1.422-2.49 2.178-3.763a206.736 206.736 0 012.268-3.726c.756-1.212 1.476-2.322 2.16-3.33s1.296-1.878 1.836-2.61c.54-.731.954-1.241 1.242-1.529.216-.216.48-.324.792-.324.238 0 .479.061.719.18.24.121.463.265.666.433.205.168.367.348.486.54.121.192.18.348.18.468 0 .072-.012.12-.035.144-.768.769-1.602 1.771-2.502 3.006-.9 1.237-1.8 2.593-2.7 4.068-.9 1.477-1.782 3.006-2.646 4.59a83.708 83.708 0 00-2.34 4.608c.768-.984 1.548-1.89 2.34-2.718s1.542-1.536 2.25-2.124c.708-.588 1.332-1.044 1.872-1.368.54-.324.941-.486 1.206-.486.167 0 .383.078.647.234.266.156.529.359.793.611.264.253.492.547.684.883s.289.684.289 1.044c0 .48-.229 1.056-.686 1.728a14.192 14.192 0 01-1.727 2.052 20.003 20.003 0 01-2.322 1.98c-.852.624-1.686 1.104-2.502 1.439a6.92 6.92 0 001.404 1.585c.527.432.996.647 1.404.647.167 0 .45-.12.846-.36.396-.239.846-.552 1.35-.936s1.037-.81 1.602-1.278a71.392 71.392 0 001.602-1.368c.504-.443.955-.846 1.35-1.205.396-.362.68-.626.848-.795zm-6.265-4.212c-.696.528-1.524 1.255-2.484 2.179a45.804 45.804 0 00-2.844 3.006c0 .096.024.24.072.432a12.33 12.33 0 001.548-1.062c.527-.42 1.032-.87 1.512-1.351.48-.479.912-.995 1.296-1.548a8.038 8.038 0 00.9-1.656z"/>
    <path d="M86.493 426.827c.384 0 .685.102.9.306.215.204.324.402.324.594 0 .24-.133.36-.396.36-.48 0-1.074.09-1.782.27a22.34 22.34 0 00-2.304.738 37.48 37.48 0 00-2.592 1.098c-.9.421-1.782.858-2.646 1.314.312.384.564.769.757 1.152.191.384.287.756.287 1.115 0 .696-.264 1.339-.792 1.927a8.015 8.015 0 01-1.872 1.529c-.72.433-1.46.774-2.22 1.026-.76.252-1.377.378-1.851.378-.334 0-.676-.084-1.023-.252s-.666-.378-.954-.63a3.24 3.24 0 01-.702-.864 1.956 1.956 0 01-.27-.954c0-.359.138-.737.414-1.134.275-.396.647-.792 1.116-1.188a16.213 16.213 0 011.646-1.205 28.815 28.815 0 012.013-1.188 44.316 44.316 0 01-.871-1.062 13.128 13.128 0 01-.801-1.116 7.956 7.956 0 01-.586-1.08 2.45 2.45 0 01-.231-.99c0-.36.136-.786.409-1.278a9.39 9.39 0 011.066-1.512 16.13 16.13 0 011.499-1.53 16.927 16.927 0 011.705-1.35c.576-.396 1.14-.72 1.692-.972s1.031-.378 1.439-.378c.456 0 .876.084 1.261.252.383.168.72.372 1.008.611.288.24.51.511.666.811.155.3.233.57.233.81 0 .504-.103 1.057-.306 1.656a8.998 8.998 0 01-.774 1.692 5.723 5.723 0 01-1.062 1.332c-.396.359-.786.54-1.17.54-.265 0-.504-.055-.72-.162a2.402 2.402 0 01-.559-.378 1.968 1.968 0 01-.378-.469.948.948 0 01-.144-.468c0-.216.119-.324.359-.324.264 0 .563-.174.9-.521a7.89 7.89 0 00.954-1.225c.3-.468.552-.923.756-1.367.203-.444.306-.762.306-.954 0-.096-.036-.145-.107-.145-.48 0-1.062.252-1.746.756a15.702 15.702 0 00-1.998 1.765c-.648.672-1.2 1.338-1.656 1.998s-.684 1.146-.684 1.458c0 .288.18.647.54 1.08.359.432.779.899 1.26 1.403a69.427 69.427 0 013.06-1.296 52.931 52.931 0 012.862-1.044 33.664 33.664 0 012.322-.684c.675-.167 1.155-.251 1.443-.251zm-10.368 6.552c0-.096-.107-.312-.323-.648-1.272.744-2.328 1.435-3.168 2.07-.841.636-1.261 1.11-1.261 1.422 0 .048.048.072.145.072.191 0 .54-.102 1.044-.306.504-.204 1.02-.456 1.548-.757a9.86 9.86 0 001.404-.954c.407-.335.611-.635.611-.899z"/>
</svg>
