<svg xmlns="http://www.w3.org/2000/svg" viewBox="-151 398.89 292.604 45">
    <path d="M-52.932 401.159c.552 0 1.08.121 1.584.36.504.24.948.546 1.332.918s.689.798.918 1.278c.228.48.342.948.342 1.403 0 .433-.282 1.206-.846 2.322-.564 1.116-1.314 2.46-2.25 4.032s-1.998 3.307-3.186 5.202-2.4 3.84-3.636 5.832-2.448 3.96-3.636 5.903a171.115 171.115 0 00-3.186 5.418c-.936 1.669-1.687 3.133-2.25 4.393-.564 1.26-.846 2.189-.846 2.79 0 .407-.18.611-.54.611-.216 0-.474-.09-.774-.27s-.582-.42-.846-.72a4.383 4.383 0 01-.684-1.08 3.213 3.213 0 01-.288-1.351c0-.384.293-1.128.882-2.231a81.47 81.47 0 012.322-4.015 207.744 207.744 0 013.294-5.201l3.78-5.797c1.284-1.967 2.544-3.905 3.78-5.813a211.065 211.065 0 003.294-5.238 81.634 81.634 0 002.322-4.05c.588-1.116.882-1.878.882-2.286 0-.144-.036-.239-.108-.288-.072-.048-.24-.071-.504-.071-.504 0-1.308.102-2.412.306-1.104.204-2.388.48-3.852.828s-3.048.756-4.752 1.224c-1.704.468-3.408.972-5.112 1.512-1.705.54-3.342 1.099-4.914 1.675a53.623 53.623 0 00-4.176 1.71c-1.212.563-2.178 1.11-2.898 1.638-.72.528-1.08 1.008-1.08 1.439 0 .505-.18.757-.54.757-.168 0-.36-.072-.576-.217a2.732 2.732 0 01-.612-.575c-.192-.24-.354-.528-.486-.864s-.198-.685-.198-1.044c0-.552.372-1.128 1.116-1.729.744-.6 1.746-1.199 3.006-1.8 1.26-.6 2.706-1.188 4.338-1.764 1.632-.576 3.33-1.116 5.094-1.62s3.528-.972 5.292-1.404 3.414-.804 4.95-1.116a85.036 85.036 0 014.068-.737c1.176-.18 2.04-.27 2.592-.27zm9.828 26.712a.348.348 0 01.252-.107c.192 0 .36.102.504.305.144.203.216.413.216.628a.534.534 0 01-.144.395c-.216.215-.576.567-1.08 1.058a40.86 40.86 0 01-4.176 3.514c-.864.634-1.77 1.22-2.718 1.758-.949.538-1.92.974-2.916 1.309s-1.975.502-2.934.502c-.504 0-.966-.096-1.386-.288a3.463 3.463 0 01-1.08-.756 3.612 3.612 0 01-.72-1.098c-.18-.42-.27-.858-.27-1.314 0-.576.162-1.278.486-2.105.324-.828.756-1.692 1.296-2.593.54-.899 1.146-1.8 1.818-2.699.671-.9 1.355-1.704 2.052-2.412.696-.708 1.374-1.284 2.034-1.729.66-.443 1.229-.666 1.71-.666.456 0 .876.085 1.26.252.384.168.708.378.972.63s.474.528.63.828c.156.301.234.57.234.811 0 .504-.103 1.056-.306 1.655a8.97 8.97 0 01-.774 1.692 5.702 5.702 0 01-1.062 1.332c-.396.36-.787.54-1.17.54a1.61 1.61 0 01-.72-.159 2.08 2.08 0 01-.558-.388 2.274 2.274 0 01-.378-.477.921.921 0 01-.144-.459c0-.211.12-.317.36-.317.264 0 .563-.182.9-.545a7.54 7.54 0 00.936-1.27c.288-.484.527-.962.72-1.434.192-.472.288-.816.288-1.034 0-.121-.036-.182-.108-.182-.168 0-.45.186-.846.558s-.84.864-1.332 1.476-1.002 1.297-1.53 2.053-1.014 1.524-1.458 2.304-.81 1.53-1.098 2.25-.432 1.332-.432 1.836c0 .408.108.727.324.954.216.229.563.342 1.044.342.624 0 1.314-.143 2.07-.43a14.774 14.774 0 002.286-1.11 28.77 28.77 0 002.286-1.504 43.03 43.03 0 003.69-2.991c.455-.42.779-.723.972-.915z"/>
    <path d="M-29.28 427.835a.348.348 0 01.252-.107c.192 0 .36.103.504.306.144.204.216.414.216.63a.532.532 0 01-.144.396c-.216.216-.576.57-1.08 1.062s-1.11 1.044-1.818 1.656-1.494 1.236-2.358 1.872a27.742 27.742 0 01-2.718 1.764c-.949.54-1.92.979-2.916 1.314a9.149 9.149 0 01-2.934.504c-.504 0-.966-.096-1.386-.288a3.463 3.463 0 01-1.08-.756 3.612 3.612 0 01-.72-1.098c-.18-.42-.27-.858-.27-1.314 0-.576.162-1.278.486-2.105.324-.828.756-1.692 1.296-2.593.54-.899 1.146-1.8 1.818-2.699.671-.9 1.355-1.704 2.052-2.412.696-.708 1.374-1.284 2.034-1.729.66-.443 1.229-.666 1.71-.666.456 0 .876.085 1.26.252.384.168.708.378.972.63s.474.528.63.828c.156.301.234.57.234.811 0 .624-.234 1.41-.702 2.357-.468.948-1.098 1.891-1.89 2.826a14.697 14.697 0 01-2.772 2.521c-1.056.744-2.172 1.2-3.348 1.367a.818.818 0 01-.018.162.77.77 0 00-.018.162c0 .889.468 1.332 1.404 1.332.624 0 1.314-.144 2.07-.432.756-.288 1.518-.66 2.286-1.116.768-.456 1.53-.96 2.286-1.512a42.945 42.945 0 004.662-3.925zm-5.977-4.787c-.192 0-.535.246-1.026.737a20.286 20.286 0 00-1.62 1.872 38.823 38.823 0 00-1.782 2.502c-.6.913-1.092 1.8-1.476 2.664.48-.072.966-.288 1.458-.647.492-.36.96-.786 1.404-1.278.444-.491.858-1.026 1.242-1.602s.72-1.135 1.008-1.675c.288-.54.51-1.02.666-1.439.156-.42.234-.726.234-.918 0-.145-.036-.216-.108-.216z"/>
    <path d="M-15.457 427.871a.348.348 0 01.252-.107c.192 0 .36.102.504.305.144.203.216.413.216.628a.534.534 0 01-.144.395c-.216.215-.576.567-1.08 1.058a40.86 40.86 0 01-4.176 3.514c-.864.634-1.77 1.22-2.718 1.758-.949.538-1.92.974-2.916 1.309s-1.975.502-2.934.502c-.504 0-.966-.096-1.386-.288a3.463 3.463 0 01-1.08-.756 3.612 3.612 0 01-.72-1.098c-.18-.42-.27-.858-.27-1.314 0-.576.162-1.278.486-2.105.324-.828.756-1.692 1.296-2.593.54-.899 1.146-1.8 1.818-2.699.671-.9 1.355-1.704 2.052-2.412.696-.708 1.374-1.284 2.034-1.729.66-.443 1.229-.666 1.71-.666.456 0 .876.085 1.26.252.384.168.708.378.972.63s.474.528.63.828c.156.301.234.57.234.811 0 .504-.103 1.056-.306 1.655a8.97 8.97 0 01-.774 1.692 5.702 5.702 0 01-1.062 1.332c-.396.36-.787.54-1.17.54a1.61 1.61 0 01-.72-.159 2.08 2.08 0 01-.558-.388 2.274 2.274 0 01-.378-.477.921.921 0 01-.144-.459c0-.211.12-.317.36-.317.264 0 .563-.182.9-.545a7.54 7.54 0 00.936-1.27c.288-.484.527-.962.72-1.434.192-.472.288-.816.288-1.034 0-.121-.036-.182-.108-.182-.168 0-.45.186-.846.558s-.84.864-1.332 1.476-1.002 1.297-1.53 2.053-1.014 1.524-1.458 2.304-.81 1.53-1.098 2.25-.432 1.332-.432 1.836c0 .408.108.727.324.954.216.229.563.342 1.044.342.624 0 1.314-.143 2.07-.43a14.774 14.774 0 002.286-1.11 28.77 28.77 0 002.286-1.504 43.03 43.03 0 003.69-2.991c.455-.42.779-.723.972-.915z"/>
    <path d="M-1.67 427.8a.345.345 0 01.252-.108c.167 0 .33.108.486.324s.234.432.234.647a.485.485 0 01-.144.36c-.144.144-.42.414-.828.81s-.9.853-1.476 1.368c-.576.517-1.2 1.057-1.872 1.62a31.07 31.07 0 01-1.998 1.548 17.08 17.08 0 01-1.872 1.17c-.588.312-1.075.469-1.458.469-.697 0-1.302-.276-1.818-.828s-.774-1.212-.774-1.98c0-.455.167-1.008.504-1.656.336-.647.708-1.289 1.116-1.926.408-.636.78-1.229 1.116-1.782.336-.552.504-.959.504-1.224 0-.239-.162-.414-.486-.521a7.407 7.407 0 00-1.206-.271c-1.152 1.272-2.1 2.256-2.844 2.952-.744.696-1.32 1.206-1.728 1.53-.408.323-.69.521-.846.594-.156.072-.222.108-.198.108-.24 0-.462-.078-.666-.234s-.306-.33-.306-.522c0-.023.084-.119.252-.288.168-.167.438-.432.81-.792l1.476-1.422a96.437 96.437 0 002.25-2.25 6.587 6.587 0 01-1.836-.575c-.528-.265-.792-.685-.792-1.261 0-.384.18-.833.54-1.35.36-.516.815-1.002 1.368-1.458s1.17-.84 1.854-1.152 1.338-.468 1.962-.468c.72 0 1.236.114 1.548.342.312.229.468.534.468.918 0 .504-.216 1.116-.648 1.836-.432.721-.96 1.465-1.584 2.232.36.12.726.246 1.098.378.372.132.714.301 1.026.504.312.204.564.456.756.756.192.301.288.666.288 1.099 0 .216-.12.605-.36 1.17-.24.563-.504 1.17-.792 1.817a67.098 67.098 0 00-.792 1.854c-.24.588-.36 1.025-.36 1.313 0 .192.06.288.18.288.168 0 .45-.119.846-.359.396-.24.846-.553 1.35-.937s1.038-.81 1.602-1.278c.563-.468 1.098-.923 1.602-1.367s.954-.847 1.35-1.206c.396-.36.678-.624.846-.792zm-10.764-4.608c0 .36.216.636.648.828a22.59 22.59 0 001.728-1.908c.456-.576.684-.983.684-1.224 0-.145-.084-.216-.252-.216-.096 0-.294.096-.594.287-.301.192-.612.421-.936.685-.324.265-.618.54-.882.828s-.396.528-.396.72z"/>
    <path d="M12.154 427.835a.348.348 0 01.252-.107c.192 0 .36.103.504.306.144.204.216.414.216.63a.532.532 0 01-.144.396c-.216.216-.576.57-1.08 1.062s-1.11 1.044-1.818 1.656-1.494 1.236-2.358 1.872a27.742 27.742 0 01-2.718 1.764c-.949.54-1.92.979-2.916 1.314a9.149 9.149 0 01-2.934.504c-.504 0-.966-.096-1.386-.288a3.463 3.463 0 01-1.08-.756 3.612 3.612 0 01-.72-1.098c-.18-.42-.27-.858-.27-1.314 0-.576.162-1.278.486-2.105.324-.828.756-1.692 1.296-2.593.54-.899 1.146-1.8 1.818-2.699.671-.9 1.355-1.704 2.052-2.412.696-.708 1.374-1.284 2.034-1.729.66-.443 1.229-.666 1.71-.666.456 0 .876.085 1.26.252.384.168.708.378.972.63s.474.528.63.828c.156.301.234.57.234.811 0 .624-.234 1.41-.702 2.357-.468.948-1.098 1.891-1.89 2.826a14.697 14.697 0 01-2.772 2.521c-1.056.744-2.172 1.2-3.348 1.367a.818.818 0 01-.018.162.77.77 0 00-.018.162c0 .889.468 1.332 1.404 1.332.624 0 1.314-.144 2.07-.432.756-.288 1.518-.66 2.286-1.116.768-.456 1.53-.96 2.286-1.512a42.945 42.945 0 004.662-3.925zm-5.976-4.787c-.192 0-.535.246-1.026.737-.492.492-1.032 1.116-1.62 1.872s-1.183 1.591-1.782 2.502c-.6.913-1.092 1.8-1.476 2.664.48-.072.966-.288 1.458-.647.492-.36.96-.786 1.404-1.278.444-.491.858-1.026 1.242-1.602s.72-1.135 1.008-1.675c.288-.54.51-1.02.666-1.439.156-.42.234-.726.234-.918 0-.145-.036-.216-.108-.216z"/>
    <path d="M57.657 427.98a.345.345 0 01.252-.108c.168 0 .33.108.486.324s.234.433.234.648a.485.485 0 01-.144.359c-.144.145-.42.414-.828.811-.408.396-.9.852-1.476 1.368s-1.2 1.056-1.872 1.619a31.457 31.457 0 01-1.998 1.549c-.661.468-1.284.858-1.872 1.17-.588.312-1.074.468-1.458.468a2.375 2.375 0 01-1.854-.828c-.492-.552-.738-1.212-.738-1.979 0-.312.054-.714.162-1.206.108-.492.252-1.021.432-1.584.18-.564.378-1.14.594-1.729.216-.588.432-1.146.648-1.674-.72.48-1.476 1.057-2.268 1.728a32.766 32.766 0 00-2.178 2.017 18.415 18.415 0 00-1.656 1.908c-.444.6-.666 1.056-.666 1.367 0 .409-.229.612-.684.612-.216 0-.456-.06-.72-.18s-.51-.294-.738-.522a2.902 2.902 0 01-.576-.846 2.706 2.706 0 01-.234-1.152c0-.239.072-.611.216-1.115a18.74 18.74 0 01.576-1.675c.24-.611.51-1.26.81-1.943.3-.685.606-1.338.918-1.962a36.855 36.855 0 00-1.836 1.817 49.02 49.02 0 00-1.926 2.16 99.695 99.695 0 00-1.836 2.25 56.72 56.72 0 00-1.566 2.07c-.456.636-.816 1.2-1.08 1.691-.264.492-.396.847-.396 1.062 0 .48-.216.72-.648.72-.216 0-.45-.072-.702-.216a2.816 2.816 0 01-.72-.612 3.597 3.597 0 01-.576-.936 3.052 3.052 0 01-.234-1.225c0-.312.096-.761.288-1.35.192-.588.456-1.229.792-1.926-1.008.888-2.04 1.662-3.096 2.322s-2.04.989-2.952.989c-.576 0-1.057-.09-1.44-.27a2.501 2.501 0 01-.936-.738 2.783 2.783 0 01-.504-1.098 5.88 5.88 0 01-.144-1.314c0-.84.132-1.68.396-2.52-.816.672-1.74 1.518-2.772 2.538a134.345 134.345 0 01-3.078 2.951c-1.021.949-1.98 1.759-2.88 2.431s-1.638 1.008-2.214 1.008c-.696 0-1.23-.264-1.602-.792-.372-.527-.558-1.2-.558-2.016 0-.6.18-1.332.54-2.196.36-.864.846-1.758 1.458-2.682a28.358 28.358 0 012.088-2.755 22.136 22.136 0 012.43-2.447c.84-.721 1.668-1.302 2.484-1.746s1.572-.666 2.268-.666c.456 0 .876.072 1.26.216.383.144.708.336.972.576.264.24.474.51.63.81.156.301.234.606.234.918 0 .337-.103.595-.306.774-.204.18-.402.27-.594.27-.121 0-.21-.071-.27-.216-.061-.144-.132-.3-.216-.468s-.198-.324-.342-.468c-.144-.145-.36-.216-.648-.216-.36 0-.834.239-1.422.72a18.504 18.504 0 00-1.89 1.817 44.529 44.529 0 00-2.052 2.412c-.696.877-1.326 1.71-1.89 2.502s-1.026 1.482-1.386 2.07c-.36.589-.54.954-.54 1.098 0 .049.024.072.072.072.144 0 .504-.228 1.08-.684s1.26-1.032 2.052-1.729a202.195 202.195 0 015.274-4.463 28.264 28.264 0 012.322-1.728c.696-.456 1.211-.685 1.548-.685.264 0 .54.061.828.181a3.482 3.482 0 011.332.989c.144.181.216.33.216.45 0-.023-.078.12-.234.432-.157.312-.324.709-.504 1.188-.18.48-.342.984-.486 1.512-.144.528-.216.973-.216 1.332 0 .48.12.72.36.72.312 0 .732-.161 1.26-.485.527-.324 1.104-.738 1.728-1.242s1.271-1.062 1.944-1.674c.671-.612 1.296-1.2 1.872-1.764.576-.564 1.085-1.068 1.53-1.513l.918-.918c.24-.239.516-.359.828-.359.24 0 .48.06.72.18.239.12.456.265.648.432.191.168.348.349.468.54.12.192.18.349.18.468 0 .072-.013.121-.036.145a19.877 19.877 0 00-1.764 2.07 16.492 16.492 0 00-1.656 2.718 46.23 46.23 0 012.844-3.223 65.732 65.732 0 012.952-2.88c.936-.852 1.764-1.541 2.484-2.069s1.2-.792 1.44-.792.486.06.738.18.479.265.684.432c.204.169.365.349.486.54.12.192.18.349.18.469-.384.624-.769 1.26-1.152 1.907a20.959 20.959 0 00-1.008 1.891 33.096 33.096 0 00-.9 2.069 25.616 25.616 0 012.196-2.016 31.689 31.689 0 012.304-1.728 20.315 20.315 0 011.98-1.206c.576-.3.984-.45 1.224-.45.239 0 .486.06.738.18s.48.265.684.432c.204.169.366.349.486.54.12.192.18.349.18.469 0 .048-.024.096-.072.144-.24.24-.51.679-.81 1.314-.3.636-.588 1.332-.864 2.088a20.876 20.876 0 00-.684 2.25c-.18.744-.27 1.332-.27 1.764 0 .456.108.685.324.685.167 0 .45-.12.846-.36s.846-.552 1.35-.937c.504-.383 1.038-.81 1.602-1.277.563-.468 1.098-.924 1.602-1.368s.954-.846 1.35-1.206c.396-.36.679-.623.846-.791z"/>
    <path d="M72.165 427.8c.385 0 .686.102.9.306.217.204.324.402.324.594 0 .24-.133.36-.396.36-.48 0-1.074.09-1.781.27-.709.181-1.477.427-2.305.738-.828.312-1.691.679-2.591 1.098-.9.421-1.782.858-2.646 1.314.312.384.563.769.756 1.152.192.384.288.756.288 1.115 0 .696-.265 1.339-.792 1.927a8.056 8.056 0 01-1.872 1.529c-.72.433-1.46.774-2.22 1.026-.76.252-1.377.378-1.851.378a2.34 2.34 0 01-1.023-.252 4.243 4.243 0 01-.954-.63c-.288-.252-.522-.54-.702-.864s-.27-.642-.27-.954c0-.359.138-.737.414-1.134.275-.396.648-.792 1.116-1.188s1.017-.797 1.647-1.205c.63-.408 1.301-.805 2.013-1.188a42.026 42.026 0 01-.871-1.062 13.11 13.11 0 01-.8-1.116c-.238-.372-.433-.732-.587-1.08s-.231-.678-.231-.99c0-.36.136-.786.409-1.278a9.4 9.4 0 011.067-1.512c.439-.516.938-1.025 1.5-1.53.56-.504 1.129-.953 1.705-1.35.576-.396 1.14-.72 1.692-.972s1.032-.378 1.44-.378c.456 0 .875.084 1.26.252a4.21 4.21 0 011.008.611c.289.24.51.511.666.811.156.3.234.57.234.81 0 .504-.104 1.057-.307 1.656a8.932 8.932 0 01-.773 1.692 5.723 5.723 0 01-1.062 1.332c-.396.359-.787.54-1.17.54-.265 0-.504-.055-.72-.162a2.396 2.396 0 01-.558-.378 1.968 1.968 0 01-.378-.469.948.948 0 01-.144-.468c0-.216.12-.324.36-.324.264 0 .563-.174.9-.521.335-.348.653-.756.954-1.225.3-.468.552-.923.756-1.367s.306-.762.306-.954c0-.096-.036-.145-.108-.145-.48 0-1.062.252-1.746.756-.684.504-1.35 1.093-1.998 1.765s-1.201 1.338-1.656 1.998c-.456.66-.684 1.146-.684 1.458 0 .288.18.647.54 1.08.36.432.78.899 1.26 1.403a69.941 69.941 0 013.06-1.296 52.918 52.918 0 012.861-1.044c.877-.288 1.65-.516 2.322-.684s1.151-.251 1.438-.251zm-10.367 6.552c0-.096-.108-.312-.324-.648-1.272.744-2.328 1.435-3.168 2.07-.84.636-1.26 1.11-1.26 1.422 0 .048.048.072.144.072.192 0 .54-.102 1.044-.306.504-.204 1.02-.456 1.548-.757.528-.3.996-.617 1.404-.954.408-.335.612-.635.612-.899z"/>
</svg>
