<svg xmlns="http://www.w3.org/2000/svg" viewBox="-151 398.89 292.604 45">
    <path d="M1.174 404.543c.384 0 .756.085 1.116.252.36.168.684.385.972.648.288.265.516.552.684.864.167.312.252.611.252.899 0 .48-.234 1.236-.702 2.269-.468 1.032-1.086 2.244-1.854 3.636a180.348 180.348 0 01-2.61 4.554c-.972 1.645-1.968 3.318-2.988 5.022-1.021 1.704-2.016 3.39-2.988 5.058s-1.842 3.204-2.61 4.608c-.768 1.403-1.386 2.646-1.854 3.726-.468 1.08-.702 1.884-.702 2.412 0 .408-.192.612-.576.612-.265 0-.558-.091-.882-.271s-.643-.42-.954-.72a3.774 3.774 0 01-.774-1.08 3.036 3.036 0 01-.306-1.35c0-.456.246-1.206.738-2.25s1.146-2.274 1.962-3.69c.816-1.416 1.74-2.952 2.772-4.608 1.031-1.655 2.088-3.329 3.168-5.021s2.136-3.336 3.168-4.932a734.73 734.73 0 002.772-4.32c.815-1.284 1.47-2.352 1.962-3.204s.738-1.374.738-1.566c0-.048-.012-.071-.036-.071-.265 0-.834.366-1.71 1.098-.876.732-1.944 1.704-3.204 2.916a170.742 170.742 0 00-4.176 4.176c-1.524 1.572-3.066 3.192-4.626 4.86s-3.066 3.324-4.518 4.968a209.094 209.094 0 00-3.888 4.519c-1.14 1.367-2.052 2.532-2.736 3.491-.684.961-1.026 1.597-1.026 1.908 0 .408-.192.612-.576.612-.265 0-.558-.09-.882-.271a4.6 4.6 0 01-.954-.72 3.76 3.76 0 01-.774-1.08 3.046 3.046 0 01-.306-1.35c0-.456.216-1.182.648-2.179a51.16 51.16 0 011.728-3.527c.72-1.355 1.536-2.832 2.448-4.429a296.033 296.033 0 012.808-4.806c.959-1.607 1.896-3.174 2.808-4.698a390.276 390.276 0 002.448-4.14 78.024 78.024 0 001.728-3.096c.432-.828.648-1.338.648-1.53 0-.072-.024-.108-.072-.108-.121 0-.51.331-1.17.99-.661.66-1.524 1.555-2.592 2.683a247.133 247.133 0 00-3.672 3.978 500.35 500.35 0 00-4.356 4.878 743.837 743.837 0 00-4.698 5.382 397.587 397.587 0 00-4.662 5.49 518.58 518.58 0 00-4.266 5.184 143.494 143.494 0 00-3.51 4.482c-.996 1.332-1.782 2.466-2.358 3.402-.576.936-.864 1.571-.864 1.907 0 .408-.18.612-.54.612-.216 0-.474-.09-.774-.27a3.592 3.592 0 01-.846-.721c-.264-.3-.492-.66-.684-1.08a3.208 3.208 0 01-.288-1.35c0-.384.246-1.05.738-1.998a55.834 55.834 0 011.944-3.384 183.819 183.819 0 012.736-4.302c1.02-1.561 2.07-3.15 3.15-4.771 1.08-1.62 2.129-3.216 3.15-4.788a211.013 211.013 0 002.736-4.319c.804-1.309 1.452-2.442 1.944-3.402s.738-1.632.738-2.016c0-.168-.036-.276-.108-.324-.072-.048-.229-.072-.468-.072-.456 0-1.17.103-2.142.306-.972.204-2.1.48-3.384.828a102.41 102.41 0 00-4.14 1.225c-1.476.468-2.958.972-4.446 1.512s-2.916 1.098-4.284 1.674c-1.368.576-2.574 1.146-3.618 1.71s-1.885 1.104-2.52 1.62c-.636.517-.954.99-.954 1.422 0 .528-.18.792-.54.792-.192 0-.396-.072-.612-.216a2.443 2.443 0 01-.594-.576 3.63 3.63 0 01-.468-.864 2.827 2.827 0 01-.198-1.044c0-.552.318-1.128.954-1.728.636-.6 1.494-1.2 2.574-1.8s2.322-1.188 3.726-1.765a68.146 68.146 0 014.392-1.62c1.524-.504 3.06-.972 4.608-1.403 1.548-.433 3.006-.804 4.374-1.116s2.58-.558 3.636-.738 1.872-.27 2.448-.27c.552 0 1.08.12 1.584.359.504.24.948.547 1.332.918.384.373.689.799.918 1.278.228.48.342.948.342 1.404 0 .48-.283 1.277-.846 2.394-.564 1.116-1.302 2.431-2.214 3.942-.913 1.512-1.932 3.156-3.06 4.932s-2.245 3.564-3.348 5.364a289.578 289.578 0 014.752-5.886 317.348 317.348 0 015.058-5.958 249.363 249.363 0 014.95-5.526c1.607-1.739 3.078-3.264 4.41-4.572s2.484-2.346 3.456-3.113c.972-.769 1.674-1.152 2.106-1.152.408 0 .816.084 1.224.252s.774.384 1.098.648c.324.264.582.552.774.863.192.312.288.612.288.9 0 .432-.162 1.062-.486 1.89s-.762 1.795-1.314 2.898c-.552 1.104-1.188 2.322-1.908 3.654s-1.476 2.706-2.268 4.121l-2.394 4.284a269.07 269.07 0 00-2.286 4.177 168.489 168.489 0 013.852-4.393 307.585 307.585 0 014.23-4.572 132.572 132.572 0 014.266-4.319c1.416-1.368 2.718-2.574 3.906-3.618s2.238-1.872 3.15-2.484c.911-.609 1.596-.916 2.052-.916zm10.835 23.22a.348.348 0 01.252-.107c.192 0 .36.103.504.306.144.204.216.414.216.63a.532.532 0 01-.144.396c-.216.216-.576.57-1.08 1.062-.504.492-1.11 1.044-1.818 1.656s-1.494 1.236-2.358 1.872a27.742 27.742 0 01-2.718 1.764c-.949.54-1.92.979-2.916 1.314a9.149 9.149 0 01-2.934.504c-.504 0-.966-.096-1.386-.288a3.463 3.463 0 01-1.08-.756c-.301-.312-.54-.678-.72-1.098s-.27-.858-.27-1.314c0-.576.162-1.278.486-2.105.324-.828.756-1.692 1.296-2.593.54-.899 1.146-1.8 1.818-2.699.671-.9 1.355-1.704 2.052-2.412.696-.708 1.374-1.284 2.034-1.729.66-.443 1.229-.666 1.71-.666.456 0 .876.085 1.26.252.384.168.708.378.972.63s.474.528.63.828c.156.301.234.57.234.811 0 .624-.234 1.41-.702 2.357-.468.948-1.098 1.891-1.89 2.826a14.697 14.697 0 01-2.772 2.521c-1.056.744-2.172 1.2-3.348 1.367a.818.818 0 01-.018.162.77.77 0 00-.018.162c0 .889.468 1.332 1.404 1.332.624 0 1.314-.144 2.07-.432s1.518-.66 2.286-1.116 1.53-.96 2.286-1.512a42.945 42.945 0 004.662-3.925zm-5.976-4.787c-.192 0-.535.246-1.026.737a20.286 20.286 0 00-1.62 1.872 38.823 38.823 0 00-1.782 2.502c-.6.913-1.092 1.8-1.476 2.664.48-.072.966-.288 1.458-.647.492-.36.96-.786 1.404-1.278.444-.491.858-1.026 1.242-1.602.384-.576.72-1.135 1.008-1.675.288-.54.51-1.02.666-1.439.156-.42.234-.726.234-.918 0-.145-.036-.216-.108-.216z"/>
    <path d="M30.045 427.656a.345.345 0 01.252-.108c.167 0 .33.108.486.324s.234.432.234.648a.488.488 0 01-.144.359c-.144.145-.42.414-.828.811-.408.396-.9.852-1.476 1.368-.576.516-1.2 1.056-1.872 1.619a31.457 31.457 0 01-1.998 1.549c-.66.468-1.284.858-1.872 1.17-.588.312-1.074.468-1.458.468-.72 0-1.332-.275-1.836-.828-.504-.552-.756-1.212-.756-1.979 0-.312.06-.721.18-1.225.12-.504.27-1.044.45-1.62s.384-1.163.612-1.764c.228-.6.45-1.176.666-1.729a37.83 37.83 0 00-2.754 2.467 56.515 56.515 0 00-2.79 2.916c-.864.972-1.59 1.866-2.178 2.682s-.882 1.393-.882 1.728c0 .457-.18.685-.54.685-.192 0-.414-.078-.666-.234a2.816 2.816 0 01-.702-.63c-.216-.264-.402-.588-.558-.972s-.234-.804-.234-1.26c0-.217.09-.606.27-1.171.18-.563.419-1.205.72-1.926.3-.72.648-1.47 1.044-2.25a23.63 23.63 0 011.224-2.142c.42-.648.834-1.182 1.242-1.603.408-.419.792-.63 1.152-.63.24 0 .48.061.72.181s.462.264.666.432c.204.168.366.349.486.54.12.192.18.348.18.468 0 .049-.024.097-.072.145-.672.696-1.374 1.56-2.106 2.592a17.037 17.037 0 00-1.854 3.384 38.111 38.111 0 012.664-2.898 52.579 52.579 0 012.934-2.699 35.19 35.19 0 012.556-1.998c.756-.528 1.266-.792 1.53-.792.24 0 .486.06.738.18s.479.265.684.432c.204.169.366.349.486.54.12.192.18.349.18.469 0 .048-.024.096-.072.144-.24.24-.51.679-.81 1.314-.3.636-.588 1.332-.864 2.088a20.876 20.876 0 00-.684 2.25c-.18.744-.27 1.332-.27 1.764 0 .456.108.684.324.684.168 0 .45-.119.846-.359s.846-.552 1.35-.937c.504-.383 1.038-.81 1.602-1.277.563-.469 1.098-.924 1.602-1.368s.954-.846 1.35-1.206c.396-.36.677-.629.846-.796z"/>
    <path d="M48.189 427.547a.348.348 0 01.252-.107c.167 0 .33.107.486.323.156.217.234.433.234.648a.534.534 0 01-.144.396c-.144.12-.42.384-.828.792-.408.408-.9.87-1.476 1.386-.576.517-1.2 1.057-1.872 1.62s-1.338 1.08-1.998 1.548a18.36 18.36 0 01-1.854 1.17c-.576.312-1.056.468-1.44.468-.36 0-.72-.077-1.08-.233s-.678-.36-.954-.612a2.985 2.985 0 01-.666-.882 2.382 2.382 0 01-.252-1.08c0-.408.108-.96.324-1.656.216-.695.492-1.452.828-2.268-.816.96-1.65 1.92-2.502 2.88-.852.96-1.662 1.83-2.43 2.609-.768.78-1.464 1.41-2.088 1.891-.625.48-1.104.72-1.44.72-.84 0-1.482-.264-1.926-.792-.444-.527-.666-1.2-.666-2.016 0-.36.121-.852.36-1.477.24-.624.552-1.313.936-2.069a38.18 38.18 0 011.296-2.341c.48-.804.948-1.56 1.404-2.268.456-.708.882-1.338 1.278-1.89.396-.553.713-.948.954-1.188.24-.216.516-.324.828-.324.24 0 .48.061.72.181.239.12.461.27.666.449.204.181.365.36.486.54.12.181.18.33.18.45 0 .072-.013.12-.036.145-.168.168-.426.492-.774.972-.348.48-.738 1.038-1.17 1.674-.432.637-.871 1.32-1.314 2.052a45.154 45.154 0 00-1.206 2.106c-.36.672-.661 1.29-.9 1.854-.24.564-.36.99-.36 1.278 0 .265.108.396.324.396.12 0 .426-.265.918-.792a98.441 98.441 0 001.8-1.998c.708-.804 1.476-1.704 2.304-2.7a498.705 498.705 0 014.536-5.382c.636-.744 1.122-1.284 1.458-1.62.216-.216.468-.324.756-.324.216 0 .438.066.666.198.228.132.432.288.612.468.18.18.324.366.432.558.108.192.162.349.162.469 0 .096-.013.156-.036.18-.265.265-.594.798-.99 1.602a44.41 44.41 0 00-1.188 2.646c-.396.959-.732 1.89-1.008 2.79-.276.899-.414 1.578-.414 2.034 0 .336.084.504.252.504.167 0 .45-.126.846-.378.396-.252.84-.57 1.332-.954a73.703 73.703 0 003.186-2.646c.504-.443.954-.846 1.35-1.206.396-.361.678-.625.846-.794z"/>
</svg>
