<svg xmlns="http://www.w3.org/2000/svg" viewBox="-151 398.9 292.6 45">
    <path d="M-21.6 401.1c-.2-.1-.3-.3-.3-.4 0-.1.1-.3.3-.3.2-.1.4-.1.7-.1.3 0 .7.1 1 .2.4.1.7.3 1.1.6.3.3.6.6.8 1 .2.4.3 1 .3 1.6 0 .5-.2 1.4-.6 2.6-.4 1.3-1 2.7-1.7 4.5s-1.6 3.6-2.6 5.6c-1 2-2.1 4.1-3.2 6.1-1.2 2-2.4 4-3.6 5.9-1.3 1.9-2.5 3.6-3.8 5.1-1.3 1.5-2.5 2.7-3.7 3.5s-2.3 1.3-3.4 1.3c-.7 0-1.3-.1-2-.4-.7-.3-1.3-.6-1.8-1s-1-.9-1.3-1.5c-.3-.6-.5-1.2-.5-1.9 0-.8.2-2 .7-3.5.5-1.6 1.1-3.3 1.8-5.2.7-1.9 1.6-3.9 2.5-6 .9-2.1 1.8-4 2.6-5.7-1.4 1.5-3 3.2-4.8 5.2-1.8 1.9-3.6 3.9-5.5 6s-3.7 4.1-5.5 6.1c-1.8 2-3.4 3.8-4.8 5.5-1.4 1.6-2.5 3-3.3 4.1-.9 1.1-1.3 1.8-1.3 2.1 0 .4-.2.6-.5.6-.2 0-.5-.1-.8-.3-.3-.2-.6-.4-.8-.7-.3-.3-.5-.7-.7-1.1-.2-.4-.3-.9-.3-1.4 0-.4.3-1.1.8-2.2s1.2-2.3 2.1-3.8c.9-1.5 1.9-3.1 3-5 1.1-1.8 2.2-3.6 3.4-5.5 1.2-1.9 2.3-3.7 3.4-5.5 1.1-1.8 2.1-3.5 3-5 .9-1.5 1.6-2.8 2.1-3.9s.8-1.8.8-2.2c0-.1 0-.2-.1-.3s-.2-.1-.5-.1c-.5 0-1.3.1-2.4.3-1.1.2-2.4.5-3.9.8-1.5.3-3 .8-4.8 1.2l-5.1 1.5c-1.7.5-3.3 1.1-4.9 1.7-1.6.6-3 1.1-4.2 1.7-1.2.6-2.2 1.1-2.9 1.6-.7.5-1.1 1-1.1 1.4 0 .5-.2.8-.5.8-.2 0-.4-.1-.6-.2-.2-.1-.4-.3-.6-.6s-.4-.5-.5-.9-.2-.7-.2-1c0-.6.4-1.1 1.1-1.7.7-.6 1.7-1.2 3-1.8 1.3-.6 2.7-1.2 4.3-1.7 1.6-.6 3.3-1.1 5.1-1.6 1.8-.5 3.5-1 5.3-1.4 1.8-.4 3.4-.8 5-1.1 1.5-.3 2.9-.6 4.1-.7 1.2-.2 2-.3 2.6-.3s1.1.1 1.6.4c.5.2.9.5 1.3.9s.7.8.9 1.3c.2.5.3.9.3 1.4 0 .4-.2 1.1-.7 2.2-.5 1-1.1 2.3-1.9 3.8-.8 1.5-1.7 3.1-2.8 4.8-1 1.8-2.1 3.6-3.2 5.4-1.1 1.8-2.2 3.7-3.2 5.5-1.1 1.8-2 3.5-2.8 5.1 1.3-1.5 2.7-3.2 4.4-5.1 1.6-1.9 3.4-3.8 5.1-5.7 1.8-1.9 3.5-3.9 5.3-5.8 1.8-1.9 3.4-3.6 4.9-5.2 1.5-1.6 2.8-3 3.9-4.1 1.1-1.1 1.9-1.9 2.3-2.4.2-.2.4-.3.8-.3.2 0 .5.1.8.2.3.1.5.3.7.5.2.2.4.4.5.6s.2.4.2.6c0 .2 0 .3-.1.4-.2.2-.5.6-.9 1.3-.4.7-.9 1.5-1.4 2.6-.5 1-1.1 2.2-1.7 3.5-.6 1.3-1.2 2.6-1.8 4.1-.6 1.4-1.2 2.8-1.8 4.3-.6 1.4-1.1 2.8-1.5 4.1-.4 1.3-.8 2.5-1 3.6s-.4 2-.4 2.8c0 .6.1 1 .3 1.3.2.3.4.5.8.5.6 0 1.3-.4 2.2-1.2.9-.8 1.9-1.8 2.9-3.1s2.1-2.8 3.3-4.5c1.1-1.7 2.2-3.5 3.3-5.4 1.1-1.9 2.1-3.8 3.1-5.7 1-1.9 1.8-3.8 2.6-5.5.7-1.7 1.3-3.3 1.8-4.8s.6-2.6.6-3.5c-.2-.7-.3-1.2-.5-1.5zM3 409.5c.2-.2.5-.3.8-.3.2 0 .5.1.7.2.2.1.5.3.7.4s.4.3.5.5.2.3.2.5v.1c-.5.5-1.2 1.4-2 2.6-.9 1.2-1.8 2.6-2.8 4.2-1 1.6-2 3.3-3 5-1 1.8-2 3.4-2.8 4.9-.8 1.5-1.5 2.9-2.1 4s-.8 1.8-.8 2.1c0 .1 0 .1.1.1.2 0 .4-.1.8-.3.3-.2.8-.5 1.2-.8.5-.3.9-.7 1.5-1.2.5-.4 1-.9 1.6-1.3 1.2-1.1 2.5-2.3 4-3.6.2 0 .3.1.5.3.2.2.2.4.2.6 0 .1 0 .3-.1.4l-.9.9-1.6 1.6c-.6.6-1.3 1.3-2.1 1.9-.7.7-1.5 1.3-2.2 1.8-.7.6-1.4 1-2 1.4-.6.4-1.1.6-1.5.6-.7 0-1.3-.2-1.8-.6-.5-.4-.8-1-.8-1.8 0-.4.2-1.2.7-2.2.4-1 1-2.2 1.7-3.5.7-1.3 1.5-2.8 2.4-4.3.9-1.5 1.8-3.1 2.7-4.6-1.1 1.2-2.2 2.5-3.4 3.8-1.2 1.3-2.4 2.6-3.7 3.9-1.2 1.3-2.5 2.5-3.7 3.6-1.2 1.1-2.4 2.1-3.5 3-1.1.9-2.1 1.5-3 2-.9.5-1.7.7-2.4.7-.5 0-1-.1-1.4-.3-.4-.2-.8-.4-1.1-.8-.3-.3-.5-.7-.7-1.1-.2-.4-.3-.9-.3-1.3 0-.6.2-1.3.5-2.1s.8-1.7 1.3-2.6 1.1-1.8 1.8-2.7c.7-.9 1.4-1.7 2.1-2.4.7-.7 1.4-1.3 2-1.7.7-.4 1.2-.7 1.7-.7s.9.1 1.3.3c.4.2.7.4 1 .6.3.3.5.5.6.8.2.3.2.6.2.8 0 .4-.1.9-.3 1.5-.2.6-.5 1.2-1 1.9s-.9 1.3-1.5 2-1.2 1.3-1.9 1.8-1.4 1-2.2 1.4c-.8.4-1.6.6-2.4.6-.1.4-.2.8-.2 1.1 0 .7.3 1 1 1 .5 0 1.2-.3 2.1-.9.9-.6 1.9-1.4 3-2.4s2.4-2.1 3.7-3.4c1.3-1.3 2.6-2.6 4-4.1l3.9-4.2c1.3-1.4 2.5-2.7 3.5-3.9s2-2.3 2.8-3.2c.8-.9 1.4-1.6 1.8-2 .1-.2.2-.3.3-.4.2 0 .2-.1.3-.2zM-16.1 422c-.2 0-.5.2-1 .7-.5.5-1 1.1-1.6 1.9-.6.8-1.2 1.6-1.8 2.5-.6.9-1.2 1.8-1.7 2.7.5 0 1-.2 1.5-.6s1-.8 1.4-1.3c.5-.5.9-1 1.3-1.6.4-.6.7-1.2 1-1.7.3-.5.5-1 .7-1.5.2-.4.3-.8.3-1 0-.1 0-.1-.1-.1z"/>
    <path d="M15.1 426.9c.1-.1.2-.1.3-.1.2 0 .4.1.5.3.1.2.2.4.2.6 0 .2 0 .3-.1.4l-1.1 1.1c-.5.5-1.1 1-1.8 1.6-.7.6-1.5 1.2-2.4 1.9L8 434.5c-1 .5-2 .9-3 1.2s-2 .5-2.9.5c-.5 0-1-.1-1.4-.3-.4-.2-.8-.4-1.1-.8-.3-.3-.5-.7-.7-1.1-.2-.4-.3-.9-.3-1.3 0-.6.2-1.3.5-2.1s.8-1.7 1.3-2.6c.5-.9 1.1-1.8 1.8-2.7.7-.9 1.4-1.7 2.1-2.4.7-.7 1.4-1.3 2-1.7.7-.4 1.2-.7 1.7-.7s.9.1 1.3.3c.4.2.7.4 1 .6.3.3.5.5.6.8.2.3.2.6.2.8 0 .5-.1 1.1-.3 1.7-.2.6-.5 1.2-.8 1.7-.3.5-.7 1-1.1 1.3-.4.4-.8.5-1.2.5-.3 0-.5-.1-.7-.2-.2-.1-.4-.2-.6-.4-.2-.2-.3-.3-.4-.5v-.3c0-.2.1-.3.4-.3.3 0 .6-.2.9-.5.3-.4.6-.8.9-1.3.3-.5.5-1 .7-1.4.2-.5.3-.8.3-1 0-.1 0-.2-.1-.2-.2 0-.4.2-.8.6-.4.4-.8.9-1.3 1.5s-1 1.3-1.5 2.1-1 1.5-1.5 2.3-.8 1.5-1.1 2.2-.4 1.3-.4 1.8c0 .4.1.7.3 1 .2.2.6.3 1 .3.6 0 1.3-.1 2.1-.4.8-.3 1.5-.7 2.3-1.1.8-.5 1.5-1 2.3-1.5.8-.5 1.4-1.1 2.1-1.6.6-.5 1.2-1 1.6-1.4.4-.5.7-.8.9-1z"/>
    <path d="M29.9 426.8c.1-.1.1-.1.2-.1.2 0 .4.1.5.3.2.2.2.4.2.6 0 .3-.2.6-.7.9-.5.3-1.1.6-1.8.9-.7.3-1.5.5-2.4.7-.9.2-1.8.4-2.6.5-.4.7-.9 1.4-1.4 2-.5.7-1.1 1.3-1.7 1.8-.6.5-1.2 1-1.9 1.3-.7.3-1.3.5-2 .5s-1.3-.1-1.8-.3c-.5-.2-.9-.4-1.2-.7-.3-.3-.5-.6-.7-1s-.2-.8-.2-1.2c0-.2.1-.6.2-.9.1-.4.3-.8.5-1.2.2-.4.4-.9.6-1.3.2-.4.4-.8.7-1.1-.1-.3-.2-.6-.2-1.1 0-.6.2-1.2.7-1.9.5-.7 1.1-1.3 1.8-1.8s1.5-1 2.3-1.4c.8-.4 1.5-.5 2.2-.5.6 0 1.2.1 1.8.4.5.3 1 .6 1.3 1.1s.6.9.8 1.4c.2.5.3 1 .3 1.4 0 .3-.1.6-.2 1.1-.2.5-.4 1-.6 1.6 1.2-.1 2.2-.4 3.2-.7.9-.4 1.7-.8 2.1-1.3zm-14.1 7.7c.4 0 1-.4 1.7-1.1.7-.7 1.4-1.6 2.2-2.6-.6 0-1.2-.1-1.8-.2-.5-.1-1-.2-1.5-.4-.3.5-.5 1.1-.7 1.8-.2.7-.3 1.2-.3 1.7s.1.8.4.8zm6.5-10.9c-.7 0-1.4.1-2.1.4-.7.3-1.3.6-1.9 1s-1 .8-1.4 1.2c-.4.4-.5.8-.5 1 0 .3.1.5.4.7.2.2.6.4 1 .5.4.1.9.2 1.5.3.6.1 1.2.1 1.8.2.6-.9 1-1.8 1.4-2.6s.5-1.5.5-2c-.1-.5-.3-.7-.7-.7z"/>
    <path d="M55.5 427c.1-.1.2-.1.3-.1.2 0 .3.1.5.3s.2.4.2.6c0 .1 0 .3-.1.4l-.8.8c-.4.4-.9.9-1.5 1.4-.6.5-1.2 1.1-1.9 1.6-.7.6-1.3 1.1-2 1.5-.7.5-1.3.9-1.9 1.2-.6.3-1.1.5-1.5.5-.7 0-1.3-.3-1.8-.8-.5-.6-.8-1.2-.8-2 0-.3.1-.8.2-1.3s.3-1.1.5-1.7c.2-.6.4-1.2.7-1.9.2-.6.5-1.2.7-1.8-.7.5-1.5 1.1-2.3 1.8-.8.7-1.5 1.4-2.2 2.2-.7.7-1.3 1.4-1.7 2.1-.5.6-.7 1.1-.7 1.4 0 .4-.2.6-.7.6-.2 0-.5-.1-.7-.2-.3-.1-.5-.3-.7-.5-.2-.2-.4-.5-.6-.8s-.2-.7-.2-1.2c0-.2.1-.6.2-1.1.1-.5.3-1 .6-1.7.2-.6.5-1.3.8-2 .3-.7.6-1.3.9-2-.6.5-1.2 1.1-1.8 1.8-.6.7-1.3 1.4-1.9 2.2-.6.7-1.2 1.5-1.8 2.2-.6.7-1.1 1.4-1.6 2.1-.5.6-.8 1.2-1.1 1.7-.3.5-.4.8-.4 1 0 .5-.2.8-.6.8-.2 0-.5-.1-.7-.2-.3-.1-.5-.3-.7-.6-.2-.3-.4-.6-.6-1s-.2-.8-.2-1.2c0-.2.1-.6.3-1.2.2-.6.5-1.2.8-2s.7-1.5 1.1-2.3c.4-.8.8-1.5 1.3-2.2.4-.6.9-1.2 1.3-1.6.4-.4.8-.6 1.1-.6.2 0 .5.1.7.2s.5.3.7.4.4.3.5.5c.1.2.2.3.2.5 0 0 0 .1-.1.1-.6.6-1.1 1.3-1.7 2.1s-1.2 1.7-1.7 2.7c.9-1.1 1.8-2.2 2.8-3.2 1-1.1 2-2 3-2.9.9-.9 1.8-1.6 2.5-2.1s1.2-.8 1.4-.8.5.1.7.2.5.3.7.4c.2.2.4.3.5.5.1.2.2.3.2.5v.1c-.2.2-.4.5-.7.9-.3.4-.5.9-.8 1.5l-.9 1.8c-.3.7-.6 1.3-.8 2 .7-.7 1.4-1.4 2.2-2.1.8-.7 1.6-1.3 2.3-1.9s1.4-1 2-1.3c.6-.3 1-.5 1.3-.5.2 0 .5.1.7.2s.5.3.7.4c.2.2.4.3.5.5.1.2.2.3.2.5 0 0 0 .1-.1.1-.2.2-.5.7-.8 1.3-.3.6-.6 1.3-.9 2.1-.3.8-.5 1.5-.7 2.2-.2.7-.3 1.3-.3 1.8s.1.7.3.7c.2 0 .5-.1.8-.4s.8-.6 1.3-.9c.5-.4 1-.8 1.6-1.3.6-.5 1.1-.9 1.6-1.4s1-.8 1.3-1.2c.3 0 .6-.2.8-.4z"/>
    <path d="M69.3 426.8c.1-.1.2-.1.3-.1.2 0 .4.1.5.3.1.2.2.4.2.6 0 .2 0 .3-.1.4l-1.1 1.1c-.5.5-1.1 1-1.8 1.7s-1.5 1.2-2.4 1.9l-2.7 1.8c-.9.5-1.9 1-2.9 1.3-1 .3-2 .5-2.9.5-.5 0-1-.1-1.4-.3-.4-.2-.8-.4-1.1-.8-.3-.3-.5-.7-.7-1.1-.2-.4-.3-.9-.3-1.3 0-.6.2-1.3.5-2.1s.8-1.7 1.3-2.6c.5-.9 1.1-1.8 1.8-2.7.7-.9 1.4-1.7 2.1-2.4.7-.7 1.4-1.3 2-1.7.7-.4 1.2-.7 1.7-.7s.9.1 1.3.3c.4.2.7.4 1 .6.3.3.5.5.6.8.2.3.2.6.2.8 0 .6-.2 1.4-.7 2.4-.5.9-1.1 1.9-1.9 2.8-.8.9-1.7 1.8-2.8 2.5-1.1.7-2.2 1.2-3.3 1.4v.4c0 .9.5 1.3 1.4 1.3.6 0 1.3-.1 2.1-.4s1.5-.7 2.3-1.1 1.5-1 2.3-1.5c.8-.6 1.4-1.1 2.1-1.6.6-.5 1.2-1 1.6-1.4.3-.6.6-.9.8-1.1zm-6-4.8c-.2 0-.5.2-1 .7-.5.5-1 1.1-1.6 1.9-.6.8-1.2 1.6-1.8 2.5-.6.9-1.1 1.8-1.5 2.7.5-.1 1-.3 1.5-.6.5-.4 1-.8 1.4-1.3.4-.5.9-1 1.2-1.6.4-.6.7-1.1 1-1.7l.7-1.4c.2-.4.2-.7.2-.9 0-.2 0-.3-.1-.3z"/>
</svg>
