<svg xmlns="http://www.w3.org/2000/svg" viewBox="0 0 305.745 45.072">
  <path d="M154.403 2.269c-.168-.145-.252-.288-.252-.433 0-.144.096-.258.288-.342a1.8 1.8 0 01.72-.126c.312 0 .66.061 1.044.18.383.121.744.312 1.08.576.336.265.618.612.846 1.044.228.433.342.96.342 1.584 0 .504-.21 1.386-.63 2.646-.42 1.26-.996 2.748-1.728 4.464-.732 1.716-1.602 3.594-2.61 5.634s-2.088 4.08-3.24 6.12a99.75 99.75 0 01-3.618 5.922c-1.26 1.908-2.52 3.6-3.78 5.076-1.26 1.476-2.496 2.658-3.708 3.546s-2.346 1.332-3.402 1.332c-.672 0-1.344-.126-2.016-.378s-1.272-.594-1.8-1.026a5.207 5.207 0 01-1.278-1.529 3.926 3.926 0 01-.486-1.927c0-.792.234-1.974.702-3.546a69.828 69.828 0 011.818-5.237 147.93 147.93 0 012.466-5.958c.9-2.053 1.77-3.966 2.61-5.742a720.128 720.128 0 00-4.806 5.184 1117.76 1117.76 0 00-5.472 5.994 1587.16 1587.16 0 00-5.472 6.066 222.047 222.047 0 00-4.752 5.453c-1.38 1.645-2.497 3.024-3.348 4.141-.852 1.116-1.278 1.817-1.278 2.105 0 .408-.18.612-.54.612-.216 0-.474-.09-.774-.27a3.592 3.592 0 01-.846-.721c-.264-.3-.492-.66-.684-1.08a3.208 3.208 0 01-.288-1.35c0-.384.264-1.104.792-2.16s1.224-2.334 2.088-3.834a182.508 182.508 0 012.97-4.95 2527.858 2527.858 0 006.804-11.052 194.202 194.202 0 002.97-5.004 70.278 70.278 0 002.088-3.888c.527-1.08.792-1.824.792-2.232 0-.12-.036-.21-.108-.27-.072-.06-.24-.091-.504-.091-.504 0-1.308.103-2.412.307s-2.388.48-3.852.828-3.048.756-4.752 1.224-3.408.972-5.112 1.512c-1.705.54-3.342 1.099-4.914 1.675a53.623 53.623 0 00-4.176 1.71c-1.212.563-2.178 1.11-2.898 1.638-.72.528-1.08 1.008-1.08 1.439 0 .505-.18.757-.54.757-.168 0-.36-.072-.576-.217a2.732 2.732 0 01-.612-.575 3.31 3.31 0 01-.486-.864 2.834 2.834 0 01-.198-1.044c0-.552.372-1.128 1.116-1.729.744-.6 1.746-1.193 3.006-1.781a48.17 48.17 0 014.338-1.746 98.812 98.812 0 015.094-1.639 128.098 128.098 0 0110.242-2.538 85.036 85.036 0 014.068-.737c1.176-.181 2.04-.271 2.592-.271s1.08.12 1.584.36.948.546 1.332.918c.384.372.689.798.918 1.278.228.479.342.948.342 1.403 0 .408-.246 1.134-.738 2.179a70.271 70.271 0 01-1.944 3.762 214.378 214.378 0 01-2.754 4.842 1440.33 1440.33 0 01-3.186 5.418 555.533 555.533 0 00-3.222 5.526 169.366 169.366 0 00-2.844 5.13 317.66 317.66 0 014.383-5.076 466.418 466.418 0 015.122-5.724 860.844 860.844 0 015.285-5.761c1.755-1.896 3.377-3.642 4.865-5.237a423.571 423.571 0 013.872-4.104 180.013 180.013 0 012.322-2.394c.192-.192.444-.288.756-.288.24 0 .492.066.756.198a3.33 3.33 0 011.26 1.097c.144.216.216.42.216.612 0 .168-.048.3-.144.396-.192.192-.486.63-.882 1.314a53.482 53.482 0 00-1.386 2.592 147.778 147.778 0 00-3.546 7.56c-.612 1.404-1.2 2.826-1.764 4.267a77.044 77.044 0 00-1.494 4.14 46.729 46.729 0 00-1.044 3.636c-.264 1.104-.396 2.028-.396 2.772 0 .552.084.99.251 1.313.167.324.443.486.827.486.599 0 1.347-.384 2.246-1.152.898-.768 1.869-1.806 2.911-3.113a63.213 63.213 0 003.252-4.519 98.047 98.047 0 003.306-5.382 131.492 131.492 0 003.09-5.724 90.674 90.674 0 002.587-5.509c.743-1.739 1.33-3.329 1.761-4.77s.647-2.604.647-3.492c.001-.692-.131-1.173-.395-1.436zM180.395 27.828c.072-.072.144-.108.216-.108.192 0 .366.108.522.324.156.216.234.433.234.648 0 .168-.048.3-.144.396-.144.145-.42.408-.828.792-.408.385-.9.834-1.476 1.351a60.97 60.97 0 01-1.89 1.62 35.921 35.921 0 01-2.016 1.548c-.66.468-1.278.858-1.854 1.17s-1.056.468-1.44.468a2.375 2.375 0 01-1.854-.828c-.492-.552-.738-1.212-.738-1.979 0-.312.048-.696.144-1.152.096-.456.228-.941.396-1.458.168-.516.348-1.056.54-1.62.192-.563.396-1.109.612-1.638a35.475 35.475 0 00-2.718 2.357 54.106 54.106 0 00-2.718 2.772 32.203 32.203 0 00-2.106 2.538c-.564.769-.846 1.32-.846 1.656 0 .456-.18.684-.54.684-.192 0-.414-.077-.666-.234a2.816 2.816 0 01-.702-.63 3.758 3.758 0 01-.558-.972 3.298 3.298 0 01-.234-1.26c0-.408.144-1.014.432-1.818.288-.804.672-1.674 1.152-2.61a63.556 63.556 0 01-2.43 1.891 30.274 30.274 0 01-2.448 1.638c-.804.48-1.566.864-2.286 1.152-.72.288-1.368.432-1.944.432-.864 0-1.536-.216-2.016-.647-.48-.433-.72-1.08-.72-1.944 0-.456.149-1.05.45-1.782.3-.731.648-1.47 1.044-2.214.396-.743.797-1.422 1.206-2.034.408-.612.708-1.014.9-1.206.216-.216.492-.324.828-.324.264 0 .54.061.828.181s.546.27.774.45c.228.18.414.359.558.54.144.18.216.33.216.449 0-.048-.175.175-.522.666a22.756 22.756 0 00-1.134 1.801 36.517 36.517 0 00-1.134 2.124c-.348.708-.522 1.254-.522 1.638 0 .265.108.396.324.396.288 0 .708-.149 1.26-.449.552-.3 1.175-.685 1.872-1.152a44.697 44.697 0 002.196-1.584 95.549 95.549 0 002.214-1.746c.708-.576 1.362-1.116 1.962-1.62.6-.504 1.068-.912 1.404-1.224.288-.216.486-.384.594-.504s.294-.181.558-.181c.24 0 .48.061.72.181.239.12.461.264.666.432.204.168.365.349.486.54.12.192.18.348.18.468 0 .072-.013.12-.036.145-.625.624-1.272 1.398-1.944 2.321a17.57 17.57 0 00-1.764 3.042 38.147 38.147 0 012.664-2.754 54.558 54.558 0 012.844-2.502c.912-.743 1.728-1.35 2.448-1.817.72-.469 1.224-.702 1.512-.702.24 0 .48.06.72.18s.456.265.648.432c.192.169.348.343.468.522s.18.33.18.45c0 .071-.012.12-.036.144-.24.24-.51.679-.81 1.314-.3.636-.588 1.332-.864 2.088a20.876 20.876 0 00-.684 2.25c-.18.744-.27 1.332-.27 1.764 0 .456.108.685.324.685.167 0 .45-.12.846-.36a15.34 15.34 0 001.35-.937c.504-.383 1.038-.81 1.602-1.277a73.703 73.703 0 001.602-1.368c.504-.443.954-.846 1.35-1.206s.678-.631.846-.799zm-21.312-7.164c0 .288-.192.432-.576.432-.336 0-.696-.119-1.08-.359-.384-.24-.576-.552-.576-.937 0-.623.114-1.313.342-2.069.228-.756.516-1.458.864-2.106a8.063 8.063 0 011.134-1.638c.408-.444.792-.666 1.152-.666s.714.107 1.062.324c.348.216.666.474.954.773.288.301.516.618.684.954.168.337.252.624.252.864 0 .336-.18.504-.54.504-.265 0-.606.162-1.026.486-.42.323-.828.708-1.224 1.151-.396.444-.732.882-1.008 1.314-.276.433-.414.757-.414.973z"/>
  <path d="M194.219 27.972a.348.348 0 01.252-.107c.192 0 .36.103.504.306.144.204.216.414.216.63a.532.532 0 01-.144.396c-.216.216-.576.57-1.08 1.062-.504.492-1.11 1.044-1.818 1.656s-1.494 1.236-2.358 1.872a27.742 27.742 0 01-2.718 1.764c-.949.54-1.92.979-2.916 1.314a9.149 9.149 0 01-2.934.504c-.504 0-.966-.096-1.386-.288a3.463 3.463 0 01-1.08-.756c-.301-.312-.54-.678-.72-1.098s-.27-.858-.27-1.314c0-.576.162-1.278.486-2.105.324-.828.756-1.692 1.296-2.593.54-.899 1.146-1.8 1.818-2.699.671-.9 1.355-1.704 2.052-2.412.696-.708 1.374-1.284 2.034-1.729.66-.443 1.229-.666 1.71-.666.456 0 .876.085 1.26.252.384.168.708.378.972.63s.474.528.63.828c.156.301.234.57.234.811 0 .624-.234 1.41-.702 2.357-.468.948-1.098 1.891-1.89 2.826a14.697 14.697 0 01-2.772 2.521c-1.056.744-2.172 1.2-3.348 1.367a.818.818 0 01-.018.162.77.77 0 00-.018.162c0 .889.468 1.332 1.404 1.332.624 0 1.314-.144 2.07-.432.756-.288 1.518-.66 2.286-1.116s1.53-.96 2.286-1.512a42.945 42.945 0 004.662-3.925zm-5.976-4.787c-.192 0-.535.246-1.026.737a20.286 20.286 0 00-1.62 1.872 38.823 38.823 0 00-1.782 2.502c-.6.913-1.092 1.8-1.476 2.664.48-.072.966-.288 1.458-.647.492-.36.96-.786 1.404-1.278.444-.491.858-1.026 1.242-1.602.384-.576.72-1.135 1.008-1.675s.51-1.02.666-1.439c.156-.42.234-.726.234-.918 0-.145-.037-.216-.108-.216z"/>
  <path d="M208.727 27.937c.383 0 .684.102.9.306.216.204.324.402.324.594 0 .24-.132.36-.396.36-.48 0-1.074.09-1.782.27a22.34 22.34 0 00-2.304.738 37.48 37.48 0 00-2.592 1.098c-.9.421-1.782.858-2.646 1.314.312.384.563.769.756 1.152.192.384.288.756.288 1.115 0 .696-.265 1.339-.792 1.927a8.056 8.056 0 01-1.872 1.529c-.72.433-1.46.774-2.22 1.026s-1.377.378-1.851.378a2.34 2.34 0 01-1.023-.252 4.243 4.243 0 01-.954-.63c-.288-.252-.522-.54-.702-.864s-.27-.642-.27-.954c0-.359.138-.737.414-1.134.275-.396.648-.792 1.116-1.188a16.122 16.122 0 011.647-1.205c.63-.408 1.301-.805 2.013-1.188a42.026 42.026 0 01-.871-1.062 13.11 13.11 0 01-.8-1.116c-.238-.372-.433-.732-.587-1.08s-.231-.678-.231-.99c0-.36.136-.786.409-1.278a9.4 9.4 0 011.067-1.512c.439-.516.938-1.025 1.5-1.53.56-.504 1.129-.953 1.705-1.35.576-.396 1.14-.72 1.692-.972s1.032-.378 1.44-.378c.456 0 .875.084 1.26.252.384.168.72.372 1.008.611.288.24.51.511.666.811s.234.57.234.81c0 .504-.103 1.057-.306 1.656a8.998 8.998 0 01-.774 1.692 5.723 5.723 0 01-1.062 1.332c-.396.359-.787.54-1.17.54-.265 0-.504-.055-.72-.162a2.396 2.396 0 01-.558-.378 1.968 1.968 0 01-.378-.469.948.948 0 01-.144-.468c0-.216.12-.324.36-.324.264 0 .563-.174.9-.521.335-.348.653-.756.954-1.225.3-.468.552-.923.756-1.367.204-.444.306-.762.306-.954 0-.096-.036-.145-.108-.145-.48 0-1.062.252-1.746.756-.684.504-1.35 1.093-1.998 1.765s-1.201 1.338-1.656 1.998c-.456.66-.684 1.146-.684 1.458 0 .288.18.647.54 1.08.36.432.78.899 1.26 1.403a69.941 69.941 0 013.06-1.296 52.32 52.32 0 012.862-1.044c.876-.288 1.65-.516 2.322-.684s1.149-.251 1.438-.251zm-10.369 6.551c0-.096-.108-.312-.324-.648-1.272.744-2.328 1.435-3.168 2.07-.84.636-1.26 1.11-1.26 1.422 0 .048.048.072.144.072.192 0 .54-.102 1.044-.306s1.02-.456 1.548-.757c.528-.3.996-.617 1.404-.954.408-.334.612-.634.612-.899z"/>
</svg>
