<svg xmlns="http://www.w3.org/2000/svg" viewBox="0 0 623.622 623.622">
  <style>
    .st2,.st3{fill:#fff;stroke:red;stroke-width:4;stroke-miterlimit:10}.st3{fill:none;stroke:#000;stroke-width:2;stroke-linecap:round;stroke-linejoin:round}
  </style>
  <g id="Layer_1_copy_2">
    <circle cx="309.498" cy="314.44" r="283.881" fill="#74d4fb" stroke="#000" stroke-linecap="round" stroke-linejoin="round" stroke-miterlimit="10" stroke-width="2"/>
    <path fill="#fff" stroke="#000" stroke-linecap="round" stroke-linejoin="round" stroke-miterlimit="10" stroke-width="2" d="M262.976 34.354c10.26 17.403 21.549 37.777 31.809 55.18 5.847 9.918 11.611 19.916 16.42 30.388 3.347 7.287 6.365 14.757 9.457 22.146a127.124 127.124 0 017.231 23.379c.399 1.934.751 3.951.272 5.867-.479 1.914-1.737 3.524-2.962 5.071l-8.14 10.273c-1.198 1.512-2.664 2.986-3.447 4.755-.535 1.209-.527 2.552-2.349 2.188 2.892 3.784-.232 7.365-2.48 10.518-.86 1.206-1.706 2.621-2.831 3.582-1.421 1.212-2.608 1.608-3.06 3.702-.392 1.819-.148 3.723-.477 5.554-.329 1.831-1.522 3.752-3.371 3.964-1.934.221-4.18-1.424-5.64-.137-1.316 1.161-.422 3.515-1.445 4.941-1.162 1.619-3.638.903-5.63.885-2.24-.02-4.454 1.173-5.671 3.054-1.526 2.36-.775 4.117-.342 6.544.502 2.807-.568 6.514-.885 9.359l22.909 1.301c18.021 8.649 28.448 30.691 23.705 50.11s-24.159 34.17-44.139 33.536c-10.123-.321-20.628-4.069-30.08-.432-8.224 3.163-13.404 11.09-19.545 17.408-6.141 6.318-15.714 11.464-23.476 7.293l-1.003 7.424-21.738 3.774c2.752 10.441-2.316 21.057-9.554 28.427-1.891 1.925-3.96 3.643-6.154 5.21-2.239 1.599-3.94 2.176-6.571 3.015a42.61 42.61 0 00-14.725 8.205 41.492 41.492 0 00-3.193 3.041c-1.287-2.521-4.676-3.326-7.405-2.576s-4.958 2.667-7.121 4.492-4.479 3.671-7.254 4.229c-2.574.518-5.293.047-7.902.168-2.96.137-5.894.868-8.57 2.142-.973.463-1.968 1.055-2.437 2.025-.36.744-.357 1.602-.484 2.418-.476 3.041-3.565 3.288-3.856 6.14-.126 1.241.026 2.566-.553 3.671-1.363 2.599-8.432 3.024-3.449 5.485-.263 1.439-1.783 2.253-2.582 3.478-1.223 1.873-1.038 6.016-.992 8.265a38.279 38.279 0 001.063 8.114c.272 1.137.762 2.292.89 3.446.144 1.298-.129 2.588.171 3.91.288 1.27.933 2.508 2.006 3.247.627.432 1.373.677 1.978 1.141 1.332 1.02 1.702 2.828 2.119 4.453.64 2.497 1.666 2.964 3.566 4.23 2.035 1.356 3.751 3.642 5.587 5.289 2.217 1.99 4.765 2.584 7.587 3.535l19.598 6.604 11.025 3.715c6.006 2.024 12.015 4.05 18.115 5.776 4.371 1.237 8.875 1.88 13.36 2.536 4.207.615 8.169 2.212 12.464 1.051.74-.2 1.484-.463 2.249-.418 1.682.098 2.883 1.587 4.242 2.583 2.877 2.109 9.802 2.371 11.148-1.669 1.7.424 3.388 1.21 5.042 1.828l5.638.29c3.228 1.77 6.522 1.381 10.002 1.831 3.923.507 7.955.4 11.914.503 4.706.122 9.836-.31 14.46.587 4.035.783 8.127-.418 12.162-1.076 2.456-.401 4.95-.802 7.42-.507l20.032 1.333c2.388 2.016 5.933 1.518 8.998.907l.542 4.937c.001-2.426 1.995-4.692 4.401-5.002 2.481-.32 4.773 1.188 7.095 2.119 3.071 1.231 6.525 1.448 9.739.683 3.065-.729 5.447-2.696 8.706-2.831 3.025-.125 6.168-1.061 9.15-1.645l21.406-4.174c3.886-.758 9.405-1.042 12.806-3.146 3.294-2.038 5.983-4.786 9.632-6.382 5.114-2.237 10.507-1.698 15.731-3.099 2.222-.596 3.999-1.442 6.388-1.661 2.136-.195 4.341-.25 6.312-1.196 3.376-1.62 5.095-5.365 7.745-8.012 3.184-3.181 7.628-4.687 11.903-6.093l12.629-4.152c3.061-1.006 7.134-1.621 9.73-3.63 5.028-3.888 6.295-10.351 8.57-15.869.855-2.073 2.295-3.682 3.267-5.637 1.123-2.259 1.893-4.829 2.903-7.163 1.043-2.411 2.167-4.786 3.291-7.161l1.391-2.939c.461-.975.923-1.95 1.453-2.889 1.094-1.939 2.646-4.382 4.562-5.601 1.662-1.058 3.463-1.695 5.044-3.005 3.171-2.626 5.618-6.132 6.938-10.035.994-2.94 1.371-6.08 2.588-8.935 1.897-4.451 5.642-7.802 9.273-10.998 1.381-1.216 3.022-2.515 4.843-2.245 1.627.242 2.813 1.673 4.351 2.257 2.583.98 5.818-1.144 5.946-3.904s-2.897-5.173-5.56-4.436c-1.811.501-3.238 2.137-5.112 2.267-1.699.118-3.336-1.211-3.707-2.873-.371-1.662.46-3.483 1.883-4.419 1.293-.851 3.053-1.097 3.932-2.372.812-1.177.415-3.006-.812-3.74-1.227-.734-3.026-.22-3.679 1.052-.524 1.02-.377 2.364-1.161 3.201-.703.751-1.935.778-2.866.341-.932-.437-1.634-1.237-2.307-2.015-2.304-2.662-5.012-4.977-7.234-7.609-3.04-3.603-4.315-7.857-5.993-12.155-1.484-3.802.172-8.074-2.382-11.637-.784-1.093-1.86-1.98-2.469-3.179-1.49-2.936.194-6.253.554-9.246.341-2.836-.94-6.219-1.724-8.957-.979-3.422-4.081-6.625-5.54-9.966a45.57 45.57 0 01-3.293-11.354c-1.256-8.241-.229-16.652-.714-24.974-.424-7.286-1.409-16.075-6.233-21.881-3.258-3.921-12.742-7.22-14.515.019-.642 2.62.25 5.345 1.132 7.894l2.503 7.239c-1.898.386-2.536 2.731-2.799 4.65l-1.297 9.477c-.241 1.764-.469 3.635.248 5.265.71 1.615 2.22 2.704 3.38 4.034 2.046 2.346 3.013 5.598 2.582 8.682-.432 3.083-2.254 5.945-4.866 7.639-1.759 1.141-3.914 1.834-5.141 3.534-1.304 1.807-1.185 4.321-.376 6.397.81 2.076 2.211 3.856 3.404 5.737 1.199 1.891 2.457 4.623 2.803 6.848.383 2.458-.394 4.512 1.07 6.855 1.253 2.004 3.458 3.382 5.809 3.629.69.072 1.412.058 2.037.359s1.105 1.063.808 1.69c-.258.543-.933.716-1.524.827-2.962.554-5.95 1.11-8.963 1.044-3.013-.066-6.092-.802-8.504-2.608-1.488-1.114-2.785-2.655-4.602-3.052-1.966-.429-3.969.621-5.978.515-2.376-.124-4.342-1.806-6.108-3.4l-4.164-3.759c-2.034-1.837-4.658-3.809-7.249-2.916-.491-1.808-2.93-2.038-4.798-1.893-2.231.173-5.566-.197-7.641.608-1.596.619-2.469 2.982-4.433 2.782-1.141-.116-1.975-1.458-1.573-2.532.485-1.299 2.193-1.705 2.928-2.881.783-1.253.176-2.964-.869-4.009-1.044-1.045-2.439-1.65-3.653-2.491-3.237-2.241-5.107-6.314-4.694-10.229.243-2.302 1.18-4.761.119-6.819-.758-1.471-2.355-2.304-3.38-3.604-2.035-2.579-1.449-6.395-2.96-9.313-1.003-1.937-2.867-3.316-4.878-4.159-1.667-.699-3.493-.873-5.14-1.597-1.105-.486-1.944-1.106-3.164-1.338-3.475-.661-7.245.211-10.748.251-1.327.015-2.867-.07-3.65-1.141-.85-1.162-.308-2.815.457-4.035.765-1.22 1.764-2.427 1.779-3.867.025-2.314-2.402-3.808-3.477-5.856-1.49-2.839-.205-6.299 1.256-9.153 2.267-4.431 4.951-8.659 6.837-13.265 1.886-4.606 2.945-9.739 1.779-14.577-.419-1.738-1.122-3.518-.706-5.256.332-1.389 1.33-2.507 2.293-3.561l4.265-4.669a57.562 57.562 0 007.493-10.233l10.33-4.844c1.62 2.738 5.15 2.837 7.789 1.664 3.043-1.352 4.196-3.641 4.23-6.774.937-.133 1.624.599 2.539.801.823.181 1.787-.015 2.287-.693.752-1.021.134-2.469.35-3.718.471-2.717 3.185-2.735 5.122-2.2 3.102.856 6.342 1.354 9.497 1.998.599.122 1.32.208 1.733-.243.459-.502.212-1.304-.108-1.904-.579-1.086-1.327-2.088-1.761-3.239-.434-1.151-.501-2.543.235-3.53.596-.799 1.62-1.187 2.615-1.243 3.761-.212 8.382.966 11.506 3.115 1.213.835 6.741 5.911 6.346 7.175l4.184-13.404c.441-1.414 1.039-3.003 2.42-3.539 1.107-.43 2.337-.023 3.498.23 3.93.855 7.273-.328 10.613-2.282 3.452-2.02 7.709-3.147 11.471-4.574l8.122 9.607c-13.856 14.426-23.342 32.994-26.912 52.675l37.606 16.303c-.119-5.993 5.801-11.368 11.755-10.673l-3.965-12.083c-3.262 4.353-10.927 4.141-13.943-.387s-.26-11.682 5.013-13.016c6.203-1.569 11.695 3.815 17.16 7.144s15.227 2.568 15.276-3.83l5.724-10.951 8.675-1.556c-4.256-6.411 4.293-16.221 11.226-12.882 2.322-5.713-6.537-10.409-12.049-7.644s-8.21 8.939-11.835 13.927c-3.625 4.988-10.325 9.289-15.66 6.197 1.113-6.644 7.26-12.088 13.989-12.392-.75-3.678-4.924-6.26-8.55-5.289 1.861-6.006 12.523-5.583 13.902.552 1.381-8.968-3.871-18.545-12.176-22.2-4.212-1.854-9.116-2.134-13.551-.95-1.925.514-3.127 1.728-4.829 2.7-2.099 1.199-4.224 2.355-6.336 3.532-.979.546-2.015 1.15-2.505 2.158-.491 1.007-.094 2.512 1.005 2.731l.261-.394c.193.857.387 1.738.251 2.606-.136.868-.681 1.73-1.524 1.976-1.075.314-2.145-.433-3.017-1.136l-10.473-8.439c-.804-.648-1.656-1.37-1.894-2.375-.533-2.252 2.836-2.418 4.233-3.001 2.424-1.012 4.85-2.019 7.276-3.028l14.551-6.056c9.828-4.09 21.657-8.181 31.485-12.271 0 0-27.834-46.802-101.619-84.203-86.396-43.796-171.744-25.251-171.744-25.251z"/>
    <path d="M319.229 273.814c-29.58 0-53.503 23.923-53.503 53.503 0 40.127 53.503 99.362 53.503 99.362s53.503-59.235 53.503-99.362c-.002-29.58-23.925-53.503-53.503-53.503zm0 72.609c-10.547 0-19.108-8.559-19.108-19.108 0-10.547 8.559-19.108 19.108-19.108 10.549 0 19.108 8.562 19.108 19.108-.002 10.549-8.561 19.108-19.108 19.108zM178.75 264.487c-29.58 0-53.503 23.923-53.503 53.503 0 40.127 53.503 99.361 53.503 99.361s53.503-59.235 53.503-99.361c-.003-29.58-23.926-53.503-53.503-53.503zm0 72.609c-10.547 0-19.108-8.559-19.108-19.108 0-10.547 8.559-19.108 19.108-19.108 10.549 0 19.108 8.562 19.108 19.108-.003 10.549-8.562 19.108-19.108 19.108z" class="st2"/>
  </g>
  <g id="Layer_1_copy">
    <path d="M403.304 170.99c-2.051 0-4.45.032-4.474.032-.4-.023-3.833-.253-4.294-1.252-.068-.149-1.013-1.705.827-3.735l2.116-2.335 1.726-1.726h1.71l.511-1.387h1.755c.109-.288.414-1.272-.102-2.19-.677-1.204-.042-3.861-.015-3.974-.001-.015.269-3.88-.995-5.495-1.305-1.668-4.36-5.016-5.375-5.813-2.401-1.887-3.406-3.582-2.992-5.042-2.032-2.3-9.998-9.559-10.079-9.633l-4.812-4.083c-4.393-2.835-12.984-8.263-13.942-8.433-.615-.108-1.813-.38-2.87-.62-.975-.221-2.081-.472-2.213-.472-.111 0-.211-.089-.574-.432-.984-.928-3.597-3.394-7.458-3.509-1.44-.043-3.029-.065-4.723-.065-2.746 0-4.885.058-5.102.064-.765.217-6.704 1.9-7.225 1.9l-.058-.006c-.103-.026-.198-.124-.355-.287-.368-.381-1.053-1.091-2.213-1.091-.296 0-.609.046-.932.137a2.358 2.358 0 01-.633.094c-1.355 0-1.839-1.442-2.128-2.304-.09-.269-.203-.605-.278-.655-.471-.314-5.601-6.12-6.099-6.903-.49-.77-1.032-2.227-1.102-2.418-.254-.357-3.447-4.848-4.229-6.198-.824-1.423-4.374-5.891-5.066-6.375-.737-.516-.612-2.632-.577-3.069l-.793-1.081-.005-.037c-.13-1.006-.362-2.172-.512-2.301-.359-.178-.2-1.004-.142-1.253l.03-.131 2.175.322.731 1.317c.063.01.17.023.299.023.392 0 .909-.118 1.15-.68.087-.202.092-.366.016-.501-.209-.369-.982-.475-1.354-.527l-.081-.011c-.808-.115-1.081-1.914-1.146-2.463-.135-1.146-.396-1.446-.399-1.449-.235-.174-1.5-1.15-1.5-1.706 0-.515.439-3.404 2.38-3.792a6.12 6.12 0 011.2-.111c1.038 0 2.087.214 3.013.403.416.085.809.165 1.164.218 1.513.227 2.544 2.039 2.587 2.116l.017.047.209 1.254 1.338.967-.146.875.525.375-.456 1.367c.042.101.173.351.44.351.158 0 .345-.083.557-.246.204-.157.493-.392.841-.675 1.251-1.018 3.344-2.72 5.015-3.642.624-.344 1.166-.519 1.61-.519.873 0 1.074.651 1.082.678.006.038.137 1.158.719 1.158.218 0 .485-.142.795-.422.399-.361.797-.545 1.183-.545.819 0 1.303.809 1.425 1.042l1.942.58c.021.012 2.098 1.225 2.93 1.294.168.014.408.028.702.045 1.285.075 3.437.2 5.158.615 1.395.337 2.783.903 3.897 1.359.611.25 1.138.465 1.588.615.406.135 1.136.306 1.981.503 2.373.554 4.212 1.018 4.519 1.531.277.461.851.49 1.996.548.461.024.985.05 1.615.111 1.741.168 2.254.559 2.405.783.706-.136 4.557-.87 5.812-1.002 1.306-.138 3.326-.478 4.659-.728.263-.049.686-.112 1.222-.19 1.82-.268 4.865-.715 6.034-1.328.674-.353 4.288-2.414 9.297-8.357 4.294-5.094 12.361-7.641 13.758-7.641.689 0 2.051.62 3.494 1.277 1.194.543 2.429 1.106 3.095 1.206 1.077.162 2.572.787 3.56 1.201.373.156.668.279.843.338.282.094.823.434 1.45.827.875.549 1.964 1.233 2.548 1.358.171.037.418.084.715.14 1.479.281 4.231.804 5.109 1.493 1.002.787 2.883 1.875 2.902 1.886.007 0 2.893 1.008 3.675 1.15.43.078 1.238.547 2.094 1.043.758.439 1.542.893 1.836.926.186.021.367.003.548-.013.132-.012.266-.024.402-.024.297 0 .698.049 1.169.434.367.301 2.007 1.548 3.744 2.869 2.088 1.588 4.247 3.23 4.722 3.626.869.725 5.437 3.844 6.184 4.293.762.457 3.692 3.744 4.003 4.6.211.58 2.492 3.969 3.717 5.789.451.67.807 1.199.94 1.407.462.727 2.761 2.269 4.335 2.341 1.36.062 3.127 1.882 3.976 2.757.19.196.34.35.417.414a.794.794 0 00.525.177c.197 0 .351-.055.352-.056 0 0 .102-.208.196-.072.094.136-.069 1.482.001 1.659.07.177 1.242.8 1.382 1.361.157.63-.084 2.979-1.342 4.433-1.258 1.454-2.135 2.675-3.148 3.441-1.013.766-3.704 2.856-4.236 2.886-.532.031-.763-.021-1.113.209-.35.23-2.273 2.957-2.873 4.025-.659 1.172-1.094 1.692-1.718 2.131s-2.007.378-2.966.378c-.156 0-.275-.01-.365-.03-.275-.061-.678-.083-1.104-.105-.564-.03-1.149-.061-1.537-.19-.635-.212-3.708-.982-3.713-.946-.761 5.346-5.721 6.661-5.908 6.713-.332.151-8.66 3.873-12.226 3.873-3.461 0-5.047 2.179-5.062 2.201l-.022.024-6.641 5.984c-.747.847-2.471 4.451-2.471 4.451.237 1.292.593 3.246-1.568 4.471-2.018 1.144-3.436 2.191-3.891 2.873-.21.315-.145.878-.088 1.374.053.462-.896 1.1-1.361 1.1a.535.535 0 01-.279-.073c-.457-.275-.492-2.046-.798-2.292-.504-.405-1.914.485-1.975.855-.072.434.043 5.291 1.441 5.824.806.306 1.611.137 1.873-.363.156-.295.103-.659-.148-1.024-.333-.485-.278-.826-.172-1.027.196-.373.671-.505 1.018-.505.239 0 .453.058.6.163.587.42 1.01 2.226 1.082 3.74.132.379 1.169 1.119 1.169 1.119s-1.009 3.41-2.08 4.624c-1.123 1.272-3.255 3.408-4.92 3.408a106.38 106.38 0 00-2.604-.036z" class="st3"/>
    <circle cx="402.274" cy="162.161" r="16.194" class="st3"/>
    <path d="M398.022 114.222c-.318.74-.754 1.387-1.309 1.941s-1.205.991-1.95 1.309a6.013 6.013 0 01-2.384.477h-7.87V93.09h7.87a6.12 6.12 0 014.334 1.786 6.148 6.148 0 011.309 1.95c.318.745.477 1.54.477 2.383v.243a5.954 5.954 0 01-.901 3.19c-.289.462-.63.881-1.022 1.257-.393.375-.832.69-1.317.944.485.254.924.569 1.317.945.393.376.734.797 1.022 1.266a6.052 6.052 0 01.901 3.198v1.595c0 .843-.159 1.635-.477 2.375zm-1.759-15.013c0-.555-.104-1.072-.312-1.551a4.074 4.074 0 00-2.123-2.124 3.86 3.86 0 00-1.552-.312h-5.53v8.563h5.53a3.86 3.86 0 001.552-.312 4.058 4.058 0 002.123-2.123c.208-.479.312-.997.312-1.552v-.589zm0 10.679c0-.555-.104-1.072-.312-1.552s-.494-.898-.858-1.257a4.137 4.137 0 00-1.265-.849 3.86 3.86 0 00-1.552-.312h-5.53v9.898h5.53a3.86 3.86 0 001.552-.312 4.137 4.137 0 001.265-.849c.364-.358.65-.777.858-1.257s.312-.997.312-1.552v-1.958zM412.089 112.159h-7.87l-1.63 5.79h-2.323l7.281-24.858h1.179l7.315 24.858h-2.306l-1.646-5.79zm-7.263-2.132h6.674l-3.276-11.458-.07-.919-.069.919-3.259 11.458zM418.868 117.949V93.09h2.236v22.726h9.517v2.132h-11.753zM434.174 117.949V93.09h2.236v24.858h-2.236z"/>
    <g>
      <path d="M166.885 243.546h-7.87l-1.63 5.79h-2.323l7.281-24.858h1.179l7.315 24.858h-2.306l-1.646-5.79zm-7.263-2.132h6.674l-3.276-11.458-.07-.919-.069.919-3.259 11.458zM174.027 249.336v-24.858h2.236v24.858h-2.236zM193.633 249.336l-6.744-10.608h-3.068v10.608h-2.236v-24.858h7.887c.844 0 1.635.159 2.375.477.739.318 1.387.755 1.941 1.31s.991 1.204 1.309 1.95c.317.745.477 1.54.477 2.383v2.011a6.109 6.109 0 01-3.727 5.643 5.95 5.95 0 01-2.375.478l6.744 10.608h-2.583zm-.295-18.739c0-.555-.104-1.071-.312-1.551s-.491-.901-.849-1.266a3.944 3.944 0 00-1.257-.858 3.86 3.86 0 00-1.552-.312h-5.547v9.984h5.547a3.86 3.86 0 001.552-.312 3.966 3.966 0 001.257-.858c.358-.364.641-.786.849-1.266s.312-.996.312-1.552v-2.009zM213.993 236.058c-.318.739-.754 1.387-1.309 1.941s-1.205.991-1.95 1.309a6.013 6.013 0 01-2.384.477h-5.634v9.552h-2.236v-24.858h7.87c.844 0 1.638.159 2.384.477.745.318 1.396.755 1.95 1.31s.991 1.204 1.309 1.95c.318.745.477 1.54.477 2.383v3.086a5.95 5.95 0 01-.477 2.373zm-1.76-5.461c0-.555-.104-1.071-.312-1.551a4.062 4.062 0 00-2.123-2.124 3.86 3.86 0 00-1.552-.312h-5.53v11.042h5.53a3.86 3.86 0 001.552-.312 4.122 4.122 0 001.265-.85c.364-.358.65-.777.858-1.257s.312-.997.312-1.552v-3.084zM231.883 245.956c-.318.739-.754 1.387-1.309 1.941s-1.202.991-1.941 1.309a5.966 5.966 0 01-2.375.477h-1.768a6.005 6.005 0 01-2.383-.477 6.093 6.093 0 01-3.259-3.25 5.945 5.945 0 01-.477-2.375v-13.348c0-.844.159-1.636.477-2.375s.754-1.387 1.309-1.941a6.15 6.15 0 011.95-1.31 6.026 6.026 0 012.383-.477h1.768c.844 0 1.635.159 2.375.477a6.15 6.15 0 013.25 3.251c.317.739.477 1.531.477 2.375v13.348a5.98 5.98 0 01-.477 2.375zm-1.76-15.723c0-.555-.104-1.072-.312-1.552s-.491-.898-.849-1.257a4.02 4.02 0 00-1.257-.85 3.86 3.86 0 00-1.552-.312h-1.56c-.555 0-1.072.104-1.551.312-.48.208-.901.491-1.266.85s-.65.777-.858 1.257-.312.997-.312 1.552v13.348c0 .555.104 1.072.312 1.552a4.046 4.046 0 002.124 2.123c.479.208.997.312 1.551.312h1.56a3.86 3.86 0 001.552-.312 3.966 3.966 0 001.257-.858c.358-.363.641-.785.849-1.265s.312-.997.312-1.552v-13.348zM249.382 249.336l-6.744-10.608h-3.068v10.608h-2.236v-24.858h7.887c.844 0 1.635.159 2.375.477.739.318 1.387.755 1.941 1.31s.991 1.204 1.309 1.95c.317.745.477 1.54.477 2.383v2.011a6.109 6.109 0 01-3.727 5.643 5.95 5.95 0 01-2.375.478l6.744 10.608h-2.583zm-.295-18.739c0-.555-.104-1.071-.312-1.551s-.491-.901-.849-1.266a3.944 3.944 0 00-1.257-.858 3.86 3.86 0 00-1.552-.312h-5.547v9.984h5.547a3.86 3.86 0 001.552-.312 3.966 3.966 0 001.257-.858c.358-.364.641-.786.849-1.266s.312-.996.312-1.552v-2.009zM262.262 226.61v22.726h-2.236V226.61h-5.928v-2.133h14.093v2.133h-5.929z"/>
    </g>
    <g>
      <path d="M191.54 448.609c-.318.739-.754 1.387-1.309 1.941s-1.205.991-1.95 1.309a6.013 6.013 0 01-2.384.477h-7.87v-24.858h7.87c.844 0 1.638.159 2.384.477.745.318 1.396.755 1.95 1.31s.991 1.204 1.309 1.95c.318.745.477 1.54.477 2.383v.243c0 .589-.078 1.152-.234 1.69a5.931 5.931 0 01-.667 1.499c-.289.463-.63.882-1.022 1.257-.393.376-.832.69-1.317.944.485.255.924.569 1.317.945.393.376.734.797 1.022 1.266a6.052 6.052 0 01.901 3.198v1.595c0 .843-.16 1.635-.477 2.374zm-1.76-15.012c0-.555-.104-1.071-.312-1.551a4.062 4.062 0 00-2.123-2.124 3.86 3.86 0 00-1.552-.312h-5.53v8.563h5.53a3.86 3.86 0 001.552-.312 4.058 4.058 0 002.123-2.123 3.86 3.86 0 00.312-1.552v-.589zm0 10.678c0-.555-.104-1.072-.312-1.552s-.494-.898-.858-1.257a4.155 4.155 0 00-1.265-.849 3.86 3.86 0 00-1.552-.312h-5.53v9.898h5.53a3.86 3.86 0 001.552-.312 4.137 4.137 0 001.265-.849c.364-.358.65-.777.858-1.257s.312-.997.312-1.552v-1.958zM196.281 452.336v-24.858h2.236v24.858h-2.236zM217.013 452.336l-10.366-18.098-.208-1.074v19.172h-2.236v-24.858h1.162l10.366 18.115.226 1.058v-19.173h2.236v24.858h-1.18zM237.503 452.336h-.711l-1.3-1.993a6.13 6.13 0 01-1.976 1.707c-.774.422-1.636.633-2.583.633h-1.3a6.005 6.005 0 01-2.383-.477 6.093 6.093 0 01-3.259-3.25 5.945 5.945 0 01-.477-2.375v-13.348c0-.844.159-1.636.477-2.375s.754-1.387 1.309-1.941a6.15 6.15 0 011.95-1.31 6.026 6.026 0 012.383-.477h1.768c.844 0 1.635.159 2.375.477a6.15 6.15 0 013.25 3.251c.317.739.477 1.531.477 2.375v1.005l-2.236.347v-1.352c0-.555-.104-1.072-.312-1.552s-.491-.898-.849-1.257a4.02 4.02 0 00-1.257-.85 3.86 3.86 0 00-1.552-.312h-1.56c-.555 0-1.072.104-1.551.312-.48.208-.901.491-1.266.85s-.65.777-.858 1.257-.312.997-.312 1.552v13.348c0 .555.104 1.072.312 1.552a4.046 4.046 0 002.124 2.123c.479.208.997.312 1.551.312h1.56a3.86 3.86 0 001.552-.312 3.966 3.966 0 001.257-.858c.358-.363.641-.785.849-1.265s.312-.997.312-1.552v-5.184h-3.97v-2.132h6.206v13.071zM242.842 452.336v-24.858h2.236v24.858h-2.236zM263.575 452.336l-10.366-18.098-.208-1.074v19.172h-2.236v-24.858h1.162l10.366 18.115.226 1.058v-19.173h2.236v24.858h-1.18z"/>
    </g>
    <g>
      <path d="M331.676 457.956c-.318.739-.754 1.387-1.309 1.941s-1.202.991-1.941 1.309a5.966 5.966 0 01-2.375.477h-1.768a6.005 6.005 0 01-2.383-.477 6.093 6.093 0 01-3.259-3.25 5.945 5.945 0 01-.477-2.375v-19.104h2.236v19.104c0 .555.104 1.072.312 1.552a4.046 4.046 0 002.124 2.123c.479.208.997.312 1.551.312h1.56a3.86 3.86 0 001.552-.312 3.966 3.966 0 001.257-.858c.358-.363.641-.785.849-1.265s.312-.997.312-1.552v-19.104h2.236v19.104a5.98 5.98 0 01-.477 2.375zM350.302 461.336l-10.366-18.098-.208-1.074v19.172h-2.236v-24.858h1.162l10.366 18.115.226 1.058v-19.173h2.236v24.858h-1.18zM370.792 461.336h-.711l-1.3-1.993a6.13 6.13 0 01-1.976 1.707c-.774.422-1.636.633-2.583.633h-1.3a6.005 6.005 0 01-2.383-.477 6.093 6.093 0 01-3.259-3.25 5.945 5.945 0 01-.477-2.375v-13.348c0-.844.159-1.636.477-2.375s.754-1.387 1.309-1.941a6.15 6.15 0 011.95-1.31 6.026 6.026 0 012.383-.477h1.768c.844 0 1.635.159 2.375.477a6.15 6.15 0 013.25 3.251c.317.739.477 1.531.477 2.375v1.005l-2.236.347v-1.352c0-.555-.104-1.072-.312-1.552s-.491-.898-.849-1.257a4.02 4.02 0 00-1.257-.85 3.86 3.86 0 00-1.552-.312h-1.56c-.555 0-1.072.104-1.551.312-.48.208-.901.491-1.266.85s-.65.777-.858 1.257-.312.997-.312 1.552v13.348c0 .555.104 1.072.312 1.552a4.046 4.046 0 002.124 2.123c.479.208.997.312 1.551.312h1.56a3.86 3.86 0 001.552-.312 3.966 3.966 0 001.257-.858c.358-.363.641-.785.849-1.265s.312-.997.312-1.552v-5.184h-3.97v-2.132h6.206v13.071zM385.457 455.546h-7.87l-1.63 5.79h-2.323l7.281-24.858h1.179l7.315 24.858h-2.306l-1.646-5.79zm-7.263-2.132h6.674l-3.276-11.458-.07-.919-.069.919-3.259 11.458zM406.225 455.581a5.6 5.6 0 01-.511 2.375c-.341.739-.797 1.387-1.37 1.941s-1.237.991-1.994 1.309-1.557.477-2.401.477h-1.785c-.844 0-1.645-.159-2.401-.477a6.392 6.392 0 01-3.363-3.25 5.6 5.6 0 01-.511-2.375v-.988l2.236-.364v1.353c0 .555.112 1.072.338 1.552.225.479.529.901.91 1.265.381.364.823.65 1.326.858a4.104 4.104 0 001.586.312h1.56c.555 0 1.081-.104 1.578-.312a4.28 4.28 0 001.317-.858c.381-.363.685-.785.91-1.265.225-.479.338-.997.338-1.552v-.745c0-.855-.167-1.566-.502-2.133-.335-.565-.78-1.049-1.335-1.447s-1.182-.736-1.881-1.014-1.419-.555-2.158-.832c-.74-.277-1.459-.584-2.158-.919s-1.326-.754-1.881-1.257-1-1.118-1.335-1.847c-.335-.728-.502-1.623-.502-2.687v-.468c0-.844.159-1.636.477-2.375s.754-1.387 1.309-1.941a6.15 6.15 0 011.95-1.31 6.026 6.026 0 012.383-.477h1.595c.844 0 1.635.159 2.375.477a6.15 6.15 0 013.25 3.251c.317.739.477 1.531.477 2.375v.641l-2.236.364v-1.005c0-.555-.104-1.072-.312-1.552s-.491-.898-.849-1.257a4.02 4.02 0 00-1.257-.85 3.86 3.86 0 00-1.552-.312h-1.387c-.555 0-1.072.104-1.551.312-.48.208-.901.491-1.266.85s-.65.777-.858 1.257-.312.997-.312 1.552v.468c0 .797.167 1.468.502 2.011a4.71 4.71 0 001.335 1.396 9.445 9.445 0 001.881 1.006c.699.283 1.418.571 2.158.866.739.295 1.459.618 2.158.971s1.326.786 1.881 1.3c.555.515 1 1.142 1.334 1.881.335.74.503 1.642.503 2.705v.744zM420.353 455.546h-7.87l-1.63 5.79h-2.323l7.281-24.858h1.179l7.315 24.858H422l-1.647-5.79zm-7.264-2.132h6.674l-3.276-11.458-.07-.919-.069.919-3.259 11.458zM440.305 461.336l-10.366-18.098-.208-1.074v19.172h-2.236v-24.858h1.162l10.366 18.115.226 1.058v-19.173h2.236v24.858h-1.18z"/>
    </g>
  </g>
</svg>
